<svg xmlns="http://www.w3.org/2000/svg" viewBox="0 0 64 64">
  <rect width="64" height="64" rx="12" fill="#f7f7f5"/>
  <g transform="translate(3.5, 13) scale(1.0)">

<g id="cat">
<path id="Vector" d="M31.4872 0C32.0144 0.431917 32.5117 1.75914 32.7823 2.41199C33.1408 3.27604 33.3091 4.24197 33.4918 5.157C33.5346 5.36895 33.6636 5.58454 33.6934 5.80407C33.6574 5.92343 33.5986 5.98796 33.5244 6.08962C33.863 6.30114 33.8819 6.45194 33.63 6.7713C33.8074 7.49219 33.689 7.87302 33.8021 8.54395L33.7425 8.70682C33.7639 9.265 34.0351 9.37793 33.4691 9.83924L33.3191 10.0375L33.2945 10.0863L33.3551 10.1577C33.4924 10.1649 33.5943 10.0602 33.7055 9.97324C33.64 10.1522 33.4222 10.6627 33.4728 10.8213L33.5542 10.8589C33.6077 11.1211 33.1423 11.4944 33.2482 11.6346C33.3076 11.6107 33.3672 11.5874 33.4269 11.5649L33.453 11.5992C33.3669 12.0275 33.1734 11.9028 33.3014 12.4059C33.265 12.5961 33.1408 12.747 33.0768 12.9259C33.0407 13.0269 33.1426 13.2533 33.137 13.3597C33.1314 13.4698 32.996 13.6798 33.0258 13.7903C33.0323 13.8154 33.1339 14.0005 33.1551 14.0377C33.2122 14.1396 33.0852 14.4813 33.0283 14.5771L33.0283 14.5771C32.9568 14.7376 32.8196 15.046 32.8982 15.2081C32.9826 15.3832 33.1001 15.2842 33.0494 15.4743C32.9833 15.7239 32.7484 15.9912 32.7981 16.2491C32.8568 16.3114 32.8612 16.3117 32.9345 16.3579C32.9513 16.4859 32.8683 16.6156 32.8099 16.7484C33.1125 16.8692 33.0656 16.9771 33.069 17.2714C33.1262 17.7655 33.1594 17.8634 33.0774 18.3586C33.767 17.7208 33.84 17.7615 34.7284 17.5551C35.1174 17.4398 35.1848 17.6639 35.651 17.6598C35.8312 17.61 35.9477 17.5761 36.1232 17.5082C36.1925 17.3857 37.5928 17.1317 37.8112 17.0955C37.9109 17.079 38.0631 16.7745 38.1091 16.7191C38.2821 16.5555 38.2427 16.4497 38.2458 16.2211C38.3977 16.1172 38.5878 16.0887 38.6599 15.9912C38.6729 15.8535 38.6521 15.7989 38.7779 15.7366C38.833 15.7631 38.8571 15.7875 38.8994 15.8304L38.9012 15.8323C39.0559 15.8 39.2234 15.4447 39.3016 15.3081C39.3672 15.3917 39.4247 15.4932 39.5107 15.5282C39.5542 15.417 39.4914 15.3494 39.5309 15.2111C39.6558 15.1915 39.6676 15.2575 39.8384 15.2919C39.9046 15.2303 39.9863 14.9618 40.0248 14.8575L40.0633 14.8457L40.1637 14.9601L40.1922 14.9394C40.2345 14.795 40.1891 14.5878 40.1838 14.4142C40.4234 14.2305 40.3643 14.0926 40.4311 13.823C40.5706 13.2467 40.729 13.0338 41.1785 12.6683C41.747 12.206 42.038 11.4475 42.5152 10.8889C42.5907 10.8005 42.71 10.2896 42.8333 10.109C43.0979 9.72146 43.4027 9.67855 43.831 9.56714C44.0755 8.72148 44.5744 8.71514 45.346 8.71033C45.6775 8.69302 45.981 8.70706 46.2357 8.95446C46.6566 9.36376 46.9017 10.6497 46.5799 11.1325C46.3814 11.3177 46.0707 11.4471 45.9294 11.5901C45.3106 12.2172 44.7257 12.872 44.0727 13.4682C44.0317 13.5059 43.9854 13.5785 43.959 13.6278C43.9267 13.7266 43.9031 13.8043 43.8587 13.8993C43.699 14.3079 43.7835 14.4411 43.859 14.8946C43.6325 15.1438 43.5322 15.3209 43.3611 15.6102C43.3461 15.6349 43.2399 15.6594 43.2042 15.6656L43.0778 15.6648C43.252 15.9063 43.1573 16.0188 43.0305 16.2688C43.0349 16.3578 43.0408 16.3127 42.9737 16.4042C42.9905 16.5391 43.0091 16.5428 43.1184 16.6531C43.1284 16.7664 43.12 16.8499 43.1902 16.9347C43.2474 16.9652 43.2567 16.9737 43.3176 16.9932L43.5583 16.9052C43.6503 16.8679 43.8227 16.9456 43.909 16.9923L44.0438 16.9237C44.0793 16.8847 44.2715 16.7709 44.3246 16.742C44.4368 16.7403 44.393 16.7214 44.4688 16.7775L44.4623 16.9365C45.2006 16.5994 45.7576 16.3489 46.5473 16.448C46.6961 16.4666 46.7169 16.1964 47.0294 16.3836C47.4786 16.4108 47.9454 16.1933 48.4978 16.2787C49.6456 16.4563 50.6787 16.934 51.8079 17.1884C52.3174 17.2996 52.2465 17.2254 52.7606 17.2079C52.9302 17.2021 53.3145 17.3469 53.4832 17.4073C53.8666 17.3149 54.1006 17.1855 54.4419 16.9966L54.4769 16.9773C54.9553 16.7128 55.4495 16.351 55.986 16.7126C56.3873 16.9833 56.7455 17.452 56.4019 17.9116C56.2019 18.1789 55.9605 18.3758 55.7114 18.595C55.0646 19.1759 54.5853 19.6015 53.6885 19.7208C52.9399 19.8206 52.1192 19.7777 51.3609 19.759C50.7378 19.7435 50.1786 19.6596 49.5632 19.8255C48.964 19.9871 48.5571 20.4015 47.9849 20.6274C47.3897 20.8623 46.7793 20.8993 46.1708 21.0714C45.9145 21.1441 45.7874 21.3777 45.5681 21.4706C45.4271 21.5306 45.1025 21.5613 44.9705 21.6378C44.7863 21.7443 44.53 21.9307 44.365 22.0625C43.704 22.59 43.4558 22.6823 42.6714 22.8662C42.5832 23.0253 42.6621 23.1278 42.7068 23.3708C42.5907 23.6137 42.5599 23.6606 42.3863 23.8738C42.1626 23.9216 42.0029 23.9167 41.965 24.1904C42.0526 24.6698 40.3131 25.9604 39.8925 26.1757C39.8409 26.2449 39.753 26.3705 39.6983 26.4301L39.4728 26.8446C39.429 26.957 39.383 27.0906 39.3215 27.1919C39.1761 27.6194 39.1659 27.7428 38.937 28.1414L38.8907 28.1224C38.9357 27.9891 39.0258 27.8885 39.0177 27.7987L38.9618 27.7487L38.9301 27.7623C38.8838 28.1007 38.4741 28.7081 38.3443 29.1387C38.2768 29.1927 38.2358 29.2086 38.206 29.2807L38.1939 29.2142L38.1333 29.1934C38.1062 29.2931 38.0059 29.3366 37.9132 29.3767L37.9019 29.3816C37.8165 29.4829 37.7699 29.7473 37.7481 29.8856L37.7755 29.9061C37.7615 30.1574 37.6404 30.2357 37.6313 30.3479C37.5425 30.6266 36.9637 31.4612 36.7584 31.5563C36.6053 31.6308 36.1247 31.7493 35.9629 31.7968C35.9356 31.7527 35.1466 32.2256 35.122 32.1799C35.0975 32.1343 34.8553 32.1799 34.8553 32.1799C34.8553 32.1799 34.1851 32.4636 34.0783 32.4251C33.9251 32.495 33.8468 32.5149 33.7394 32.646C33.6822 32.8542 33.6188 33.0605 33.5489 33.2649C33.5228 33.3165 33.4036 33.4973 33.3949 33.5184L33.3275 33.5964C33.1908 33.7682 33.0777 33.9211 32.8913 34.0438L32.8947 34.0941L32.9826 34.1392L32.9904 34.1839C32.9013 34.2153 32.8137 34.2498 32.727 34.2874L32.7049 34.3439C32.754 34.4042 32.7786 34.421 32.8379 34.4704L32.8096 34.499C32.335 34.4747 32.5863 34.5903 32.252 34.6885C32.1554 34.746 32.0355 34.8799 31.9793 34.9075C31.9004 34.9613 31.741 35.0862 31.66 35.106L31.4748 35.235C31.4338 35.2561 31.3689 35.2946 31.3276 35.3021C31.2077 35.3506 31.1232 35.3822 31.0104 35.4469C30.8917 35.5475 30.5917 35.7321 30.5333 35.8172C30.3753 36.0102 30.3012 36.0219 30.0648 36.0591L30.0499 36.0614L30.0126 36.0468C29.8697 35.9545 29.7315 35.9151 29.5715 35.8579C29.4684 35.8756 29.5001 35.8492 29.4516 35.9135C29.5007 36.0726 29.6113 36.0993 29.6194 36.2261L29.5765 36.2671C29.4109 36.2121 29.4802 36.1338 29.2932 36.1015C29.1891 36.1997 29.2388 36.2469 29.2137 36.2708C29.1413 36.3392 28.8164 36.4131 28.7701 36.5007C28.516 36.9801 28.6063 36.3469 28.4603 36.8639L28.3401 36.8827C28.3401 36.8827 28.1162 36.8652 28.1054 36.8676C28.0902 36.8709 28.0652 36.8763 28.0336 36.8827C27.8198 36.9266 27.3003 37.0221 27.4114 36.8906L27.4082 36.8639C27.2648 36.7943 27.167 36.6809 27.0301 36.6399C26.9995 36.7188 27.0046 36.7241 26.9448 36.781C26.792 36.767 26.6295 36.5784 26.5109 36.4665C26.4395 36.5116 26.4373 36.5026 26.3852 36.5635L26.5065 36.7092L26.5491 36.7887L26.5316 36.8291C26.4136 36.8463 26.276 36.7798 26.1662 36.7268L26.1554 36.7216C25.6367 36.7275 25.8159 36.8611 25.4362 36.9316C25.249 36.9689 25.064 37.0112 24.8739 37.0245C24.7921 37.0481 24.7681 37.0494 24.6808 37.0432C24.4401 37.0289 24.1982 37.173 23.9505 37.1547C23.7926 37.1429 23.8107 37.1855 23.7606 37.3144C23.6028 37.2756 23.5419 37.0078 23.3528 37.0314C23.3496 37.0755 23.3488 37.1 23.3497 37.1451L23.3507 37.1845L23.3115 37.1929C23.21 37.1345 23.1475 37.0836 23.0318 37.0814L22.9476 37.1637C22.8537 37.1205 22.5672 36.8372 22.4673 36.7477C22.3819 36.959 22.5585 37.0034 22.4499 37.0966L22.3425 37.0888C22.0763 37.0587 21.8711 37.0516 21.5808 37.0112L21.4675 37.0099C21.3458 36.9375 21.237 36.7561 21.1447 36.6315C21.0515 36.7216 20.9818 36.8692 20.9168 36.986L20.7006 36.8319C20.4853 36.8198 20.3806 36.7944 20.1794 36.7456L20.1482 36.7381C19.7444 36.7067 19.5669 36.9068 19.2508 36.6722C19.1522 36.6219 19.0257 36.5293 18.9313 36.465C18.8615 36.519 18.7988 36.5883 18.7261 36.5967C18.6365 36.3907 18.4223 36.2428 18.2462 36.0925L18.1444 36.2164C18.2739 36.3696 18.3037 36.4507 18.3888 36.6318L18.3422 36.607C18.1138 36.4827 17.8683 36.2466 17.7603 36.1972L17.7266 36.2242L17.7377 36.2556C17.7654 36.3364 17.789 36.3724 17.7633 36.4513C17.6093 36.4945 17.468 36.3584 17.3465 36.2683C17.3018 36.4237 17.3438 36.4274 17.3634 36.5846L17.3377 36.6281C17.2026 36.6104 17.079 36.4743 16.9875 36.3799L16.8956 36.3575L16.8705 36.3727C16.7953 36.4728 16.8154 36.5526 16.8166 36.6766C16.5982 36.734 16.2459 36.3671 16.0694 36.5268C16.1687 36.6063 16.1702 36.5802 16.188 36.675C15.9553 36.8611 15.6973 36.4759 15.5436 36.4143C15.5186 36.4989 15.5436 36.5383 15.5734 36.6222C15.6401 36.7179 15.6539 36.7058 15.662 36.8052C15.5907 36.8235 15.3702 36.6958 15.1543 36.6691L15.1352 36.6624C14.9629 36.6017 14.931 36.5904 14.7987 36.4498L14.6164 36.5085L14.6232 36.5237C14.689 36.6712 14.7513 36.811 14.8088 36.9633C14.6681 36.8434 14.5239 36.6999 14.3542 36.6402C13.6842 36.7201 13.999 36.4802 13.7313 36.4072L13.6934 36.4398C13.7072 36.5184 13.7113 36.5175 13.6981 36.5964L13.6375 36.62C13.4478 36.5694 13.3464 36.6561 13.2031 36.5703C12.9927 36.4936 11.7063 36.0369 11.5612 36.0558C11.5355 36.1465 11.5284 36.2186 11.4586 36.277C11.1039 36.2559 10.6008 35.8797 10.3501 35.6501L10.2772 36.0502C10.0415 35.8495 9.86061 35.7066 9.5666 35.6007C9.51419 35.4873 9.45741 35.29 9.32408 35.2844C9.28395 35.3549 9.27631 35.3825 9.21247 35.4323L9.15053 35.409C8.9045 35.0613 8.67429 35.0868 8.24384 34.8538C8.14555 34.8013 8.07206 34.7916 7.96433 34.7677C7.57246 34.3722 7.13564 33.9671 6.71957 33.5933C6.57885 33.4672 6.34373 33.4464 6.22283 33.3162C6.19372 33.2848 6.21255 33.1245 6.21541 33.0673L6.17999 33.0397L6.17502 33.0447C6.11442 33.1067 6.10885 33.1124 6.03275 33.1615C5.91042 33.1459 5.3756 32.55 5.24013 32.4379C5.13793 32.3534 5.12976 32.2772 5.09966 32.1486L5.08897 32.102C4.98721 32.0622 5.04955 32.1927 4.87209 32.2275C4.69403 32.1141 4.50668 31.9693 4.32322 31.8504C4.01709 31.6518 3.55843 31.4033 3.28749 31.174C2.68998 30.6691 1.95076 29.8219 1.53049 29.1685C1.50185 29.0946 1.4487 29.0324 1.40111 28.9653C1.03382 28.5813 0.454446 28.2728 0.213981 27.8189C0.183974 27.7623 0.195001 27.2948 0.173412 27.1727C0.118771 26.8635 -0.138648 26.5093 0.0992629 26.2232C0.464977 25.801 1.32317 25.6941 1.83535 25.6211C1.88711 25.2091 1.94007 25.1377 2.22673 24.8347C2.32215 24.7359 2.42755 24.6471 2.54122 24.57C2.84142 24.365 3.36018 24.1556 3.72465 24.2255C4.01824 24.3358 4.35217 24.4513 4.4964 24.7583C4.51451 24.7978 4.53132 24.8378 4.54672 24.8785C4.6703 25.1874 4.72947 25.2837 4.92319 25.5459C5.35547 25.0134 5.35168 24.6924 5.60876 24.1431C6.0421 23.2173 6.72007 21.9158 7.73884 21.5663C7.61269 21.2364 8.03627 20.4711 8.1732 20.166C8.21641 19.9355 8.2562 19.6795 8.37459 19.476L8.42388 19.4822C8.39288 19.3809 8.41214 19.2234 8.41805 19.1125C8.37446 18.8311 8.24198 18.709 8.30618 18.4069C8.44513 18.1269 8.48325 17.7837 8.82722 17.7181C9.25913 17.6175 11.3915 18.6947 11.7215 19.0297C11.8074 19.0766 11.9021 19.1193 11.9713 19.1843C12.5131 19.5226 12.8446 19.8985 13.2898 20.3397C13.8663 20.9108 14.5398 21.3734 14.7858 22.1874C15.0009 22.041 15.24 21.8667 15.4339 22.1606C15.4818 22.1799 15.5105 22.192 15.5601 22.2063C16.2343 22.4751 16.8957 22.8314 17.4384 23.3189C17.535 23.4056 17.7369 23.6314 17.8282 23.6603L17.9285 23.6025C18.0604 23.6274 18.3246 24.0363 18.4211 24.1695C19.114 24.2401 19.4394 25.0454 19.6441 25.0935L19.7107 24.9634L19.7633 24.9497C20.0669 25.1532 20.2221 25.4306 20.4775 25.6733C20.5453 25.6643 20.5376 25.663 20.5932 25.6251C21.9279 26.5749 22.8637 26.628 24.4807 26.5317C24.6979 26.5177 24.8972 26.4289 25.1098 26.3987C26.0861 26.2599 26.8817 25.6475 27.6956 25.1358C27.9621 24.9683 27.8742 24.5082 28.333 24.5355L28.621 24.5517L28.6176 24.5487C28.5159 24.4589 28.4547 24.4049 28.3653 24.3016C28.3647 24.2699 29.1699 23.6224 29.2948 23.3285C29.3839 23.1191 29.9909 22.4145 30.0363 22.1613C30.103 21.7884 30.1058 21.4296 30.2105 21.1261C29.8906 20.427 29.698 19.9302 29.7415 19.1488C29.7486 19.0196 29.7147 18.6748 29.7648 18.5726C29.8393 18.5904 29.8148 18.5882 29.8934 18.5857C29.9086 18.488 29.7601 18.1431 29.7154 18.0297C29.8306 17.4474 29.8924 16.8452 29.9822 16.2636C30.0415 15.8785 30.1813 13.9102 30.4158 13.6838C30.3922 12.9504 30.3158 12.7307 30.6109 12.0328C30.7085 11.8256 30.7638 11.0959 30.7995 10.8273C30.8653 10.3344 30.9293 10.0621 30.9175 9.5603C30.8964 9.41907 30.9039 8.79173 30.9542 8.67301C31.0377 8.66739 31.016 8.67385 31.094 8.64772L31.0965 8.578C30.8703 8.2963 31.0067 7.91658 30.9405 7.48016C30.9675 7.13971 30.8507 7.03628 31.0887 6.78279C31.0185 6.63295 30.8945 6.43482 30.9871 6.2819C31.1505 6.01111 30.8725 5.79419 30.8986 5.59177L30.9877 5.56182C31.3018 4.74307 29.2708 1.51242 31.4872 0Z" fill="#292928"/>
<path id="Vector_2" d="M30.4904 33.9182C30.597 33.9033 30.683 33.9241 30.7725 33.9776C30.9318 34.0726 31.1539 33.9223 31.2248 33.9319C31.1117 34.049 30.6638 34.3799 30.5196 34.4644C30.5998 34.338 30.6864 34.2628 30.6237 34.1217C30.5137 34.0639 30.4802 34.0764 30.3503 34.0823C30.4528 34.04 30.4792 34.0217 30.4904 33.9182Z" fill="#4C3835"/>
<path id="Vector_3" d="M31.0616 35.1527C31.2048 35.1474 31.3897 35.1077 31.4748 35.235C31.4338 35.2562 31.3689 35.2947 31.3275 35.3022C31.1682 35.3208 31.1051 35.3503 30.9914 35.2319L31.0616 35.1527Z" fill="#4C3835"/>
<path id="Vector_4" d="M30.6028 35.0839C30.7246 35.1227 30.8886 35.1656 30.9914 35.2318C31.1051 35.3501 31.1682 35.3206 31.3275 35.302C31.2076 35.3505 31.1231 35.3821 31.0104 35.4468C30.842 35.3958 30.7926 35.3825 30.6187 35.3663L30.4835 35.2026C30.5643 35.1606 30.559 35.1644 30.6028 35.0839Z" fill="#6B514C"/>
<path id="Vector_5" d="M32.49 32.7554L32.6236 32.7057C32.7966 32.7476 32.8211 32.7545 32.9948 32.7215C32.7705 32.8439 32.5891 32.958 32.3735 33.0962C32.4055 33.0164 32.4033 33.0465 32.4021 32.9654L32.2387 32.9536C32.3685 32.9014 32.4378 32.8896 32.49 32.7554Z" fill="#4C3835"/>
<path id="Vector_6" d="M8.90774 20.8642C9.0343 20.8014 9.04362 20.7676 9.15153 20.7887C9.32167 21.077 8.85963 21.6636 8.79166 21.9389L8.7542 21.8398C8.81673 21.7295 8.9015 21.6167 8.89221 21.4983C8.77681 21.4241 8.64852 21.5132 8.52165 21.4387C8.63774 21.4259 8.66001 21.4225 8.77175 21.3911L8.79473 21.388C9.0001 21.2404 8.94589 21.0786 8.90774 20.8642Z" fill="#403837"/>
<path id="Vector_7" d="M9.20402 19.9135C9.23356 19.9256 9.24847 19.943 9.27481 19.9647C9.29761 20.0806 9.3178 20.1583 9.31839 20.276C9.30305 20.2773 9.28767 20.2788 9.27232 20.2804L9.12865 20.1173L9.04444 20.1496C9.00732 20.2108 9.00716 20.212 8.95603 20.2617C8.92714 20.1884 8.93215 20.2285 8.97253 20.1344C9.10054 20.0607 9.13114 20.0424 9.20402 19.9135Z" fill="#41403C"/>
<path id="Vector_8" d="M45.346 8.7103C45.6775 8.693 45.981 8.70704 46.2357 8.95444C46.6566 9.36374 46.9017 10.6496 46.5799 11.1324L46.551 11.0548C46.405 11.0448 45.7381 11.6111 45.4429 11.6251C45.0612 11.6433 44.5222 11.2747 44.2507 11.6215C44.4241 11.6589 44.7946 11.5437 44.9537 11.723C44.9208 11.8743 44.6539 12.0746 44.5135 12.1284C44.6586 11.9839 44.8055 11.8416 44.9549 11.7014C44.8099 11.7015 44.3961 11.6996 44.2725 11.6886C43.9715 11.6618 43.7059 11.9598 43.5356 11.9054C43.6291 11.8598 43.6819 11.8369 43.7677 11.775C43.6434 11.7773 43.4474 11.7995 43.3502 11.7406C43.307 11.6298 43.3135 11.6868 43.3412 11.5627L43.376 11.5495L43.4154 11.678C43.5245 11.7306 43.7077 11.6389 43.8621 11.6768C43.9606 11.701 44.1358 11.5979 44.2013 11.5086L44.1914 11.4502C44.0305 11.354 43.7897 11.488 43.6192 11.499C43.4769 11.5082 43.3045 11.4429 43.1613 11.4261C42.9954 11.4066 43.0249 11.412 42.9041 11.5026C42.8091 11.511 42.7904 11.5194 42.6978 11.4938C42.7994 11.4742 43.0262 11.3937 43.0513 11.3933C43.7537 11.3819 44.4989 11.4886 45.1867 11.4444C45.3908 11.4312 45.8213 10.9855 45.9543 10.8174C45.999 10.7608 45.9539 10.6666 45.9297 10.6C45.9117 10.3128 45.7495 10.3783 45.9679 10.1443C46.0518 10.1348 46.058 10.1069 46.0878 10.0469C46.0524 9.85537 45.9049 9.75042 45.7598 9.63003L45.4411 9.62981C45.6113 9.57988 45.729 9.5654 45.8629 9.44939C46.013 9.41556 46.0763 9.3994 46.19 9.29796L46.186 9.23673C46.1282 9.19441 46.1437 9.21197 46.1015 9.15505L46.2664 9.10475L46.273 9.06048C46.0139 8.81972 45.6691 8.77614 45.346 8.7103Z" fill="#575145"/>
<path id="Vector_9" d="M46.2888 10.3473C46.3547 10.4019 46.3485 10.404 46.3823 10.4846C46.3774 10.6018 46.3606 10.6136 46.2941 10.7079L46.2149 10.6328C46.2016 10.4832 46.2196 10.5055 46.2888 10.3473Z" fill="#363732"/>
<path id="Vector_10" d="M38.2188 16.9857C38.2828 17.1459 38.3315 17.1386 38.4981 17.1656C38.5353 17.2054 38.6279 17.295 38.6459 17.3374C38.7208 17.4099 38.713 17.4101 38.8149 17.4256C38.9078 17.3911 38.9006 17.3917 38.96 17.3109C39.0932 17.2545 39.1026 17.222 39.1874 17.1019L39.2135 17.0645C39.3225 17.0929 39.3722 17.2434 39.534 17.3418C39.7509 17.2921 40.0792 16.8979 40.2824 17.0197C40.328 17.1427 40.3501 17.1692 40.4461 17.2584L40.5514 17.2716C40.5448 17.3466 40.5085 17.3602 40.4454 17.4312L40.4206 17.4587C40.2923 17.5135 40.1618 17.4959 40.0186 17.4934C39.8434 17.6645 39.6042 17.9452 39.3523 17.9423C39.2998 17.8305 39.4961 17.7064 39.4769 17.5627C39.2392 17.5314 38.7043 17.9591 38.5614 17.9831C38.4014 17.8667 38.4937 17.7574 38.3126 17.6907C37.9693 17.761 37.9967 18.0857 37.7491 18.1118L37.6755 18.0516C37.636 17.814 37.8025 17.6173 37.8258 17.4186L37.8128 17.38C37.9659 17.3198 37.9849 17.2659 38.0663 17.1254L38.1452 17.0964L38.2188 16.9857Z" fill="#46453E"/>
<path id="Vector_11" d="M38.2188 16.9857C38.2827 17.1459 38.3315 17.1386 38.498 17.1656C38.5353 17.2054 38.6279 17.295 38.6459 17.3374C38.5431 17.3445 38.4067 17.4059 38.3039 17.4437C38.229 17.3205 38.1622 17.2378 38.1451 17.0964L38.2188 16.9857Z" fill="#41403C"/>
<path id="Vector_12" d="M8.24328 21.4054C8.33619 21.4153 8.42898 21.4262 8.52161 21.4386C8.64847 21.5132 8.77676 21.424 8.89217 21.4983C8.90145 21.6166 8.81668 21.7294 8.75415 21.8397C8.69513 21.9876 8.58644 22.1858 8.59159 22.3272L8.61728 22.3816C8.55823 22.5325 8.30438 23.0896 8.32653 23.2049C8.28198 23.1201 8.28894 23.1157 8.20898 23.0672C8.00797 23.1306 8.06621 23.3639 7.92453 23.4283C7.84171 23.4133 7.73697 23.3932 7.65328 23.3935C7.37489 23.1629 8.23135 21.9118 8.16301 21.5293L8.12924 21.5815L8.07342 21.5881C7.99738 21.5138 7.97433 21.5182 7.87008 21.5026C8.00993 21.4573 8.10576 21.475 8.24328 21.4054Z" fill="#3D3936"/>
<path id="Vector_13" d="M24.4515 35.6066C24.3573 35.4885 24.1982 35.3276 24.1803 35.1943L24.2209 35.162C24.5536 35.2179 25.478 36.0481 25.7594 36.3093C25.788 36.3361 25.8483 36.529 25.866 36.5806C26.051 36.6648 26.204 36.6533 26.4101 36.7446L26.4652 36.7266L26.5065 36.7092L26.5491 36.7887L26.5316 36.8291C26.4097 36.8468 26.2669 36.7754 26.1554 36.7216C25.6367 36.7275 25.8159 36.8611 25.4362 36.9317C25.249 36.9689 25.064 37.0112 24.8739 37.0245C25.0264 36.9267 25.3385 36.8291 25.374 36.6868C25.3197 36.6082 25.2527 36.5411 25.1983 36.4625C25.0469 36.406 24.797 36.117 24.8006 35.9312C24.8564 35.8579 24.8738 35.8545 24.951 35.8063C24.7602 35.7187 24.6511 35.6687 24.4515 35.6066Z" fill="#363732"/>
<path id="Vector_14" d="M25.1983 36.4625L25.1511 36.4084L25.1576 36.3696L25.1063 36.3279L25.1547 36.3581L25.1107 36.3366L25.102 36.3108C25.1474 36.3382 25.1848 36.3581 25.232 36.3823C25.2695 36.2978 25.2567 36.3425 25.235 36.2313L25.1891 36.1956L25.1925 36.194L25.1991 36.2102C25.2281 36.1987 25.2417 36.1853 25.268 36.1667L25.2735 36.0803L25.3006 36.0794L25.3071 36.1456L25.3636 36.1555L25.4028 36.2223C25.4977 36.3854 25.5047 36.3792 25.6441 36.4889L25.663 36.5035C25.6295 36.5591 25.5869 36.6299 25.5351 36.7157C25.5376 36.8462 25.5492 36.817 25.4362 36.9316C25.249 36.9689 25.064 37.0111 24.8738 37.0245C25.0264 36.9266 25.3385 36.8291 25.374 36.6868C25.3197 36.6082 25.2527 36.5411 25.1983 36.4625Z" fill="#41403C"/>
<path id="Vector_15" d="M25.4028 36.2224L25.4753 36.1683C25.792 36.2295 25.6876 36.5476 25.8936 36.6676C25.9364 36.6924 26.0627 36.6486 26.1554 36.7216C25.6367 36.7275 25.8159 36.8611 25.4361 36.9317C25.5492 36.817 25.5376 36.8462 25.5351 36.7157C25.5869 36.63 25.6295 36.5591 25.663 36.5035L25.6441 36.4889C25.5047 36.3793 25.4977 36.3855 25.4028 36.2224Z" fill="#575145"/>
<path id="Vector_16" d="M33.2945 10.0862L33.3551 10.1577C33.4924 10.1649 33.5943 10.0601 33.7055 9.97318C33.64 10.1522 33.4222 10.6627 33.4728 10.8213L33.5542 10.8589C33.6077 11.121 33.1423 11.4943 33.2483 11.6345C33.3076 11.6106 33.3672 11.5874 33.4269 11.5649L33.453 11.5991C33.3669 12.0275 33.1734 11.9027 33.3014 12.4058C33.265 12.5961 33.1408 12.747 33.0768 12.9258C33.0408 13.0269 33.1426 13.2533 33.1371 13.3596C33.1315 13.4698 32.996 13.6798 33.0258 13.7902C33.0324 13.8154 33.1339 14.0004 33.1551 14.0377C33.2122 14.1396 33.0852 14.4813 33.0283 14.577C33.0022 14.4383 32.9181 14.3403 32.8954 14.2063C32.8547 13.9631 33.0109 13.5457 33.0203 13.3455C33.0249 13.2435 32.9451 12.7925 32.9299 12.6407C32.8926 12.2652 32.932 12.2959 33.1864 11.9847C33.1597 11.7638 33.1175 11.4118 33.1361 11.1881C33.1433 11.1045 33.4002 10.7769 33.3654 10.6356C33.3253 10.4733 33.1958 10.4271 33.1731 10.2374C33.2063 10.1448 33.2181 10.146 33.2945 10.0862Z" fill="#3D3936"/>
<path id="Vector_17" d="M37.9018 29.3816C37.8164 29.4829 37.7698 29.7473 37.7481 29.8856L37.7754 29.9061C37.7614 30.1574 37.6403 30.2357 37.6313 30.3479C37.526 30.2534 37.5667 30.2618 37.4499 30.2525C37.3393 30.3631 37.3604 30.5091 37.3321 30.5281C37.1498 30.6511 36.9196 30.4566 36.874 30.8524C36.778 30.9084 36.5633 30.8919 36.44 30.8925L36.413 30.899C36.3772 30.7692 36.5397 30.4041 36.6174 30.2907C36.6258 29.9508 36.7112 29.8017 36.8413 29.4885C36.8333 29.6724 36.7932 29.8334 36.7553 30.013L36.8367 30.1012C37.0237 30.1434 37.4766 29.994 37.5884 29.8359C37.5487 29.6619 37.3735 29.6634 37.321 29.4957C37.3812 29.4559 37.7562 29.4217 37.9018 29.3816Z" fill="#6B514C"/>
<path id="Vector_18" d="M36.6174 30.2906C36.7441 30.2919 36.9665 30.2785 37.0569 30.3748C36.9839 30.5622 36.7444 30.573 36.7059 30.7004C36.6851 30.7703 36.663 30.7852 36.6071 30.8408C36.5406 30.8567 36.4987 30.8601 36.44 30.8924L36.413 30.8989C36.3772 30.7691 36.5397 30.404 36.6174 30.2906Z" fill="#4C3835"/>
<path id="Vector_19" d="M33.3191 10.0374C33.3238 10.0084 33.3284 9.97933 33.3334 9.95025C33.3446 9.85726 33.5337 9.17888 33.5309 9.14992C33.4918 8.74864 33.2271 8.74357 33.4378 8.29342C33.5574 8.03735 33.5002 7.34635 33.4871 7.04595C33.4825 6.93842 33.5564 6.85071 33.63 6.77124C33.8074 7.49212 33.6891 7.87296 33.8021 8.54389L33.7425 8.70675C33.7639 9.26493 34.0351 9.37787 33.4691 9.83918L33.3191 10.0374Z" fill="#4C3835"/>
<path id="Vector_20" d="M8.76712 17.8998C9.06924 17.8747 10.1352 18.6339 10.4073 18.8481C10.6688 19.0539 10.7607 19.6123 10.898 19.7546C11.0246 19.891 11.079 19.9979 10.8914 20.1417C10.7797 20.157 10.8272 20.1706 10.7419 20.1091L10.7052 19.9777C10.5151 19.539 10.5039 19.2634 10.0812 18.8992C9.8569 18.7519 9.09717 18.279 8.87199 18.2214C8.91734 18.1613 8.90489 18.1709 8.92905 18.0941C8.90635 17.9934 8.8495 17.9656 8.76712 17.8998Z" fill="#51514E"/>
<path id="Vector_21" d="M43.8652 13.5738C44.2423 13.1519 44.7636 12.7267 45.1646 12.2982C45.3737 12.075 45.6383 11.7447 45.8328 11.5632C46.077 11.3354 46.2506 11.3766 46.551 11.0548L46.5799 11.1324C46.3814 11.3177 46.0707 11.447 45.9294 11.59C45.3106 12.2171 44.7257 12.872 44.0727 13.4681C44.0317 13.5058 43.9854 13.5785 43.959 13.6277C43.9267 13.7265 43.9031 13.8042 43.8587 13.8992C43.699 14.3079 43.7835 14.441 43.859 14.8946C43.6326 15.1438 43.5322 15.3208 43.3611 15.6101C43.3461 15.6349 43.2399 15.6593 43.2042 15.6655C43.3036 15.4743 43.6922 15.019 43.6555 14.8619C43.5742 14.5116 43.6058 14.226 43.5763 13.8838C43.6037 13.8452 43.6099 13.8361 43.6338 13.7937C43.5359 13.7598 43.4403 13.7285 43.3449 13.6874C43.5738 13.6676 43.5394 13.5699 43.8652 13.5738Z" fill="#41403C"/>
<path id="Vector_22" d="M43.8587 13.8994C43.7711 13.7998 43.676 13.7605 43.6499 13.6594C43.7378 13.6098 43.8537 13.6256 43.959 13.6278C43.9267 13.7266 43.9031 13.8043 43.8587 13.8994Z" fill="#3D3936"/>
<path id="Vector_23" d="M10.898 19.7547C10.9973 19.7444 11.0408 19.7286 11.1245 19.7804C11.1707 19.906 11.0711 20.1228 11.1117 20.1819C11.3904 20.5882 11.4645 21.0754 11.6627 21.5069L11.7036 21.4929C11.7188 21.4376 11.73 21.4081 11.7613 21.3597C11.7617 21.2587 11.7745 21.2655 11.7333 21.1844C11.7098 21.2478 11.6743 21.3656 11.6363 21.4122L11.6411 21.3292L11.6357 21.3426L11.6938 21.1437L11.7467 21.1173C11.9189 21.2814 11.6047 21.9292 11.438 22.0798C11.5011 21.9406 11.6831 21.6095 11.5453 21.5063L11.4762 21.5293C11.4471 21.3277 11.4378 21.3507 11.2562 21.2898L11.1917 21.1338C11.1477 21.0654 11.1021 21.0738 11.0233 20.9309L11.0018 20.9322C11.0003 20.6786 11.0332 20.3981 10.7671 20.249C10.6176 20.1651 10.6701 20.1256 10.7052 19.9777L10.7419 20.1092C10.8272 20.1707 10.7797 20.157 10.8914 20.1418C11.079 19.9979 11.0246 19.891 10.898 19.7547Z" fill="#46453E"/>
<path id="Vector_24" d="M11.0234 20.931C11.0409 20.784 11.0399 20.683 11.1127 20.555L11.173 20.5209C11.3637 20.6051 11.4551 21.0214 11.4218 21.214L11.3771 21.2544C11.2859 21.2373 11.2594 21.1985 11.1918 21.1339C11.1478 21.0655 11.1022 21.0739 11.0234 20.931Z" fill="#51514E"/>
<path id="Vector_25" d="M2.22675 24.8347C2.32218 24.7359 2.42758 24.647 2.54124 24.57C2.84144 24.3649 3.36021 24.1555 3.72468 24.2254C3.55895 24.3926 3.71182 24.6125 3.47191 24.7123C3.38882 24.7029 3.33461 24.7033 3.26006 24.6641C2.91087 24.6135 2.7964 24.9931 2.22675 24.8347Z" fill="#544538"/>
<path id="Vector_26" d="M37.4459 17.3566C37.6326 17.1953 37.8265 17.1361 38.0663 17.1255C37.9849 17.266 37.9659 17.3199 37.8128 17.3801C37.7382 17.4435 37.6907 17.4857 37.6075 17.5396C37.5196 17.5098 37.5425 17.5088 37.4804 17.4092L37.4459 17.3566Z" fill="#776656"/>
<path id="Vector_27" d="M37.0116 17.4347C37.1238 17.3786 37.0995 17.3352 37.2605 17.2594C37.3555 17.2658 37.3735 17.2938 37.4459 17.3566L37.4804 17.4092C37.2424 17.4922 37.2309 17.5805 37.0014 17.454L37.0116 17.4347Z" fill="#776656"/>
<path id="Vector_28" d="M11.4763 21.5294L11.5454 21.5064C11.6831 21.6096 11.5011 21.9408 11.4381 22.08C11.3466 22.3214 10.9533 23.438 10.8074 23.539C10.8002 23.5439 10.7924 23.548 10.7849 23.5526L10.7635 23.7592C10.724 22.8318 11.042 22.3664 11.4763 21.5294Z" fill="#4C4C4A"/>
<path id="Vector_29" d="M3.72464 24.2255C4.01822 24.3358 4.35216 24.4513 4.49639 24.7583C4.5145 24.7977 4.5313 24.8378 4.54671 24.8785C4.03267 24.3336 3.58308 25.0516 3.30627 24.9593C3.24362 24.868 3.25974 24.7794 3.26002 24.6641C3.33457 24.7033 3.38878 24.703 3.47187 24.7123C3.71178 24.6126 3.55892 24.3926 3.72464 24.2255Z" fill="#413421"/>
<path id="Vector_30" d="M37.956 26.6186C38.0796 26.604 38.2007 26.573 38.3095 26.6245L38.3116 26.668C38.152 26.7948 38.0262 26.8268 37.8302 26.8871C37.673 26.9731 36.8554 27.3982 36.7128 27.3003L36.7199 27.2518C36.8526 27.1027 37.1253 26.9511 37.3046 26.8485C37.4046 26.8405 37.8239 26.6758 37.9227 26.6276L37.956 26.6186Z" fill="#51514E"/>
<path id="Vector_31" d="M42.3409 17.0805C42.4297 17.0963 42.4475 17.1007 42.5406 17.1005C42.9146 16.8507 42.8013 16.5865 42.9737 16.4042C42.9904 16.5391 43.0091 16.5428 43.1184 16.6531C43.1284 16.7664 43.12 16.8499 43.1902 16.9347C43.2473 16.9652 43.2567 16.9737 43.3175 16.9933L42.7447 17.2483C42.5702 17.2751 42.4568 17.3349 42.308 17.4317C42.2446 17.4057 42.2648 17.4203 42.2235 17.3654C42.2216 17.2495 42.2797 17.1823 42.3409 17.0805Z" fill="#575145"/>
<path id="Vector_32" d="M30.6109 12.0326C30.6824 12.0637 30.7162 12.076 30.7836 12.1169C30.7172 12.3865 30.5963 13.2123 30.5879 13.5337C30.5761 13.544 30.5643 13.5543 30.5525 13.5646C30.5255 13.4254 30.5267 13.3584 30.5236 13.2147C30.486 13.4252 30.5152 13.5556 30.4158 13.6837C30.3922 12.9502 30.3158 12.7306 30.6109 12.0326Z" fill="#363732"/>
<path id="Vector_33" d="M26.4653 36.7265C26.2715 36.5681 25.3276 35.8892 25.4216 35.6227L25.4789 35.6133C25.695 35.7594 25.8651 35.8607 26.0438 36.0517C26.112 36.1101 26.4811 36.4211 26.5109 36.4665C26.4395 36.5115 26.4373 36.5025 26.3852 36.5634L26.5065 36.7091L26.4653 36.7265Z" fill="#46453E"/>
<path id="Vector_34" d="M26.0437 36.0518C26.1119 36.1102 26.4811 36.4212 26.5109 36.4666C26.4395 36.5116 26.4373 36.5026 26.3852 36.5635C26.214 36.4691 26.0431 36.4007 25.9565 36.2283C25.9557 36.1105 25.9415 36.1565 26.0437 36.0518Z" fill="#575145"/>
<path id="Vector_35" d="M41.965 24.1903L41.9184 24.0778C41.9457 23.8548 42.384 23.7985 42.3834 23.463L42.2598 23.4329L42.2452 23.3748C42.316 23.2552 42.343 23.2999 42.4828 23.1921L42.4685 23.1306C42.3014 23.0852 42.1722 23.2452 42.0402 23.1585C42.1157 23.0516 42.4844 22.9553 42.6714 22.8662C42.5832 23.0252 42.6621 23.1278 42.7068 23.3707C42.5906 23.6137 42.5599 23.6606 42.3862 23.8737C42.1626 23.9216 42.0029 23.9166 41.965 24.1903Z" fill="#776656"/>
<path id="Vector_36" d="M30.0167 31.7115C29.9654 31.5872 29.981 31.5931 29.9751 31.4866C29.9636 31.2709 29.4265 31.3691 29.287 31.2427C29.2155 31.1781 29.2379 31.2203 29.2168 31.1206C29.4849 30.9031 29.9508 31.3294 30.3941 30.9823C30.2798 31.2191 30.117 31.4912 30.0167 31.7115Z" fill="#3D3936"/>
<path id="Vector_37" d="M16.2435 35.6582C16.3956 35.9295 16.5433 36.3216 16.8705 36.3728C16.7953 36.4729 16.8154 36.5527 16.8167 36.6767C16.5982 36.7342 16.2459 36.3672 16.0694 36.5269C16.028 36.5098 16.0514 36.5241 16.0097 36.471C16.1071 36.3644 16.1807 36.4496 16.2349 36.3846C16.3489 36.2479 16.2692 35.8304 16.2435 35.6582Z" fill="#3D3936"/>
<path id="Vector_38" d="M1.40115 28.9653C1.72778 28.6754 1.97856 28.2268 2.1218 28.1099C2.23145 28.1879 2.25201 28.2224 2.33884 28.329C2.10524 28.6089 1.60315 28.9811 1.53053 29.1684C1.50189 29.0945 1.44874 29.0324 1.40115 28.9653Z" fill="#363732"/>
<path id="Vector_39" d="M37.3046 26.8485C37.0884 26.6636 36.7902 26.9162 36.5053 27.0256C36.3348 27.0812 36.0018 27.244 35.8492 27.2819C35.6762 27.3247 34.5104 28.1527 34.4986 28.1533C34.4964 28.1232 34.4917 28.1189 34.5191 28.094C35.2031 27.4524 36.0884 27.1825 36.8927 26.7814C37.6267 26.4154 37.3378 26.7217 37.8939 26.6325L37.9227 26.6276C37.824 26.6757 37.4046 26.8404 37.3046 26.8485Z" fill="#3D3936"/>
<path id="Vector_40" d="M21.8507 36.766C21.8186 36.7107 21.8262 36.7418 21.8349 36.6709C22.1149 36.5917 22.2428 36.5584 22.4674 36.7477C22.382 36.9589 22.5586 37.0034 22.4499 37.0966L22.3426 37.0888C22.0764 37.0587 21.8711 37.0515 21.5808 37.0111C21.7245 36.9645 21.7589 37.0198 21.9266 36.9794C21.9423 36.8763 21.9182 36.8831 21.8507 36.766Z" fill="#3D3936"/>
<path id="Vector_41" d="M21.8507 36.766C22.0564 36.6278 22.2213 36.9338 22.3426 37.0888C22.0764 37.0587 21.8711 37.0516 21.5808 37.0112C21.7245 36.9646 21.7589 37.0199 21.9266 36.9795C21.9423 36.8763 21.9182 36.8832 21.8507 36.766Z" fill="#A07752"/>
<path id="Vector_42" d="M30.7995 10.8273L30.869 10.8082C30.925 10.8755 30.9215 10.9606 30.9321 11.052L30.9743 11.0768L31.0011 11.0577C30.9399 11.3999 30.8287 11.8203 30.7836 12.117C30.7162 12.0761 30.6823 12.0638 30.6109 12.0328C30.7084 11.8257 30.7637 11.0959 30.7995 10.8273Z" fill="#3D3936"/>
<path id="Vector_43" d="M40.7119 17.0972C40.8747 16.9694 41.0157 16.9694 41.2248 16.9348C41.317 17.0125 41.4149 17.0722 41.4391 17.1856C41.3381 17.4103 41.0592 17.3773 40.8299 17.5989L40.8747 17.5062C40.9247 17.4043 40.9697 17.3526 40.9483 17.2432C40.8834 17.148 40.8209 17.1386 40.7119 17.0972Z" fill="#3D3936"/>
<path id="Vector_44" d="M37.8128 17.3801L37.8259 17.4188C37.6227 17.7083 37.4273 17.7153 37.1996 18.099L37.1657 18.0904C37.1421 17.9377 37.1375 17.6936 37.0797 17.5829C37.0098 17.5406 37.0135 17.5407 36.9343 17.523L37.0014 17.454C37.231 17.5805 37.2425 17.4922 37.4804 17.4092C37.5426 17.5088 37.5196 17.5098 37.6075 17.5397C37.6907 17.4857 37.7383 17.4435 37.8128 17.3801Z" fill="#575145"/>
<path id="Vector_45" d="M31.706 33.0253C31.5898 33.0064 31.3403 32.9918 31.3065 32.8663C31.4562 32.7749 32.2601 32.7622 32.49 32.7553C32.4378 32.8895 32.3685 32.9014 32.2387 32.9536C32.0582 32.9731 31.8839 32.989 31.706 33.0253Z" fill="#3D3936"/>
<path id="Vector_46" d="M31.5503 30.406C31.7121 30.3783 32.0501 30.2975 32.1896 30.3792C32.1327 30.5666 31.5696 30.6234 31.3816 30.6533C31.2835 30.6393 31.2586 30.6477 31.1893 30.579L31.1959 30.5287C31.3279 30.4215 31.3729 30.4355 31.5503 30.406Z" fill="#3D3936"/>
<path id="Vector_47" d="M27.47 36.794C27.4488 36.6406 27.4551 36.6524 27.3537 36.5414L27.3349 36.5213C27.4132 36.4737 27.6054 36.5517 27.7877 36.5213C27.8621 36.447 27.8584 36.4535 27.8838 36.3516C27.8335 36.1618 27.6035 36.2323 27.6088 35.9549L27.6613 35.9204C27.8385 35.9555 27.795 36.0934 28.1255 36.2168L28.1631 36.2304C28.1028 36.3209 28.0829 36.3302 27.995 36.3864C27.9755 36.4753 27.9829 36.5135 27.9891 36.6023L27.9509 36.6051C27.6714 36.6238 27.5163 36.4892 27.47 36.794Z" fill="#575145"/>
<path id="Vector_48" d="M8.30619 18.4068C8.44514 18.1268 8.48326 17.7836 8.82723 17.718C8.58866 17.9509 8.56648 17.9992 8.44629 18.3172L8.46275 18.3475C8.58338 18.253 8.60295 18.2355 8.62255 18.0725C8.62522 18.0492 8.62755 18.0258 8.62947 18.0024C8.70434 17.9106 8.65948 17.9427 8.76715 17.8998C8.84953 17.9655 8.90638 17.9934 8.92908 18.094C8.90492 18.1709 8.91737 18.1612 8.87202 18.2213C8.62811 18.3749 8.57819 18.4485 8.30619 18.4068Z" fill="#575145"/>
<path id="Vector_49" d="M7.30255 24.1994C7.27412 24.15 7.17413 23.9807 7.18109 23.9462C7.27546 23.4771 7.4542 23.3485 7.51797 22.8358L7.55037 22.8188C7.60756 23.3115 7.29441 23.4724 7.31923 23.7381C7.44202 23.7545 7.48169 23.7583 7.55519 23.8555C7.54512 23.9664 7.56479 23.9177 7.48828 24.0053C7.41195 24.0764 7.37111 24.1202 7.30255 24.1994Z" fill="#3D3936"/>
<path id="Vector_50" d="M45.7949 9.7194C45.6256 9.72813 45.5346 9.75711 45.4147 9.65527L45.4396 9.59733C45.5651 9.49629 45.702 9.48449 45.863 9.4495C45.7291 9.56551 45.6113 9.57999 45.4411 9.62992L45.7598 9.63014C45.9049 9.75053 46.0524 9.85548 46.0879 10.047C46.058 10.107 46.0518 10.1349 45.968 10.1444L45.9127 10.1689C45.7163 10.2571 45.7399 10.3018 45.5107 10.3332C45.5784 10.2866 45.5915 10.2794 45.6477 10.2209C45.6381 10.1521 45.625 10.0858 45.607 10.0187L45.652 9.97584C45.8499 9.99047 45.8015 10.0855 45.9614 10.1072L45.9903 10.0562C45.9866 9.88947 45.9254 9.87567 45.7949 9.7194Z" fill="#363732"/>
<path id="Vector_51" d="M7.65328 23.3935C7.73696 23.3932 7.84171 23.4134 7.92453 23.4283C8.06621 23.364 8.00797 23.1306 8.20898 23.0673C8.28894 23.1157 8.28198 23.1201 8.32652 23.2049C8.14443 23.4923 7.92499 23.7542 7.674 23.9841L7.66546 23.9251C7.80723 23.6889 7.88849 23.6731 7.99576 23.5118C7.85038 23.4991 7.887 23.5218 7.78036 23.4469C7.74706 23.565 7.68829 23.7315 7.57068 23.7853C7.52144 23.6274 7.69658 23.6486 7.65328 23.3935Z" fill="#363732"/>
<path id="Vector_52" d="M38.9801 26.5206C39.3392 26.3338 39.5007 26.2456 39.8924 26.1757C39.8408 26.245 39.7529 26.3705 39.6983 26.4301C39.556 26.4252 39.3454 26.5768 39.1661 26.6479C39.0835 26.6392 39.0816 26.6411 39.0052 26.611L38.9801 26.5206Z" fill="#92856C"/>
<path id="Vector_53" d="M37.956 26.6187C38.362 26.3726 38.3999 26.6656 38.7183 26.641C38.6065 26.7026 38.5735 26.6948 38.5257 26.7868C38.612 26.8501 38.5651 26.824 38.6941 26.8371C38.4676 26.893 38.279 27.0195 38.0529 26.9629C38.2178 26.9166 38.2545 26.9875 38.3275 26.9092C38.2157 26.7964 38.0256 26.9048 37.8302 26.8871C38.0262 26.8268 38.152 26.7948 38.3117 26.6681L38.3095 26.6246C38.2008 26.573 38.0796 26.6041 37.956 26.6187Z" fill="#41403C"/>
<path id="Vector_54" d="M30.9175 9.56034C31.0001 9.70084 31.0327 10.8434 31.0011 11.0577L30.9744 11.0768L30.9321 11.052C30.9215 10.9606 30.925 10.8755 30.869 10.8082L30.7995 10.8273C30.8653 10.3344 30.9293 10.0622 30.9175 9.56034Z" fill="#51514E"/>
<path id="Vector_55" d="M9.33552 21.2467C9.55331 21.0889 9.60006 21.0777 9.8687 21.0566L9.93173 21.0867C9.91843 21.3514 9.54616 21.316 9.4193 21.4841L9.41551 21.5325C9.41035 21.5919 9.40529 21.6245 9.39485 21.6823L9.37789 21.6904C9.28259 21.5182 9.42113 21.5151 9.32362 21.2768L9.33552 21.2467Z" fill="#41403C"/>
<path id="Vector_56" d="M40.712 17.0972C40.821 17.1387 40.8835 17.148 40.9484 17.2432C40.9698 17.3527 40.9248 17.4044 40.8748 17.5062L40.83 17.5989L40.7688 17.6324L40.7201 17.6106C40.7014 17.5019 40.7039 17.5001 40.6536 17.3954C40.5604 17.3565 40.5765 17.3773 40.4455 17.4312C40.5085 17.3602 40.5449 17.3467 40.5514 17.2717L40.4461 17.2585C40.5564 17.1578 40.5713 17.1454 40.712 17.0972Z" fill="#41403C"/>
<path id="Vector_57" d="M36.5227 17.448L36.5463 17.4134C36.738 17.3268 36.8414 17.2941 37.0116 17.4347L37.0014 17.454L36.9343 17.5229C36.8529 17.5984 36.5084 17.8296 36.3981 17.9079C36.4643 17.7496 36.5618 17.5907 36.5227 17.448Z" fill="#92856C"/>
<path id="Vector_58" d="M16.8956 36.3575C16.9519 36.222 17.0735 36.1263 17.2248 36.1403C17.3043 36.1916 17.3008 36.186 17.3465 36.2683C17.3018 36.4237 17.3438 36.4274 17.3634 36.5846L17.3377 36.6281C17.2026 36.6104 17.079 36.4743 16.9875 36.3798L16.8956 36.3575Z" fill="#3D3936"/>
<path id="Vector_59" d="M19.2508 36.6722L19.3179 36.6089L19.3219 36.46L19.3875 36.3995C19.7105 36.6095 19.7751 36.6797 20.1482 36.7381C19.7444 36.7067 19.5669 36.9068 19.2508 36.6722Z" fill="#776656"/>
<path id="Vector_60" d="M42.308 17.4316C42.281 17.5033 42.2412 17.5227 42.18 17.572C42.0676 17.532 42.23 17.4616 42.1089 17.3128C42.029 17.2999 41.8346 17.3918 41.7199 17.4249C41.6118 17.4008 41.6504 17.4293 41.5917 17.3494L41.61 17.308C41.7634 17.2348 42.1294 17.1541 42.3409 17.0804C42.2797 17.1822 42.2216 17.2494 42.2235 17.3653C42.2648 17.4202 42.2446 17.4056 42.308 17.4316Z" fill="#363732"/>
<path id="Vector_61" d="M35.8026 30.0686C36.0204 30.1158 36.0691 30.1118 36.2884 30.1034L36.1869 30.3622C36.075 30.301 35.9763 30.3541 35.8775 30.4113C35.7927 30.3871 35.7265 30.3054 35.66 30.2407C35.7153 30.1845 35.7545 30.1308 35.8026 30.0686Z" fill="#4C3835"/>
<path id="Vector_62" d="M45.5107 10.3331C45.7399 10.3018 45.7163 10.2571 45.9126 10.1688L45.9679 10.1443C45.7496 10.3783 45.9117 10.3129 45.9297 10.6001C45.6638 10.5191 45.4246 10.5644 45.3345 10.5182C45.3755 10.4102 45.4026 10.4181 45.5107 10.3331Z" fill="#46453E"/>
<path id="Vector_63" d="M8.79164 21.9388L8.78379 21.9711L8.80926 21.9692C9.01363 21.7064 9.14801 21.4777 9.27531 21.172L9.33551 21.2466L9.32361 21.2767C9.26642 21.345 9.26487 21.3547 9.23266 21.4323C9.08781 21.7819 8.8082 22.0826 8.61731 22.3815L8.59162 22.3271C8.58647 22.1858 8.69516 21.9875 8.75418 21.8397L8.79164 21.9388Z" fill="#41403C"/>
<path id="Vector_64" d="M35.66 30.2408C35.5327 30.1314 35.5892 30.1007 35.4954 30.0025C35.3845 29.9982 35.2394 30.0037 35.163 30.0914C35.2348 30.1405 35.2227 30.1159 35.2556 30.1836L35.2161 30.1992C35.099 30.1457 35.1456 30.1839 35.0705 30.0799L35.0645 30.0792C35.2413 29.9643 35.8387 29.8295 36.0359 29.8754C35.9499 30.0103 35.9089 29.9848 35.8026 30.0687C35.7545 30.1308 35.7153 30.1846 35.66 30.2408Z" fill="#3D3936"/>
<path id="Vector_65" d="M39.1662 26.6479C39.3454 26.5767 39.556 26.4251 39.6983 26.4301L39.4728 26.8446C39.3342 26.8713 39.3196 26.8688 39.2063 26.9458C39.2423 26.8004 39.2494 26.7852 39.174 26.6659L39.1662 26.6479Z" fill="#603B26"/>
<path id="Vector_66" d="M20.7005 36.8319C20.7588 36.8272 20.8832 36.7971 20.9461 36.7834C20.9661 36.7334 20.8875 36.4305 20.8806 36.3003L20.9145 36.2748C21.0604 36.3795 21.1129 36.455 21.1447 36.6315C21.0515 36.7216 20.9818 36.8692 20.9168 36.986L20.7005 36.8319Z" fill="#413421"/>
<path id="Vector_67" d="M7.48832 24.0052C7.49954 24.0615 7.48603 24.0379 7.52852 24.0758L7.66548 23.9251L7.67402 23.9841C7.41302 24.3616 7.344 24.4483 6.9881 24.7304C7.08449 24.5437 7.16787 24.3604 7.30259 24.1994C7.37115 24.1202 7.412 24.0764 7.48832 24.0052Z" fill="#51514E"/>
<path id="Vector_68" d="M15.1543 36.6691L15.2533 36.6293C15.2687 36.5215 15.1327 36.4273 15.0991 36.258C15.3491 36.2437 15.3695 36.6386 15.5352 36.6883L15.5733 36.6222C15.64 36.7178 15.6538 36.7057 15.662 36.8051C15.5906 36.8235 15.3701 36.6958 15.1543 36.6691Z" fill="#776656"/>
<path id="Vector_69" d="M18.9312 36.4649C19.0126 36.3842 19.0726 36.3052 19.1817 36.2788C19.2902 36.2962 19.3072 36.3248 19.3874 36.3994L19.3219 36.46L19.3179 36.6088L19.2508 36.6722C19.1522 36.6218 19.0257 36.5292 18.9312 36.4649Z" fill="#41403C"/>
<path id="Vector_70" d="M9.54693 20.4693C9.57663 20.3987 9.62391 20.2027 9.64534 20.1197L9.68007 20.1788C9.80632 20.1297 9.83123 20.1378 9.94088 20.2356C9.96614 20.4568 9.70992 20.4777 9.54693 20.4693Z" fill="#3D3936"/>
<path id="Vector_71" d="M33.069 17.2713C32.9388 17.1688 32.6065 16.9225 32.8099 16.7483C33.1125 16.8691 33.0656 16.977 33.069 17.2713Z" fill="#3D3936"/>
<path id="Vector_72" d="M34.7285 17.5551C35.1174 17.4398 35.1848 17.6639 35.6511 17.6598C35.2839 17.7891 35.2454 17.7895 34.8909 18.0045C34.9543 17.8793 35.1043 17.7043 35.1124 17.6133C35.0208 17.5431 34.8533 17.5591 34.7285 17.5551Z" fill="#92856C"/>
<path id="Vector_73" d="M17.6846 35.5606C17.9 35.724 18.0598 35.898 18.2462 36.0925L18.1444 36.2165C17.9639 36.094 17.7752 35.7576 17.6846 35.5606Z" fill="#51514E"/>
<path id="Vector_74" d="M44.0438 16.9237C44.0792 16.8847 44.2715 16.771 44.3246 16.742C44.4367 16.7403 44.3929 16.7214 44.4687 16.7775L44.4622 16.9365C44.4038 17.007 44.4026 17.004 44.3243 17.0541C44.1382 17.0458 44.1851 16.9814 44.0438 16.9237Z" fill="#3D3936"/>
<path id="Vector_75" d="M38.7183 26.6411C38.7996 26.5898 38.8904 26.5578 38.9801 26.5205L39.0053 26.6109C39.0817 26.6411 39.0836 26.6392 39.1662 26.6479L39.174 26.6659C39.0006 26.6827 38.8549 26.7644 38.694 26.8371C38.5651 26.8241 38.612 26.8502 38.5257 26.7868C38.5735 26.6948 38.6064 26.7026 38.7183 26.6411Z" fill="#575145"/>
<path id="Vector_76" d="M38.498 17.1657C38.777 17.1018 38.768 17.1227 38.9599 17.3109C38.9006 17.3918 38.9078 17.3912 38.8149 17.4257C38.713 17.4102 38.7208 17.4099 38.6459 17.3375C38.6279 17.295 38.5353 17.2055 38.498 17.1657Z" fill="#363732"/>
<path id="Vector_77" d="M13.2031 36.5703C13.2215 36.4939 13.2177 36.4752 13.2016 36.3982L13.2428 36.2938L13.2996 36.3233L13.2551 36.3298C13.3672 36.3401 13.5345 36.5451 13.6376 36.62C13.4479 36.5694 13.3464 36.6561 13.2031 36.5703Z" fill="#B28556"/>
<path id="Vector_78" d="M7.96434 34.7677C7.97757 34.6279 7.97748 34.5095 8.03364 34.3825L8.06762 34.3806C8.1363 34.54 8.17886 34.7252 8.24385 34.8538C8.14556 34.8013 8.07206 34.7916 7.96434 34.7677Z" fill="#D18B5E"/>
<path id="Vector_79" d="M11.7215 19.0297C11.8074 19.0766 11.9021 19.1194 11.9713 19.1843C11.9028 19.3505 11.8922 19.4092 11.8571 19.582C11.8342 19.5904 11.8499 19.5866 11.8091 19.5792C11.7698 19.3816 11.7458 19.2297 11.7215 19.0297Z" fill="#575145"/>
<path id="Vector_80" d="M31.0887 6.7828C31.1409 6.90058 31.1999 6.99217 31.1847 7.11508L31.1393 7.13185C31.0468 7.07074 31.0297 7.0178 30.9766 6.92056C30.9874 7.13136 31.0154 7.28362 30.9405 7.48016C30.9676 7.13971 30.8508 7.03629 31.0887 6.7828Z" fill="#776656"/>
<path id="Vector_81" d="M14.4593 35.9355C14.5743 36.0846 14.6965 36.2875 14.7987 36.4497L14.6164 36.5084C14.5607 36.3183 14.5083 36.1272 14.4593 35.9355Z" fill="#807F7F"/>
<path id="Vector_82" d="M15.4339 22.1607C15.4818 22.1799 15.5105 22.1921 15.5601 22.2063C15.4415 22.3316 15.4401 22.5972 15.2922 22.6857C15.2558 22.5702 15.3856 22.2908 15.4339 22.1607Z" fill="#575145"/>
<path id="Vector_83" d="M11.0018 20.9321L11.0233 20.9309C11.1022 21.0738 11.1477 21.0654 11.1917 21.1338L11.2562 21.2897C11.1557 21.3003 11.1576 21.3019 11.059 21.2838C10.9866 21.2 11.0059 21.0611 11.0018 20.9321Z" fill="#3D3936"/>
<path id="Vector_84" d="M11.8091 19.5792C11.8499 19.5866 11.8342 19.5904 11.8571 19.582C11.8713 19.733 11.9054 19.8532 11.8021 19.9719L11.7511 19.9464C11.6958 19.8097 11.7294 19.6957 11.8091 19.5792Z" fill="#46453E"/>
<path id="Vector_85" d="M6.08449 25.7642C6.53721 25.283 6.96089 25.2264 7.46689 25.6642L7.49423 25.6875C7.66107 25.8043 7.69813 25.8409 7.79033 26.0218C7.86743 26.4154 7.92946 26.6882 7.69636 27.0383L7.6761 27.0685C7.40088 27.2605 7.34701 27.2965 7.00273 27.3009C6.52053 27.2956 6.20315 27.0442 5.95318 26.6562C5.86965 26.4595 5.86941 26.3542 5.86754 26.1504C5.91749 26.0103 6.00394 25.8907 6.08449 25.7642Z" fill="#292928"/>
<path id="Vector_86" d="M6.08449 25.7642C6.53721 25.283 6.96089 25.2264 7.46689 25.6642L7.49423 25.6875C7.4171 25.7254 7.37979 25.7372 7.32036 25.8009C7.16871 25.5362 6.85428 25.6781 6.65041 25.8058C6.63115 25.818 6.61198 25.8304 6.59294 25.8428C6.45785 25.9966 6.42703 26.0479 6.3284 26.229C6.27957 26.4139 6.26696 26.4887 6.2869 26.6807L6.24465 26.7264C6.13037 26.7255 6.04908 26.7295 5.95318 26.6562C5.86965 26.4595 5.86941 26.3542 5.86754 26.1504C5.91749 26.0103 6.00394 25.8907 6.08449 25.7642Z" fill="#899046"/>
<path id="Vector_87" d="M5.86754 26.1505C5.98956 26.117 6.17448 26.0977 6.29501 26.1356C6.31057 26.1723 6.32266 26.1912 6.3284 26.2291C6.27957 26.414 6.26696 26.4888 6.2869 26.6809L6.24465 26.7265C6.13037 26.7256 6.04908 26.7296 5.95318 26.6563C5.86965 26.4596 5.86941 26.3543 5.86754 26.1505Z" fill="#E9E8C3"/>
<path id="Vector_88" d="M6.08449 25.7643C6.24214 25.7286 6.36211 25.6935 6.51842 25.7304C6.57331 25.792 6.55914 25.768 6.59294 25.8429C6.45785 25.9967 6.42703 26.048 6.3284 26.2291C6.32266 26.1912 6.31057 26.1722 6.29501 26.1356C6.17448 26.0977 5.98956 26.1169 5.86754 26.1505C5.91749 26.0104 6.00394 25.8908 6.08449 25.7643Z" fill="#C8CD60"/>
<path id="Vector_89" d="M7.40828 26.4506C7.49513 26.5429 7.59606 26.92 7.67611 27.0685C7.40089 27.2605 7.34702 27.2966 7.00274 27.3009C6.52054 27.2956 6.20316 27.0443 5.95319 26.6563C6.04909 26.7296 6.13038 26.7255 6.24466 26.7265L6.28691 26.6808C6.51715 27.0859 6.70848 27.0353 7.07639 26.8181C7.16924 26.7311 7.31857 26.5525 7.40828 26.4506Z" fill="#C8CD60"/>
<path id="Vector_90" d="M7.40831 26.4506C7.49517 26.5429 7.59609 26.92 7.67614 27.0685C7.40092 27.2605 7.34705 27.2966 7.00277 27.3009C7.2119 27.2292 7.35519 27.0869 7.29546 26.8517C7.19248 26.7898 7.21997 26.8104 7.07643 26.8181C7.16928 26.7311 7.3186 26.5525 7.40831 26.4506Z" fill="#A7AC50"/>
<path id="Vector_91" d="M7.79033 26.0219C7.86743 26.4155 7.92946 26.6883 7.69636 27.0384L7.67611 27.0686C7.59606 26.9201 7.49513 26.5429 7.40828 26.4506C7.42828 26.3727 7.42104 26.3646 7.41965 26.2807C7.60153 26.3546 7.74311 26.1791 7.79033 26.0219Z" fill="#899046"/>
<path id="Vector_92" d="M7.4942 25.6876C7.66105 25.8044 7.69811 25.8411 7.7903 26.0219C7.74309 26.1791 7.6015 26.3546 7.41962 26.2807C7.21503 26.1067 7.22541 26.0442 7.32034 25.801C7.37976 25.7373 7.41707 25.7255 7.4942 25.6876Z" fill="#ECEBED"/>
<path id="Vector_93" d="M3.79044 27.9187C3.69315 27.979 3.6961 27.974 3.58763 27.974C3.46881 27.8358 3.61913 27.7407 3.47515 27.5533C3.39236 27.5313 3.25773 27.5067 3.21757 27.4375C3.10648 27.2467 2.88935 26.831 2.93271 26.6166L2.9798 26.602C3.2084 26.7344 3.28317 26.9248 3.51022 27.0923L3.54656 27.119C3.65855 27.1631 3.92514 27.3175 3.96903 27.3265C3.98764 27.3356 4.09341 27.3868 4.10304 27.3946C4.41166 27.5291 4.64886 27.6357 4.83819 27.9327L5.11799 28.2176C5.25507 28.2334 5.26743 28.2238 5.37609 28.1511L5.39284 28.1598C5.49814 28.2819 5.5558 28.3282 5.678 28.4304C5.75849 28.4953 5.76619 28.4857 5.80617 28.5746L5.67266 28.5901L5.64924 28.6308C5.67968 28.6917 5.71127 28.7529 5.73973 28.8144C5.82354 28.8837 6.1553 29.3706 6.01467 29.5017C5.74153 29.424 5.6644 28.989 5.48438 28.9247L5.39588 29.0046C5.2035 29.021 5.12342 28.7653 4.97898 28.6625C4.9052 28.61 4.81135 28.5615 4.7313 28.5183C4.54414 28.404 4.47751 28.0713 4.20322 28.2073L4.16905 28.0753C4.09068 27.9535 4.08645 27.9324 3.96589 27.8631C3.83844 27.86 3.89513 27.8426 3.79044 27.9187Z" fill="#46453E"/>
<path id="Vector_94" d="M3.79044 27.9187C3.69315 27.979 3.6961 27.974 3.58763 27.974C3.46881 27.8358 3.61913 27.7407 3.47515 27.5533C3.39236 27.5313 3.25773 27.5067 3.21757 27.4375C3.10648 27.2467 2.88935 26.831 2.93271 26.6166L2.9798 26.602C3.2084 26.7344 3.28317 26.9248 3.51022 27.0923L3.54656 27.119C3.65855 27.1631 3.92514 27.3175 3.96903 27.3265C3.91675 27.3797 3.86077 27.443 3.80191 27.4859C3.92799 27.5192 4.0274 27.5477 4.1505 27.5903C4.24696 27.7273 4.35205 27.855 4.40535 28.0116L4.3897 28.0834C4.30474 28.1151 4.2719 28.1079 4.16905 28.0753C4.09068 27.9535 4.08645 27.9324 3.96589 27.8631C3.83844 27.86 3.89513 27.8426 3.79044 27.9187Z" fill="#51514E"/>
<path id="Vector_95" d="M3.54662 27.1189C3.6586 27.163 3.92519 27.3174 3.96909 27.3264C3.91681 27.3795 3.86083 27.4429 3.80196 27.4858C3.7185 27.3566 3.63652 27.2428 3.54662 27.1189Z" fill="#41403C"/>
<path id="Vector_96" d="M5.37614 28.151L5.39288 28.1597C5.49819 28.2818 5.55584 28.3281 5.67805 28.4303C5.75853 28.4952 5.76624 28.4856 5.80622 28.5744L5.6727 28.59L5.64928 28.6307C5.67972 28.6916 5.71132 28.7528 5.73977 28.8143C5.67823 28.7692 5.60641 28.7139 5.58902 28.6366C5.53991 28.4185 5.2239 28.3237 5.11803 28.2175C5.25511 28.2333 5.26748 28.2237 5.37614 28.151Z" fill="#41403C"/>
<path id="Vector_97" d="M4.10312 27.3944C4.41174 27.5289 4.64894 27.6354 4.83828 27.9325C4.77599 27.9318 4.7431 27.929 4.6815 27.9238C4.55727 27.8424 4.50012 27.7274 4.41702 27.6007C4.27074 27.5391 4.20023 27.5149 4.10312 27.3944Z" fill="#363732"/>
<path id="Vector_98" d="M47.4674 18.7446L47.4506 18.811C47.4841 18.9114 47.5 18.9386 47.4913 19.0458C47.4273 19.0707 46.7961 19.0572 46.7336 19.0042C46.56 18.8569 46.6119 18.3494 46.9203 18.3594C47.0002 18.4572 46.8846 18.5307 46.9545 18.6656C47.2344 18.6566 47.5137 18.1341 47.7578 18.0926C47.9414 18.0614 48.1324 18.3257 48.2645 18.4645C48.3788 18.6057 48.6497 18.7876 48.6925 18.9051C48.5611 19.0012 48.2104 18.9588 48.0275 18.9519C47.787 18.7968 47.7522 18.7482 47.4674 18.7446Z" fill="#41403C"/>
<path id="Vector_99" d="M47.4673 18.7446L47.44 18.6544C47.5357 18.4703 48.0731 18.3998 48.2644 18.4645C48.3788 18.6057 48.6496 18.7875 48.6925 18.905C48.5611 19.0012 48.2104 18.9588 48.0274 18.9519C47.787 18.7967 47.7522 18.7481 47.4673 18.7446Z" fill="#43423C"/>
<path id="Vector_100" d="M1.14903 26.568C1.4747 26.4755 1.57221 26.5901 1.86909 26.5764C1.8935 26.5752 1.9359 26.3484 2.14092 26.4789C2.51484 26.7166 2.38928 26.9083 2.53376 27.246L2.50776 27.273C1.95895 27.2289 1.86896 27.0987 1.51673 27.0443C1.33196 26.9027 1.0089 26.8641 0.935185 26.6992C0.997468 26.6053 1.0212 26.6215 1.14903 26.568Z" fill="#51514E"/>
<path id="Vector_101" d="M1.14909 26.568C1.47476 26.4755 1.57227 26.5901 1.86915 26.5764C1.89356 26.5752 1.93596 26.3484 2.14098 26.4789C2.5149 26.7166 2.38934 26.9083 2.53382 27.246L2.50782 27.273C1.95901 27.2289 1.86902 27.0987 1.51679 27.0443C1.74377 27.0269 2.26757 27.0496 2.39263 26.8943L2.3812 26.8169C2.29168 26.6926 2.17071 26.5665 2.02071 26.5211C1.9646 26.5519 1.9588 26.5578 1.91649 26.6032L1.88045 26.6423C1.77738 26.6544 1.30652 26.5817 1.14909 26.568Z" fill="#41403C"/>
<path id="Vector_102" d="M9.44781 29.2456C9.2637 29.167 9.01323 28.9837 8.91078 28.8153L8.93719 28.7833C9.114 28.7883 9.47335 29.0446 9.71878 29.1477L9.69934 29.2325L9.77342 29.2655C9.81766 29.2468 9.92554 29.1555 9.99118 29.117C10.0626 29.1822 10.1044 29.2285 10.1923 29.2714L10.2725 29.2664C10.3441 29.1449 10.2328 29.0585 10.1517 28.9573L10.1501 28.9026L10.1883 28.8942C10.3517 29.0396 10.3947 29.198 10.5354 29.3475C10.7044 29.4764 10.9845 29.5923 11.1077 29.7076L11.1062 29.7734L11.0556 29.8216C10.8941 29.8138 10.838 29.6781 10.685 29.6013L10.6308 29.6535C10.6433 29.8415 10.9219 29.8778 11.0143 30.1177C10.7703 30.1397 10.7558 29.9667 10.6006 29.9008C10.2999 29.7483 9.88031 29.5821 9.62186 29.3817C9.56306 29.336 9.56191 29.3214 9.47046 29.2605L9.44781 29.2456Z" fill="#46453E"/>
<path id="Vector_103" d="M9.99119 29.1169C10.0626 29.1821 10.1044 29.2284 10.1923 29.2713L10.2725 29.2663C10.3441 29.1448 10.2328 29.0585 10.1517 28.9572L10.1501 28.9025L10.1883 28.8941C10.3517 29.0395 10.3947 29.198 10.5354 29.3474C10.4655 29.3735 10.3614 29.4745 10.2756 29.5257C10.0887 29.4257 9.96736 29.3542 9.77343 29.2654C9.81767 29.2467 9.92555 29.1554 9.99119 29.1169Z" fill="#3D3936"/>
<path id="Vector_104" d="M9.44781 29.2456C9.2637 29.167 9.01323 28.9837 8.91078 28.8153L8.93719 28.7833C9.114 28.7883 9.47335 29.0446 9.71878 29.1477L9.69934 29.2325C9.65355 29.1853 9.26159 28.9862 9.19132 28.9942L9.19408 28.9771C9.22341 29.0694 9.3677 29.1754 9.44781 29.2456Z" fill="#363732"/>
<path id="Vector_105" d="M10.6006 29.9008C10.592 29.7895 10.5875 29.719 10.5903 29.6078L10.6252 29.5786L10.6849 29.6013L10.6307 29.6535C10.6432 29.8414 10.9219 29.8778 11.0142 30.1176C10.7702 30.1397 10.7557 29.9666 10.6006 29.9008Z" fill="#41403C"/>
<path id="Vector_106" d="M5.93934 27.7878C6.20018 27.94 6.77179 28.2538 6.9924 28.4175L7.00414 28.4893L6.96951 28.5222C6.83739 28.5055 6.65213 28.3728 6.53253 28.2961L6.50402 28.3613C6.59485 28.4784 6.6567 28.5518 6.72799 28.6835L6.71435 28.7332C6.54241 28.736 6.21916 28.2895 5.98466 28.4415C5.99221 28.5567 6.04154 28.6571 6.1037 28.7537L6.09276 28.9367C6.00771 28.7522 5.9153 28.7298 5.80617 28.5744C5.76619 28.4856 5.75849 28.4952 5.678 28.4303C5.5558 28.3281 5.49814 28.2818 5.39284 28.1597C5.43859 28.087 5.44627 28.0907 5.51364 28.0314C5.76392 27.9139 5.75979 28.0944 5.93934 27.7878Z" fill="#51514E"/>
<path id="Vector_107" d="M6.19754 28.0665C6.32888 28.1858 6.3902 28.2057 6.53262 28.2961L6.50411 28.3614C6.59494 28.4785 6.65678 28.5518 6.72808 28.6835L6.71444 28.7332C6.5425 28.736 6.21925 28.2896 5.98475 28.4415C5.9923 28.5568 6.04163 28.6571 6.10379 28.7538L6.09285 28.9368C6.0078 28.7522 5.91539 28.7298 5.80626 28.5745C5.76628 28.4856 5.75858 28.4953 5.67809 28.4303L5.81185 28.4123C5.89147 28.3247 6.09891 28.1526 6.19754 28.0665Z" fill="#46453E"/>
<path id="Vector_108" d="M5.51364 28.0314C5.69142 28.1905 5.6794 28.2936 5.81176 28.4123L5.678 28.4303C5.5558 28.3281 5.49814 28.2818 5.39284 28.1597C5.43859 28.087 5.44627 28.0907 5.51364 28.0314Z" fill="#807F7F"/>
<path id="Vector_109" d="M4.26541 26.2176L4.2373 26.144C4.33711 25.9582 4.83898 25.6506 5.04123 25.6745L5.0622 25.7677C5.26964 26.4292 5.00936 26.3263 5.03179 26.7144C4.94366 26.8486 4.94711 26.8912 4.76613 26.8868C4.7511 26.7094 4.44111 26.2614 4.26541 26.2176Z" fill="#3D3936"/>
<path id="Vector_110" d="M4.26541 26.2176L4.2373 26.144C4.33711 25.9582 4.83898 25.6506 5.04123 25.6745L5.0622 25.7677C4.80425 26.0921 4.6438 26.0865 4.26541 26.2176Z" fill="#41403C"/>
<path id="Vector_111" d="M4.76617 26.8868C4.77586 26.7423 4.79055 26.6715 4.91978 26.5922C5.01452 26.628 4.97103 26.5985 5.03183 26.7143C4.9437 26.8486 4.94715 26.8911 4.76617 26.8868Z" fill="#41403C"/>
<path id="Vector_112" d="M9.83435 23.7939C9.78033 23.7579 9.77038 23.7461 9.72202 23.702C9.62212 23.4382 9.87057 23.276 10.0714 23.1735C10.1732 23.1623 10.1818 23.1797 10.2712 23.231C10.3169 23.4643 10.5381 23.5752 10.4805 23.793C10.3499 23.9107 10.3731 23.8567 10.3394 24.0071C10.1954 24.1612 10.1604 24.1972 9.9582 24.246L9.88147 24.2239C9.86963 24.1254 9.86327 24.1736 9.91446 24.0773C9.93788 23.9306 9.93804 23.894 9.83435 23.7939Z" fill="#3D3936"/>
<path id="Vector_113" d="M9.83435 23.7939C9.78033 23.7579 9.77038 23.7461 9.72202 23.702C9.62212 23.4382 9.87057 23.276 10.0714 23.1735C10.1732 23.1623 10.1818 23.1797 10.2712 23.231C10.2459 23.3608 10.2115 23.4926 10.2174 23.6234C10.1515 23.6728 10.0794 23.7312 10.0087 23.7722L9.83435 23.7939Z" fill="#41403C"/>
<path id="Vector_114" d="M10.0087 23.7722C9.87029 23.7235 9.86349 23.7263 9.79403 23.6222C9.79754 23.5147 9.7803 23.5635 9.86091 23.4762C10.0458 23.4019 10.1478 23.4411 10.2173 23.6234C10.1514 23.6728 10.0793 23.7312 10.0087 23.7722Z" fill="#51514E"/>
<path id="Vector_115" d="M9.91442 24.0772C10.029 24.0042 10.0691 23.9265 10.2071 23.8886C10.3124 23.925 10.2638 23.8952 10.3394 24.007C10.1954 24.1611 10.1603 24.1971 9.95815 24.2459L9.88143 24.2239C9.86959 24.1254 9.86322 24.1735 9.91442 24.0772Z" fill="#46453E"/>
<path id="Vector_116" d="M49.4815 16.724C49.7139 16.7487 50.8048 16.9896 50.9502 17.1533L50.9453 17.2123C50.8629 17.2776 50.8368 17.2937 50.7455 17.347C50.8676 17.441 51.4211 17.3948 51.6212 17.407C51.0499 17.481 50.7011 17.4514 50.1357 17.2963C50.0553 17.2742 49.7496 17.1675 49.7024 17.1605L49.7425 17.1232C49.8058 16.9218 49.6322 16.8141 49.4815 16.724Z" fill="#46453E"/>
<path id="Vector_117" d="M55.5791 16.9259C55.6086 16.9646 55.6421 17.0038 55.6654 17.0458C55.2107 17.4575 54.9187 17.6472 54.262 17.5809C54.1399 17.632 53.8377 17.6141 53.6994 17.6105C53.9256 17.4882 54.4639 17.1289 54.6844 17.1506L54.7223 17.2055C54.763 17.2515 54.7755 17.2571 54.8242 17.2955C55.0199 17.3114 55.3545 17.0241 55.5791 16.9259Z" fill="#575145"/>
<path id="Vector_118" d="M53.6994 17.6105C53.9256 17.4881 54.4639 17.1288 54.6844 17.1505L54.7223 17.2054C54.5391 17.3751 54.4661 17.4399 54.262 17.5809C54.1399 17.632 53.8377 17.614 53.6994 17.6105Z" fill="#776656"/>
<path id="Vector_119" d="M6.53074 29.6114L6.68633 29.4971C7.00741 29.8503 7.39903 30.7756 7.70187 31.2108C7.86688 31.4482 8.30221 31.767 8.08147 32.0748L8.02136 32.0689C7.98263 31.9826 7.75191 31.464 7.72604 31.4379C7.5504 31.2602 6.60737 29.6524 6.53074 29.6114Z" fill="#363734"/>
<path id="Vector_120" d="M8.07584 28.6244C8.48272 28.6362 9.00036 29.2315 9.39298 29.4254C9.6308 29.5428 10.2877 29.9138 10.379 30.1564C10.0555 30.2307 8.5163 28.9668 8.17155 28.7661C8.13049 28.7422 8.09529 28.6692 8.07584 28.6244Z" fill="#41403C"/>
<path id="Vector_121" d="M5.20408 27.4837C5.25189 27.3597 5.27525 27.2963 5.30473 27.1674L5.34374 27.1531C5.40792 27.2395 5.55237 27.5116 5.60359 27.5412C5.73819 27.6114 5.85617 27.7562 5.93939 27.7878C5.75984 28.0945 5.76398 27.914 5.51369 28.0314C5.44632 28.0908 5.43864 28.087 5.39289 28.1597L5.37614 28.151C5.26391 28.0265 5.19647 27.9646 5.1204 27.8133C5.09402 27.7807 5.06948 27.7462 5.04438 27.7124L5.06479 27.6362C5.11067 27.5666 5.14438 27.5418 5.20408 27.4837Z" fill="#3D3E3D"/>
<path id="Vector_122" d="M5.20405 27.4837C5.25186 27.3597 5.27522 27.2963 5.3047 27.1674L5.34371 27.1531C5.40789 27.2395 5.55234 27.5116 5.60356 27.5412C5.46284 27.5564 5.47225 27.5657 5.42811 27.6878C5.37263 27.5123 5.37049 27.5455 5.20405 27.4837Z" fill="#3D3936"/>
<path id="Vector_123" d="M5.06479 27.6362C5.1933 27.667 5.25897 27.7201 5.30436 27.845L5.28758 27.8969C5.18479 27.89 5.21676 27.8919 5.1204 27.8133C5.09402 27.7807 5.06948 27.7462 5.04438 27.7123L5.06479 27.6362Z" fill="#46453E"/>
<path id="Vector_124" d="M3.79046 27.9186C3.89514 27.8424 3.83845 27.8598 3.96591 27.863C4.08646 27.9322 4.09069 27.9534 4.16906 28.0752L4.20323 28.2072C4.47753 28.0711 4.54416 28.4039 4.73132 28.5182C4.8351 28.8115 4.85796 28.6512 4.75592 29.0423C4.7667 28.836 4.81677 28.5558 4.52611 28.5505L4.47781 28.5999C4.45814 28.6993 4.50648 28.7708 4.5495 28.8674C4.44683 28.9833 4.41549 29.0523 4.27738 29.074C4.06978 28.8873 4.24644 28.2668 4.06096 27.995C4.01468 27.9717 3.97793 27.9524 3.93273 27.926L3.89539 27.9043C3.91269 28.0202 3.93919 28.1283 3.91238 28.2414L3.85516 28.2672C3.7233 28.2069 3.5193 28.1789 3.44304 28.1143C3.55878 28.0817 3.70059 28.1457 3.83047 28.1833L3.85231 28.1566C3.83836 28.0444 3.85342 27.9782 3.79046 27.9186Z" fill="#363732"/>
<path id="Vector_125" d="M28.0767 31.2883C28.137 31.3247 28.1842 31.3797 28.2112 31.4446C28.2448 31.5257 28.2016 31.6096 28.1715 31.6944L28.1565 31.7351C28.2702 31.8544 28.4529 31.8053 28.5837 31.9852C28.5626 32.0837 28.5855 32.0414 28.5045 32.1123C28.3153 32.1607 28.1177 32.0588 27.9403 31.9855C27.9183 31.9579 27.8409 31.7481 27.8225 31.7006C27.6112 31.6879 27.4626 31.6903 27.2459 31.6627L27.2225 31.6208C27.3539 31.4629 27.6159 31.5754 27.7528 31.5285C27.8012 31.5117 27.8931 31.3759 28.0767 31.2883Z" fill="#41403C"/>
<path id="Vector_126" d="M27.0059 33.9401C27.0507 33.9388 27.5943 34.0603 27.6949 34.0768C27.6974 34.0802 27.8276 34.2694 27.8136 34.2629C28.128 34.4095 28.5825 34.5605 28.4259 35.0135L28.3653 35.0265C28.0569 34.9215 28.151 34.8119 28.0218 34.5782C27.9584 34.4636 27.7417 34.5515 27.5937 34.4052C27.5738 34.3197 27.5666 34.2921 27.5347 34.2113C27.4069 34.1259 27.2604 34.1871 27.0499 34.106C26.9797 34.0087 26.9949 34.0619 27.0059 33.9401Z" fill="#363732"/>
<path id="Vector_127" d="M6.23834 24.9967C6.32631 24.9237 6.27807 24.9398 6.38396 24.9355C6.55649 25.0495 6.52999 25.0585 6.71402 24.9336L6.76266 24.951C6.81364 25.2092 6.4255 25.2397 6.28717 25.3325C6.15863 25.4186 6.07289 25.6212 5.92565 25.6992C5.86532 25.7886 5.74616 25.9517 5.63455 25.9309C5.55757 25.6923 5.8397 25.3577 6.03145 25.2362C6.10423 25.1033 6.11386 25.0806 6.23834 24.9967Z" fill="#46453E"/>
<path id="Vector_128" d="M6.03145 25.2361C6.07709 25.2827 6.12141 25.3299 6.16953 25.3737C6.09054 25.4598 5.98684 25.598 5.92565 25.699C5.86532 25.7885 5.74616 25.9516 5.63455 25.9308C5.55757 25.6922 5.8397 25.3575 6.03145 25.2361Z" fill="#41403C"/>
<path id="Vector_129" d="M6.23832 24.9966L6.31576 25.0196C6.34303 25.1815 6.30218 25.2697 6.16951 25.3738C6.12139 25.33 6.07706 25.2827 6.03143 25.2361C6.10421 25.1032 6.11384 25.0805 6.23832 24.9966Z" fill="#575145"/>
<path id="Vector_130" d="M35.1111 27.3198L35.204 27.3481L35.2291 27.4022C35.1698 27.5215 34.7107 27.752 34.6138 27.7448C34.6877 27.674 35.0036 27.5336 35.1428 27.4373L35.1229 27.4136C34.88 27.4124 34.7977 27.5622 34.6302 27.5842C34.4261 27.6112 33.6641 27.6538 33.5943 27.8825C33.6353 27.9701 33.6561 27.9887 33.6412 28.0829C33.5778 28.1702 33.3836 28.2472 33.2771 28.2991L33.2696 28.2994C33.3134 28.1994 33.5141 28.1792 33.6045 28.0058L33.5703 27.9418C33.3175 27.8713 33.1143 28.3028 32.9183 28.1876L32.9028 28.1087C32.9941 27.8629 33.2519 27.6159 33.5228 27.5935C33.9015 27.7629 34.7486 27.4978 35.1111 27.3198Z" fill="#41403C"/>
<path id="Vector_131" d="M2.18475 25.7143C2.40378 25.736 2.63328 25.8569 2.72989 26.061C2.72675 26.2987 2.5828 26.2921 2.38017 26.3235C2.19187 26.2611 2.04239 26.2322 1.8999 26.098C1.85815 25.9731 1.88132 25.9998 1.94379 25.836L1.90207 25.7472C2.03173 25.7599 2.05929 25.7525 2.18475 25.7143Z" fill="#575145"/>
<path id="Vector_132" d="M48.7838 16.6908C48.978 16.6869 49.3153 16.6609 49.4815 16.7239C49.6322 16.8141 49.8058 16.9217 49.7425 17.1232L49.7024 17.1604C49.4719 17.1688 49.4368 17.1183 49.2489 16.9864C49.0814 17.0165 48.6922 17.1298 48.5878 16.9946C48.5968 16.8835 48.7071 16.7817 48.7838 16.6908Z" fill="#3D3936"/>
<path id="Vector_133" d="M25.4183 33.7377L25.4557 33.7383C25.5747 33.7411 25.5829 33.7221 25.6849 33.7933L25.5609 33.8076L25.5383 33.8486C25.6153 33.9185 25.5697 33.8899 25.7027 33.9011C25.8846 34.0614 26.0496 34.1357 26.2316 34.2686C26.0612 34.323 25.5421 34.2944 25.4112 34.1708C25.3884 34.0589 25.3788 34.1083 25.4307 34.0161C25.3151 33.9744 25.0885 33.8707 25.0209 33.7697C25.0253 33.6662 25.0176 33.6619 25.0814 33.5771C25.1888 33.5255 25.1328 33.5351 25.2564 33.5553C25.3362 33.6233 25.3128 33.5823 25.3355 33.6787L25.4183 33.7377Z" fill="#46453E"/>
<path id="Vector_134" d="M25.4183 33.7378C25.5104 33.853 25.4949 33.7924 25.4941 33.9176L25.4446 33.9437C25.2938 33.9164 25.1029 33.8176 25.0688 33.6582L25.1148 33.6191C25.2499 33.6073 25.2002 33.6045 25.3355 33.6787L25.4183 33.7378Z" fill="#575145"/>
<path id="Vector_135" d="M7.89965 29.1621C8.20405 28.975 8.79665 30.1476 9.0994 30.2535L8.99748 30.2696C8.9524 30.3436 8.95918 30.3489 8.94936 30.4371L8.92526 30.31C8.82762 30.2327 8.8799 30.2501 8.77071 30.2373C8.6359 30.3756 8.84806 30.5735 8.8229 30.8043L8.79771 30.8071C8.67799 30.6804 8.67075 30.1367 8.65074 30.0379C8.63723 29.9711 8.20476 29.6138 8.09175 29.469C7.97703 29.3624 7.93926 29.3075 7.89965 29.1621Z" fill="#3D3936"/>
<path id="Vector_136" d="M7.89965 29.162C8.01561 29.1797 8.04308 29.1751 8.12993 29.2552C8.15897 29.3615 8.16221 29.3702 8.09175 29.469C7.97703 29.3624 7.93926 29.3074 7.89965 29.162Z" fill="#41403C"/>
<path id="Vector_137" d="M44.2578 10.7379C44.5091 10.7218 44.8825 10.8195 44.9742 11.0838C44.9344 11.1958 44.9679 11.149 44.8567 11.2187C44.4855 11.2783 43.9223 11.3078 44.2578 10.7379Z" fill="#3D3936"/>
<path id="Vector_138" d="M51.7454 18.8793C52.0502 18.9742 52.7426 18.9112 52.8442 19.144C52.8041 19.2238 52.8339 19.1943 52.7472 19.231C52.4972 19.2213 51.6538 19.3456 51.6106 19.0506C51.66 18.9517 51.655 18.9545 51.7454 18.8793Z" fill="#41403C"/>
<path id="Vector_139" d="M48.9559 17.9955C49.1777 18.0139 49.6409 18.2467 49.5216 18.5243C49.4228 18.6008 49.3467 18.5893 49.2141 18.5989C49.0852 18.5073 49.0053 18.3688 48.882 18.3459L48.7736 18.4424C48.6944 18.4353 48.7254 18.4537 48.6736 18.3947C48.681 18.2475 48.8519 18.0988 48.9559 17.9955Z" fill="#363732"/>
<path id="Vector_140" d="M7.75456 30.3964C7.71803 30.3377 7.39652 30.0065 7.33976 29.9741L7.30016 30.0015C7.29363 30.1304 7.27565 30.0994 7.33547 30.186C7.26322 30.0217 6.88983 29.437 6.99067 29.2944L7.0395 29.2993C7.22566 29.5625 7.50735 29.6995 7.72694 29.9872C7.78978 30.1239 7.85023 30.2351 7.8114 30.3839L7.75456 30.3964Z" fill="#46453E"/>
<path id="Vector_141" d="M10.7147 30.8887C11.2902 30.9309 11.2931 30.9567 11.5088 31.4855C11.3265 31.3242 11.2058 31.223 11.0085 31.0822C11.0878 31.3146 11.4987 31.9087 11.3506 32.0525C11.0874 32.0398 11.1622 31.8322 11.0586 31.7219C10.8847 31.5371 10.4654 31.3444 10.2563 31.1816C10.1864 31.0891 10.1566 31.0602 10.1623 30.9499L10.2202 30.9297C10.3418 30.9999 10.289 31.1267 10.3813 31.1962C10.5557 31.328 10.9658 31.4948 11.0765 31.6654C11.1441 31.7695 11.185 31.9288 11.3055 32.0214L11.3624 32.0068C11.3866 31.9313 11.3441 31.7949 11.2923 31.7415C11.074 31.5178 11.0072 31.2553 10.9183 30.9654L10.8354 30.9477L10.8168 31.1726C10.7193 30.9719 10.7237 31.1192 10.7147 30.8887Z" fill="#363732"/>
<path id="Vector_142" d="M46.9647 16.9993C47.2701 17.2559 46.7902 17.6978 46.468 17.7269C46.3991 17.6624 46.3177 17.5974 46.2447 17.5363C46.4836 17.3278 46.7057 17.1769 46.9647 16.9993Z" fill="#3D3936"/>
<path id="Vector_143" d="M6.11825 24.5884C6.04522 24.703 6.0154 24.7748 5.89226 24.8102L5.84138 24.7636C5.81131 24.6027 5.84927 24.3979 5.99819 24.3072L6.10489 24.3405C6.25297 24.3069 6.48331 24.1631 6.62946 24.0863L6.68594 24.1919L6.60356 24.4212C6.43771 24.4837 6.2868 24.5343 6.11825 24.5884Z" fill="#363732"/>
<path id="Vector_144" d="M8.94931 30.437C8.95913 30.3488 8.95235 30.3435 8.99743 30.2696L9.09935 30.2534C9.23854 30.328 9.34478 30.3774 9.48777 30.4404C9.63893 30.6573 9.77772 30.7828 9.58174 31.0248L9.53337 31.0478C9.47671 30.9851 9.51026 31.0332 9.48348 30.9683C9.38613 30.7319 9.05201 30.5427 8.94931 30.437Z" fill="#41403C"/>
<path id="Vector_145" d="M27.7757 35.3352C27.6129 35.274 27.3691 35.2085 27.3829 35.0012L27.4566 34.9609C27.6019 34.95 27.6935 34.9919 27.8331 35.0364C27.9817 35.0432 28.247 35.3147 28.2852 35.4639L28.265 35.5303C28.1386 35.5667 27.9618 35.3536 27.7757 35.3352Z" fill="#41403C"/>
<path id="Vector_146" d="M27.8331 35.0365C27.9817 35.0433 28.247 35.3148 28.2852 35.464L28.265 35.5305C28.1386 35.5668 27.9618 35.3537 27.7756 35.3353C27.8633 35.3245 27.8571 35.322 27.9267 35.2648L27.9307 35.1865C27.8916 35.1036 27.8941 35.1042 27.8331 35.0365Z" fill="#363732"/>
<path id="Vector_147" d="M3.67082 26.3705C3.73186 26.326 3.78659 26.2642 3.86578 26.2947C4.05654 26.3677 4.22639 26.5789 4.28709 26.7644C4.24652 26.8138 4.22347 26.8474 4.17483 26.8896C4.10751 26.8095 4.04166 26.7284 3.97729 26.6457C3.81433 26.7762 3.61127 26.8707 3.53165 26.5979C3.55197 26.4873 3.59608 26.4547 3.67082 26.3705Z" fill="#51514E"/>
<path id="Vector_148" d="M3.97729 26.6457C3.81433 26.7762 3.61127 26.8706 3.53165 26.5978C3.55197 26.4872 3.59608 26.4546 3.67082 26.3704C3.781 26.5711 3.82738 26.4565 3.97729 26.6457Z" fill="#3D3936"/>
<path id="Vector_149" d="M19.8249 35.8635C19.9581 35.8685 20.2597 35.9846 20.4018 36.0334C20.6024 36.2431 20.6726 36.4031 20.6467 36.698C20.3268 36.6759 20.3676 36.5461 20.2419 36.2627C20.0915 35.9231 19.8559 36.1487 19.8249 35.8635Z" fill="#3D3936"/>
<path id="Vector_150" d="M28.8527 31.1815C28.9241 31.1995 29.4991 31.6379 29.5181 31.7413C29.4249 31.8007 29.4432 31.7802 29.3087 31.7746C29.0552 31.6863 28.9133 31.695 28.6498 31.695C28.8623 31.664 28.7868 31.3983 28.8527 31.1815Z" fill="#363732"/>
<path id="Vector_151" d="M13.1085 32.3847C13.2471 32.431 13.3608 32.5603 13.4722 32.6643C13.5032 32.8843 13.5912 33.1375 13.5446 33.3388C13.338 33.2845 13.0244 32.6783 13.1085 32.3847Z" fill="#3D3936"/>
<path id="Vector_152" d="M8.55212 26.4378C8.70474 26.5581 8.57085 26.6084 8.72431 26.7432C8.90839 26.7936 9.00705 26.7703 9.15333 26.8691L9.17098 26.9197C9.01516 27.0384 8.63395 26.9371 8.43206 26.9175L8.36388 26.8001C8.29432 26.6479 8.29094 26.6774 8.32098 26.5366C8.43473 26.4521 8.41103 26.4437 8.54243 26.4711L8.55212 26.4378Z" fill="#41403C"/>
<path id="Vector_153" d="M8.32098 26.5368C8.43473 26.4522 8.41103 26.4439 8.54243 26.4712C8.55523 26.5834 8.54864 26.675 8.62282 26.753C8.49279 26.7393 8.48074 26.7337 8.36388 26.8002C8.29432 26.648 8.29094 26.6775 8.32098 26.5368Z" fill="#51514E"/>
<path id="Vector_154" d="M8.36384 26.8001C8.4807 26.7337 8.49275 26.7392 8.62279 26.7529L8.67914 26.8293L8.66217 26.8763C8.55364 26.9095 8.54093 26.9083 8.43202 26.9176L8.36384 26.8001Z" fill="#807F7F"/>
<path id="Vector_155" d="M44.6965 9.9231L44.794 9.93478C44.8599 10.02 44.8717 10.2647 44.8866 10.386C44.744 10.3771 44.6204 10.3823 44.4781 10.3862C44.4011 10.3816 44.3706 10.3513 44.3038 10.3092C44.2753 10.2153 44.2796 10.2647 44.3119 10.1559C44.4265 10.0155 44.5278 9.99294 44.6965 9.9231Z" fill="#575145"/>
<path id="Vector_156" d="M11.4584 27.2808C11.7135 27.3203 12.0312 27.3057 12.2937 27.3035C12.4161 27.3989 12.4585 27.4253 12.5541 27.5437C12.4001 27.6071 11.6613 27.5241 11.4938 27.4272C11.4632 27.4095 11.4628 27.3172 11.4584 27.2808Z" fill="#41403C"/>
<path id="Vector_157" d="M36.5466 24.7126C36.6594 24.6989 36.8272 24.7294 36.9076 24.8108L36.9045 24.9027C36.852 25.018 36.7666 25.054 36.6569 25.1249C36.4432 25.1469 36.2633 25.0922 36.2956 24.8372C36.3941 24.7275 36.378 24.7598 36.5466 24.7126Z" fill="#41403C"/>
<path id="Vector_158" d="M7.63696 27.4073C7.7455 27.2675 7.93878 27.16 8.11771 27.1634L8.15327 27.205C8.13442 27.2986 8.10357 27.3247 8.01982 27.3756C7.85298 27.5204 7.21443 27.8957 7.04197 27.6621C7.12227 27.6733 7.18039 27.6907 7.255 27.6624L7.24115 27.6198L7.13805 27.5847C7.31399 27.5648 7.47102 27.4757 7.63696 27.4073Z" fill="#575145"/>
<path id="Vector_159" d="M7.63692 27.4073C7.74546 27.2675 7.93874 27.16 8.11767 27.1634L8.15324 27.205C8.13438 27.2986 8.10353 27.3247 8.01979 27.3756C7.83104 27.2976 7.82352 27.3157 7.63692 27.4073Z" fill="#46453E"/>
<path id="Vector_160" d="M14.4265 34.3671C14.6367 34.6899 14.4067 34.9155 14.4702 35.2026C14.5132 35.3974 14.7318 35.4374 14.6662 35.736C14.3646 35.5033 14.33 34.9854 14.2829 34.6222C14.2698 34.5212 14.357 34.4311 14.4265 34.3671Z" fill="#363732"/>
<path id="Vector_161" d="M36.6985 25.2026C36.7759 25.2097 36.8343 25.2355 36.8573 25.3154C36.9303 25.5686 36.5199 25.65 36.3565 25.6975C36.2804 25.6994 36.304 25.6978 36.2267 25.6692L36.2108 25.6083C36.286 25.4123 36.519 25.3039 36.6985 25.2026Z" fill="#46453E"/>
<path id="Vector_162" d="M32.1194 31.3784C32.2219 31.3874 32.7711 31.4899 32.8463 31.5561L32.8481 31.6242L32.7751 31.6779C32.5583 31.6928 32.166 31.7637 32.0246 31.5791C32.0377 31.4527 32.0318 31.4937 32.1194 31.3784Z" fill="#575145"/>
<path id="Vector_163" d="M12.5791 33.1431L12.6773 33.1698C12.8372 33.2879 12.9713 33.9646 12.8257 34.1827C12.686 33.9084 12.6916 33.5026 12.4756 33.3392C12.5051 33.2637 12.5386 33.213 12.5791 33.1431Z" fill="#363732"/>
<path id="Vector_164" d="M6.10372 28.7536C6.50509 29.1526 6.42836 29.0286 6.68635 29.4971L6.53075 29.6114C6.27338 29.3098 6.24136 29.1165 6.09278 28.9366L6.10372 28.7536Z" fill="#51514E"/>
<path id="Vector_165" d="M16.76 29.1038C16.9237 29.0572 17.3188 29.2032 17.2618 29.3853L17.1422 29.43C16.9881 29.4046 16.5907 29.3409 16.5264 29.1967C16.61 29.1138 16.6223 29.1352 16.76 29.1038Z" fill="#3D3936"/>
<path id="Vector_166" d="M31.4114 30.9051C31.5531 30.9225 31.6093 31.0294 31.8401 31.0471L31.8482 31.0807C31.6121 31.1406 31.5674 30.9834 31.3409 31.0002L31.3443 31.044C31.4882 31.2186 31.5646 31.2074 31.6832 31.3513C31.7935 31.3882 31.9016 31.4342 31.9193 31.561C31.8184 31.6576 31.759 31.703 31.6168 31.698C31.5332 31.6113 31.5904 31.4476 31.5779 31.3612C31.5661 31.277 31.3788 31.2062 31.3008 31.0831C31.3102 30.9722 31.3089 31.0064 31.4114 30.9051Z" fill="#46453E"/>
<path id="Vector_167" d="M46.4134 18.1945C46.5075 18.1876 46.5013 18.1852 46.588 18.2219C46.638 18.4057 46.2739 18.5069 46.1382 18.5503C46.0655 18.5766 46.0925 18.5742 46.0176 18.5601L45.9878 18.5087C46.0117 18.2593 46.2115 18.2315 46.4134 18.1945Z" fill="#3D3936"/>
<path id="Vector_168" d="M7.5443 25.0065C7.67433 25.1069 7.72565 25.1432 7.83201 25.2719C7.77634 25.3542 7.78308 25.3561 7.69691 25.4011C7.5246 25.2632 7.28231 25.3113 7.15814 25.1575L7.18666 25.105C7.33393 25.0332 7.3832 25.0326 7.5443 25.0065Z" fill="#41403C"/>
<path id="Vector_169" d="M20.6771 29.837C20.9524 29.8317 21.2442 29.9852 21.1751 30.2962C20.9808 30.2782 20.7684 30.0551 20.66 29.9019L20.6771 29.837Z" fill="#363732"/>
<path id="Vector_170" d="M28.9105 32.6774L29.0018 32.6672C29.1196 32.7688 29.0689 32.8775 28.9813 32.9732C28.849 33.0036 28.8919 32.9949 28.7425 32.9371C28.6486 32.9042 28.5486 32.8878 28.5231 32.7865C28.6142 32.7169 28.7903 32.6998 28.9105 32.6774Z" fill="#575145"/>
<path id="Vector_171" d="M15.9556 27.7129C15.6598 27.8651 15.6007 27.3677 15.7457 27.2195C15.8203 27.2515 15.9263 27.4242 16.023 27.5066L15.9556 27.7129Z" fill="#41403C"/>
<path id="Vector_172" d="M45.0128 19.3291C45.1768 19.321 45.5831 19.3744 45.6959 19.4947L45.658 19.5714C45.4735 19.5807 45.0892 19.6006 44.9833 19.4329L45.0128 19.3291Z" fill="#363732"/>
<path id="Vector_173" d="M7.72695 29.9871C7.73701 29.9955 7.83517 30.0766 7.83517 30.0766C7.87136 30.3786 8.08207 30.7011 8.0706 30.999L8.03081 31.0118C7.85698 30.8104 7.83722 30.6483 7.75456 30.3963L7.81141 30.3839C7.85024 30.235 7.78979 30.1238 7.72695 29.9871Z" fill="#363732"/>
<path id="Vector_174" d="M35.3876 30.1944C35.5296 30.2339 35.5616 30.1966 35.6511 30.2777L35.62 30.3867C35.6756 30.5132 35.7887 30.4259 35.9008 30.5511C35.8238 30.5617 35.8256 30.5573 35.7495 30.5365C35.4998 30.3666 35.3507 30.5716 35.1752 30.4287L35.1904 30.3401C35.2743 30.2389 35.2671 30.2373 35.3876 30.1944Z" fill="#46453E"/>
<path id="Vector_175" d="M28.9441 31.8391C29.0742 31.8919 29.1814 32.047 29.2603 32.1591C29.269 32.2682 29.2761 32.2129 29.2103 32.325C28.9413 32.2682 28.7334 32.1131 28.9441 31.8391Z" fill="#363732"/>
<path id="Vector_176" d="M15.4568 31.4527C15.7104 31.5645 15.8448 31.7546 15.7323 32.024C15.5606 31.9324 15.329 31.659 15.4568 31.4527Z" fill="#41403C"/>
<path id="Vector_177" d="M15.2214 31.787C15.4131 31.8606 15.6793 32.3157 15.7279 32.5152C15.6518 32.518 15.6757 32.523 15.6093 32.4966C15.4298 32.3049 15.2591 32.0526 15.2214 31.787Z" fill="#46453E"/>
<path id="Vector_178" d="M8.32093 26.5367C8.34193 26.3289 8.1525 26.3854 8.2729 26.1583C8.40943 26.071 8.5316 26.1008 8.61961 26.2282C8.5763 26.3149 8.56257 26.3385 8.55207 26.4379L8.54238 26.4711C8.41098 26.4438 8.43468 26.4522 8.32093 26.5367Z" fill="#41403C"/>
<path id="Vector_179" d="M13.1905 33.5783C13.396 33.6656 13.396 34.2156 13.3579 34.4001C13.2397 34.1711 13.0632 33.8173 13.1905 33.5783Z" fill="#363732"/>
<path id="Vector_180" d="M11.7322 24.6685C11.8474 24.7002 11.9114 24.7077 11.9189 24.8382C11.8549 24.9658 11.7503 25.0311 11.6369 25.1231C11.5605 25.1423 11.5991 25.1398 11.5202 25.1144C11.4841 24.9497 11.6519 24.8528 11.7322 24.6685Z" fill="#363732"/>
<path id="Vector_181" d="M30.9635 32.0498C31.0549 32.0442 31.1745 32.0964 31.2338 32.1676L31.2214 32.2182C31.1251 32.2623 31.1319 32.2611 31.0263 32.267C30.8641 32.2937 30.7675 32.3425 30.6756 32.1946L30.7063 32.13C30.8135 32.0582 30.8303 32.0632 30.9635 32.0498Z" fill="#3D3936"/>
<path id="Vector_182" d="M8.14519 27.3649C8.25277 27.3757 8.24659 27.3711 8.33571 27.431C8.42312 27.5541 8.4267 27.6551 8.40278 27.8092C8.29123 27.7747 8.16694 27.7458 8.1013 27.6544C8.06682 27.5466 8.10764 27.4758 8.14519 27.3649Z" fill="#41403C"/>
<path id="Vector_183" d="M7.83204 25.2719C7.92339 25.628 8.12798 25.4201 8.29038 25.4987C8.28153 25.6177 8.30191 25.5658 8.22639 25.659C8.03261 25.7159 7.76323 25.5745 7.69694 25.4012C7.78311 25.3561 7.77637 25.3543 7.83204 25.2719Z" fill="#363732"/>
<path id="Vector_184" d="M25.1377 33.0505C25.2513 33.0757 25.2718 33.1083 25.3338 33.195C25.3563 33.3177 25.3654 33.2624 25.3156 33.368L25.2018 33.4028C25.1078 33.3404 24.9586 33.2621 24.9195 33.1658C24.98 33.0763 25.0059 33.0943 25.1377 33.0505Z" fill="#51514E"/>
<path id="Vector_185" d="M7.73524 27.7944C7.9503 27.7801 8.22208 27.8469 8.38398 27.9948L8.37941 28.0874C8.19403 28.1035 7.95195 27.9836 7.78336 27.9032C7.74208 27.8836 7.74972 27.8553 7.73524 27.7944Z" fill="#363732"/>
<path id="Vector_186" d="M9.1831 21.734L9.29036 21.7536C9.33236 21.9397 9.2807 22.0385 9.21062 22.2197C9.19205 22.2172 9.10995 22.1936 9.08895 22.188C8.94891 22.0112 9.04919 21.8751 9.1831 21.734Z" fill="#46453E"/>
<path id="Vector_187" d="M11.505 31.0314C11.5905 31.0506 11.74 31.1584 11.7842 31.2299C11.8782 31.3824 11.8422 31.4169 11.8025 31.567C11.7688 31.5723 11.7931 31.5707 11.7318 31.5484C11.6071 31.3896 11.5068 31.2361 11.505 31.0314Z" fill="#363732"/>
<path id="Vector_188" d="M12.3343 20.2212C12.5046 20.3306 12.3734 20.7665 12.372 20.9998L12.309 20.9371C12.2555 20.6876 12.2037 20.4502 12.3343 20.2212Z" fill="#3D3936"/>
<path id="Vector_189" d="M15.2831 27.8112C15.446 27.86 15.6697 28.1533 15.6828 28.3273L15.5963 28.3443C15.4071 28.2281 15.3082 28.0287 15.2831 27.8112Z" fill="#46453E"/>
<path id="Vector_190" d="M9.75792 21.4691C9.86851 21.461 9.90777 21.4902 9.96341 21.5725L9.9403 21.6465C9.83126 21.7375 9.8486 21.707 9.66964 21.7148C9.58549 21.7558 9.62686 21.7533 9.54222 21.7316L9.53945 21.6589C9.63336 21.5116 9.58555 21.5632 9.75792 21.4691Z" fill="#41403C"/>
<path id="Vector_191" d="M36.9132 22.6897C37.0374 22.6773 37.1142 22.649 37.1803 22.767C37.1564 22.8596 37.1148 22.8767 37.0371 22.9351C36.9237 22.9556 36.8809 22.9615 36.7976 22.8898C36.8125 22.7661 36.8116 22.8022 36.9132 22.6897Z" fill="#3D3936"/>
<path id="Vector_192" d="M48.266 17.9628C48.4005 17.9667 48.4477 17.9586 48.5679 18.0097C48.6419 18.1081 48.6238 18.0525 48.6105 18.186C48.4676 18.243 48.4996 18.2548 48.37 18.2325C48.2983 18.1611 48.2905 18.0656 48.266 17.9628Z" fill="#41403C"/>
<path id="Vector_193" d="M50.6548 19.1337C50.8092 19.1303 51.0472 19.1085 51.1615 19.2073L51.1643 19.2607L51.0932 19.3319C50.9823 19.316 50.7695 19.2986 50.6825 19.2508L50.7266 19.1992L50.6548 19.1337Z" fill="#3D3936"/>
<path id="Vector_194" d="M20.416 29.3493C20.5331 29.3931 20.5783 29.3997 20.6649 29.4842C20.6934 29.6057 20.6915 29.5584 20.6205 29.6958C20.4986 29.702 20.4983 29.6942 20.4239 29.6386C20.3756 29.5274 20.3972 29.4755 20.416 29.3493Z" fill="#363732"/>
<path id="Vector_195" d="M31.0166 15.1211C31.1166 15.1306 31.1424 15.1508 31.2108 15.2178C31.2421 15.3166 31.1977 15.4215 31.1685 15.5258L31.1204 15.5699L31.0735 15.5488C31.0182 15.4055 31.0238 15.2757 31.0166 15.1211Z" fill="#46453E"/>
<path id="Vector_196" d="M55.579 16.9259C55.7185 16.8813 55.8008 16.8796 55.931 16.9449L55.9894 17.0181L55.9816 17.0778C55.8608 17.1279 55.78 17.0957 55.6654 17.0458C55.6421 17.0037 55.6086 16.9645 55.579 16.9259Z" fill="#46453E"/>
<path id="Vector_197" d="M16.023 27.5066C16.1287 27.493 16.1362 27.4827 16.2328 27.5309L16.2796 27.5921C16.2495 27.694 16.2787 27.6524 16.178 27.7123C16.1027 27.7145 16.0308 27.7179 15.9556 27.7129L16.023 27.5066Z" fill="#363732"/>
<path id="Vector_198" d="M8.39602 27.1162C8.49875 27.104 8.71396 27.0758 8.76645 27.1795L8.69923 27.2364C8.56932 27.283 8.48887 27.3175 8.36589 27.2665C8.35253 27.1684 8.34852 27.2174 8.39602 27.1162Z" fill="#46453E"/>
<path id="Vector_199" d="M11.7507 23.8679C11.7853 23.8837 11.7879 23.8983 11.816 23.9334C11.832 24.0667 11.7996 24.1251 11.7563 24.2572C11.6639 24.2062 11.6489 24.2078 11.5922 24.1177C11.6132 23.9912 11.6572 23.976 11.7507 23.8679Z" fill="#3D3936"/>
<path id="Vector_200" d="M7.46535 27.9991C7.59653 28.0174 7.62079 28.014 7.73368 28.0758C7.78677 28.1734 7.77847 28.1215 7.74679 28.2383C7.62247 28.2287 7.5765 28.2358 7.47268 28.1753C7.41997 28.0706 7.42842 28.1265 7.46535 27.9991Z" fill="#41403C"/>
<path id="Vector_201" d="M36.2039 20.6839C36.3064 20.6759 36.4012 20.6575 36.4956 20.6908C36.5049 20.7787 36.4764 20.7787 36.4062 20.8747L36.303 20.879C36.1834 20.8163 36.2204 20.8613 36.1716 20.7532L36.2039 20.6839Z" fill="#363732"/>
<path id="Vector_202" d="M5.41818 25.0192C5.51708 25.0142 5.58682 25.0015 5.67899 25.0363C5.71921 25.1292 5.70468 25.1052 5.68066 25.2255C5.58595 25.2444 5.57113 25.2562 5.47887 25.227C5.42041 25.1636 5.42662 25.1071 5.41818 25.0192Z" fill="#3D3936"/>
<path id="Vector_203" d="M34.2942 25.2672C34.4085 25.3035 34.3771 25.2684 34.4206 25.3489C34.3781 25.4263 34.2995 25.4533 34.2181 25.4971C34.1954 25.4912 34.1348 25.4635 34.1109 25.4533L34.0882 25.3964C34.1401 25.3135 34.201 25.3032 34.2942 25.2672Z" fill="#363732"/>
<path id="Vector_204" d="M4.28711 26.7644C4.36933 26.9648 4.39673 27.04 4.44438 27.2572C4.34032 27.1313 4.25312 27.0347 4.17484 26.8896C4.22349 26.8474 4.24654 26.8138 4.28711 26.7644Z" fill="#41403C"/>
<path id="Vector_205" d="M34.4678 29.9458C34.5542 29.9507 34.5504 29.9526 34.6309 29.9862C34.6685 30.0834 34.6598 30.0471 34.6129 30.1723C34.5181 30.1648 34.47 30.1704 34.3923 30.116C34.392 30.0166 34.3951 30.0449 34.4678 29.9458Z" fill="#3D3936"/>
<path id="Vector_206" d="M35.036 22.998C35.0959 22.9881 35.1534 23.0263 35.1674 23.0853C35.1813 23.1443 35.1472 23.2043 35.0891 23.222C35.0481 23.2347 35.0033 23.2232 34.9732 23.1928C34.9431 23.162 34.9322 23.1173 34.9456 23.0763C34.9589 23.0356 34.9937 23.0055 35.036 22.998Z" fill="#3D3936"/>
<path id="Vector_207" d="M9.71875 29.1478L9.7021 29.1012C9.68194 29.0458 9.65081 28.9632 9.60043 28.9371L9.61046 28.9539L9.6095 28.9029L9.64969 28.9558L9.619 28.9014C9.66392 29.0676 9.83415 29.1263 9.99115 29.117C9.92551 29.1555 9.81763 29.2469 9.77339 29.2655L9.6993 29.2326L9.71875 29.1478Z" fill="#363732"/>
<path id="Vector_208" d="M24.8659 35.1003C24.9205 35.0786 24.9827 35.1034 25.0071 35.1569C25.0315 35.2103 25.0094 35.2737 24.9569 35.3004C24.9209 35.3188 24.8777 35.3156 24.8445 35.2927C24.8113 35.2697 24.7934 35.2305 24.7979 35.1901C24.8024 35.15 24.8285 35.1156 24.8659 35.1003Z" fill="#363732"/>
<path id="Vector_209" d="M20.4126 32.0612C20.5476 32.1517 20.5763 32.2141 20.5412 32.3701C20.4591 32.3418 20.4577 32.3368 20.3856 32.2862C20.3551 32.1771 20.3735 32.1908 20.4126 32.0612Z" fill="#363732"/>
<path id="Vector_210" d="M11.5837 24.4159C11.6228 24.4038 11.6653 24.4144 11.694 24.4436C11.7227 24.4728 11.7326 24.5156 11.7197 24.5545C11.7069 24.5933 11.6734 24.6216 11.633 24.6278C11.5765 24.6368 11.5228 24.6005 11.5098 24.5448C11.4969 24.4889 11.5291 24.4327 11.5837 24.4159Z" fill="#363732"/>
<path id="Vector_211" d="M14.7463 28.1556L14.8474 28.2283C14.9008 28.3243 14.8859 28.3603 14.8734 28.4697C14.7904 28.4402 14.7967 28.4402 14.7388 28.3721C14.7102 28.2612 14.7169 28.2618 14.7463 28.1556Z" fill="#363732"/>
<path id="Vector_212" d="M27.1204 30.8239C27.2661 30.8404 27.2556 30.8168 27.3547 30.8926L27.358 30.9715C27.2752 30.992 27.2666 30.9914 27.1806 30.9942C27.1133 30.9339 27.1348 30.9407 27.1204 30.8239Z" fill="#363732"/>
<path id="Vector_213" d="M6.6295 24.0864C6.73018 24.0044 6.70042 24.0025 6.80681 23.995C6.81688 24.0963 6.76164 24.1233 6.68597 24.192L6.6295 24.0864Z" fill="#3D3936"/>
<path id="Vector_214" d="M38.1333 29.1935L38.1939 29.2143L38.206 29.2808C38.0607 29.4914 38.005 29.8661 37.7755 29.9062L37.7481 29.8857C37.7699 29.7474 37.8165 29.483 37.9019 29.3817C37.9976 29.3401 38.1051 29.2972 38.1333 29.1935Z" fill="#4C3835"/>
<path id="Vector_215" d="M8.68019 37.744C8.74779 37.7288 8.81519 37.7698 8.8333 37.8366C8.85138 37.9034 8.81377 37.9726 8.74785 37.9938C8.70243 38.0084 8.65267 37.9969 8.61831 37.9636C8.58399 37.9304 8.57063 37.881 8.58355 37.8353C8.59651 37.7893 8.63363 37.7542 8.68019 37.744Z" fill="#D18B5E"/>
</g>

  </g>
</svg>