<svg preserveAspectRatio="none" width="100%" height="100%" overflow="visible" style="display: block;" viewBox="0 0 279 187" fill="none" xmlns="http://www.w3.org/2000/svg">
<g id="Screenshot 2026-07-13 at 5.17.47&#226;&#128;&#175;PM 1 [Vectorized]">
<path id="Vector" d="M232.304 41.8953C236.588 41.5529 240.632 40.9676 242.53 45.5674C241.93 48.2743 235.63 60.3152 232.989 60.6225L233.21 60.6391L232.97 60.5387C233.166 59.0573 236.667 53.9725 237.177 52.185C237.373 51.4977 237.652 50.7528 237.295 50.0062C237.13 49.6596 236.679 49.3373 236.341 49.2895C234.547 49.0358 232.167 49.5382 230.418 49.8083C223.372 50.8976 216.673 52.5114 209.933 54.8211C206.308 56.0627 203.972 56.5023 200.561 58.5334C203.11 60.275 207.218 61.3354 209.669 63.0635L209.671 63.4359C208.955 64.3088 207.562 64.4456 206.471 64.6423C208.922 66.0855 211.253 67.5251 213.755 68.7453C223.81 73.6468 238.602 75.7078 234.841 90.6868C233.23 97.1052 228.256 96.8656 223.227 99.1425C221.972 99.7115 222.263 101.406 221.911 102.504C219.691 109.691 213.226 115.221 207.002 119.163C200.005 123.595 185.332 129.584 179.209 120.651C176.194 116.254 176.871 107.185 178.052 102.193C172.013 107.506 164.222 112.254 155.913 109.828C147.403 107.343 147.058 100.605 146.26 93.2266C145.057 82.1096 145.133 70.7364 141.742 60.0137C141.478 59.2353 139.62 56.7421 139.802 55.9698C140.531 52.8883 141.521 48.2206 142.391 45.2704C145.411 51.8803 146.248 56.9409 147.335 64.1457C148.397 61.5117 150.534 56.0963 152.877 54.5793C157.605 51.5189 163.775 49.1757 169.188 47.6127C173.536 45.865 180.64 44.1678 185.346 43.8135C187.953 43.6172 189.621 44.3148 191.463 46.0241C191.54 46.4478 191.573 47.0904 191.642 47.4894C192.105 50.1817 185.427 63.0524 183.27 63.1317C183.015 61.6481 188.949 53.6173 186.893 51.6454C181.307 50.5773 159.604 58.3186 153.849 61.554C153.228 61.903 152.061 62.5875 151.853 63.311C152.568 64.0672 158.535 65.734 160.61 66.9356C159.719 67.2994 158.396 68.1286 157.528 68.6398C163.484 72.9309 172.62 75.3446 178.194 79.9797C188.697 88.7132 177.371 100.908 181.867 111.121C182.758 113.195 184.455 114.82 186.569 115.622C194.244 118.478 204.801 112.378 211.083 108.304C214.614 106.014 217.175 104.185 218.711 100.135C213.678 100.658 206.057 102.075 201.631 98.7329C199.306 92.3895 203.022 80.0294 211.374 81.3687C216.137 82.1323 220.029 87.9612 221.151 92.3183C224.489 91.8163 229.604 90.1112 232.057 87.7052C230.27 82.7961 218.739 79.1534 214.001 76.8188C202.612 71.2059 190.302 65.9409 200.697 51.6334C202.482 49.1764 206.317 48.28 209.135 47.3954C216.717 45.0135 224.35 42.6575 232.304 41.8953ZM174.604 95.8588C176.718 94.1711 178.776 92.6178 180.294 90.3646C175.892 85.3648 161.365 80.4461 155.306 76.4404C153.198 75.0469 151.652 73.8482 150.013 71.8774C149.767 71.5815 148.416 69.837 148.258 69.7073C148.411 71.779 148.909 73.7383 149.094 75.8906C149.708 83.0428 149.22 94.3992 154.635 99.6113C156.416 101.326 159.407 101.396 161.734 101.212C166.98 100.796 170.397 98.7371 174.604 95.8588ZM212.088 93.1083L214.618 93.1463C212.763 91.1112 210.57 88.8542 207.604 89.136C206.595 89.401 205.788 89.5914 205.164 90.4682C205.003 92.832 210.378 93.1463 212.088 93.1083Z" fill="var(--fill-0, #BC2328)"/>
<path id="Vector_2" d="M114.733 45.3696C115.952 45.1433 118.281 45.4049 119.459 45.7261C126.333 47.6006 118.227 57.9138 116.254 61.0761C115.84 61.7396 114.245 63.8877 113.633 64.1772L113.437 64.0475C113.368 63.1565 114.091 61.937 114.57 61.1936C116.455 58.2633 117.346 56.4331 117.923 53.0123C116.468 52.7587 113.115 52.7674 111.759 53.0879C104.794 54.7339 86.8201 58.1727 81.5813 62.0376C82.9044 62.5674 89.7939 65.5344 90.212 66.4918C89.7483 67.3056 88.1217 67.7753 87.2188 68.1069C90.1815 69.5626 92.9343 71.3741 95.9599 72.7693C102.228 75.6594 111.978 77.8718 114.894 84.7514C116.22 87.8787 115.771 92.5274 114.487 95.6233C112.53 100.341 107.202 100.887 103.036 102.647C102.104 108.685 99.2107 112.391 94.6535 116.509C87.831 122.301 78.1834 128.09 69.0095 127.861C60.6461 127.651 57.8374 121.06 58.3846 113.605C55.0657 118.738 52.8414 120.886 47.3504 124.03C42.9918 126.526 36.7872 129.469 31.5283 128.318C30.9564 128.193 30.4842 127.959 30.2051 127.461C30.5824 126.51 49.1494 116.457 51.5991 113.594C52.379 112.683 52.511 111.56 52.4148 110.403C52.0983 106.593 50.1312 103.218 48.1085 100.069C43.6621 93.1466 37.7659 87.1816 32.4733 80.9131C30.6021 78.6969 28.8637 76.3234 27.1621 73.9775C25.926 72.2731 24.6657 70.5301 23.6008 68.7145C21.243 64.6951 19.3233 59.8891 15.7184 56.8217C15.3732 53.9935 15.6202 50.1228 15.4429 47.0259C19.7297 50.6562 23.4228 54.8869 27.4932 58.7527C27.8542 59.0955 27.9714 59.3796 27.9451 59.8451C27.1848 59.9625 23.9111 58.6662 22.9826 58.3259C24.7982 61.1413 26.2399 63.1388 28.4998 65.595C29.512 66.6144 31.1918 68.7935 32.2661 70.0185C40.7027 79.6383 50.1003 90.7657 53.7051 103.197C54.4634 105.812 54.2873 108.054 54.4587 110.658L54.6998 110.771C57.1579 109.525 59.0698 103.93 59.1665 101.155C59.28 97.8934 58.7085 95.5846 58.2365 92.4728L56.5014 80.7804C55.6775 74.8449 55.0566 62.6202 52.2603 57.018C52.0793 56.6555 54.8955 48.553 55.4306 47.0252C58.2107 52.8768 60.3178 59.2025 63.8013 64.6293C62.2886 63.8651 60.8116 63.0325 59.3747 62.1346C59.7421 64.0641 59.7124 65.9599 60.1362 68.047C61.8035 76.2599 64.1517 84.845 64.0258 93.2573C63.973 95.0239 64.0512 96.9235 63.6627 98.6741C62.3102 104.771 59.8528 112.962 65.7411 117.597C67.9404 119.328 72.8104 119.702 75.6006 118.939C83.9406 116.658 93.3976 111.766 99.0556 105.098C99.4599 104.597 99.4293 104.136 99.3063 103.61C93.0357 103.897 89.7988 105.086 83.2586 102.457C80.5281 98.3604 82.597 92.3669 84.6873 88.3686C85.6477 86.5315 87.5033 84.9827 89.5471 84.5034C95.8356 83.0282 100.692 90.2419 101.981 95.4759C104.257 94.883 110.783 92.9275 111.956 91.5442C115.107 87.8281 99.3987 82.2097 97.4995 81.3981C95.6029 80.5917 93.7332 79.7239 91.8935 78.7957C88.4174 77.0259 84.6077 74.684 81.5835 72.2609C79.9333 70.9388 77.6828 68.3883 77.5908 66.2676C77.4536 63.11 79.9002 57.4399 81.9499 55.0923C82.6862 54.2472 83.5739 53.5465 84.5676 53.0258C86.0549 52.2298 87.9612 51.6463 89.5654 51.0948C97.698 48.2988 106.132 45.9768 114.733 45.3696ZM85.7154 94.5975C88.6297 96.0755 89.7573 95.9518 92.9303 96.3401L95.4096 96.2422C93.3927 93.941 91.6665 92.252 88.3484 92.4061C86.754 92.9942 86.6211 93.1497 85.7154 94.5975Z" fill="var(--fill-0, #BC2328)"/>
<path id="Vector_3" d="M84.8684 70.3057C85.8471 70.3741 87.3349 70.1442 87.7507 71.2089C87.605 71.653 87.4545 71.6901 87.0364 71.9666C86.099 72.1682 84.4424 72.1461 83.9963 71.1587C84.2696 70.5807 84.2672 70.7092 84.8684 70.3057Z" fill="var(--fill-0, #BC2328)"/>
<path id="Vector_4" d="M233.851 133.924C234.625 133.616 236.496 132.831 237.251 133.076C236.822 133.774 235.892 133.549 235.035 134.461C234.62 134.015 234.541 134.113 233.851 133.924Z" fill="var(--fill-0, #BC2328)"/>
<path id="Vector_5" d="M101.033 17.2245C102.617 17.6415 103.813 22.2603 103.006 23.9413C101.119 27.8714 96.9659 28.1946 93.202 29.2286C91.6413 29.6574 90.1262 29.8902 88.5483 30.1636C76.7474 32.0499 63.8416 32.3054 52.6759 27.5195C51.4065 26.9755 50.2166 26.3044 48.9438 25.7669C48.2511 25.2514 46.927 24.6641 46.6207 23.997C46.9914 23.8644 52.8368 25.4264 53.9223 25.6325C60.6789 26.9167 70.9069 28.3278 77.4385 27.9454C81.7329 27.6939 99.7544 26.0927 101.268 23.5529C101.553 22.392 100.412 20.7126 99.8484 19.3919C100.264 18.416 100.436 18.1023 101.033 17.2245Z" fill="var(--fill-0, #BC2328)"/>
<path id="Vector_6" d="M115.324 21.3289L115.787 21.3295C116.455 21.8112 116.245 22.0682 116.615 22.7716C117.983 25.3695 120.803 24.5123 122.878 23.4723C123.394 24.3776 123.518 24.7179 123.842 25.7138C120.618 26.9159 118.977 28.8363 115.606 26.5549L114.628 24.4763C113.804 24.9327 112.612 25.4948 111.897 26.0573C110.229 27.369 110.24 29.4006 109.339 31.2047C108.646 32.5937 107.945 33.4615 106.924 34.6216C105.763 35.7869 104.422 36.4663 102.767 36.6354C101.471 36.7678 97.615 36.3974 96.6872 35.6227C97.0808 34.8921 100.041 35.084 100.994 34.7886C104.114 33.8212 109.347 30.9852 109.042 27.1531C109.006 26.701 109.014 24.0503 109.466 23.8394C111.464 22.9089 113.31 22.3437 115.324 21.3289Z" fill="var(--fill-0, #BC2328)"/>
<path id="Vector_7" d="M135.872 9.77751C135.901 9.80459 135.933 9.82893 135.959 9.85877C136.785 10.7981 136.314 23.3703 136.122 25.4563C135.973 27.0708 135.901 29.1618 134.574 30.2651C134.344 29.7275 134.354 29.3953 134.346 28.8274C134.269 23.5498 133.84 18.1868 134.329 12.9249C134.403 12.1354 135.432 10.4934 135.872 9.77751Z" fill="var(--fill-0, #BC2328)"/>
<path id="Vector_8" d="M124.626 7.48686C126.617 8.94246 126.722 9.74359 124.664 11.2008C124.099 11.1738 123.94 11.2516 123.423 11.4288L123.208 11.8002C123.467 12.6955 124.299 13.069 125.081 13.5366C124.555 13.851 123.454 15.1777 122.756 15.2187C121.732 15.279 120.723 14.04 121.42 13.029C121.626 12.6808 123.161 11.179 123.219 10.94C123.7 8.98699 123.323 9.07404 124.626 7.48686Z" fill="var(--fill-0, #BC2328)"/>
<path id="Vector_9" d="M128.56 19.4199C129.961 20.3962 129.452 23.5814 128.629 24.8664C127.607 26.4618 127.187 26.5657 125.469 27.0084C124.887 26.7728 124.962 26.9114 124.747 26.481C125.382 25.6882 127.45 23.7353 127.613 23.0092C127.958 21.4685 127.719 20.9973 128.56 19.4199Z" fill="var(--fill-0, #BC2328)"/>
<path id="Vector_10" d="M126.154 12.0549C127.192 12.5319 127.662 12.7391 128.609 13.4084C128.129 14.0249 127.697 14.7087 126.992 15.023C125.863 15.0647 125.671 14.4405 125.205 13.5083C125.282 12.5731 125.47 12.559 126.154 12.0549Z" fill="var(--fill-0, #BC2328)"/>
<path id="Vector_11" d="M125.081 13.5366C124.299 13.069 123.467 12.6955 123.208 11.8002L123.423 11.4288C123.94 11.2516 124.099 11.1738 124.664 11.2008C125.218 12.0399 125.084 11.8773 126.154 12.0549C125.47 12.559 125.282 12.5732 125.205 13.5083L125.081 13.5366Z" fill="var(--fill-0, #BC2328)"/>
<path id="Vector_12" d="M123.829 22.5867C124.369 22.9755 124.903 23.43 125.419 23.854L125.424 24.1426C124.846 24.0047 123.952 23.6325 123.619 23.1049L123.829 22.5867Z" fill="var(--fill-0, #BC2328)"/>
<path id="Vector_13" d="M0 124.272C3.16519 125.627 8.58472 126.659 12.0075 127.571C17.0966 128.928 21.8155 129.874 26.9887 130.772C39.4267 133.056 52.0104 134.463 64.6465 134.983C72.4252 135.246 81.9138 134.874 89.7011 134.328C109.016 132.976 129.388 129.083 147.409 121.897C153.94 119.223 160.327 116.21 166.544 112.872C168.176 112.006 172.91 108.942 174.253 108.51C175.117 108.96 174.92 114.518 174.623 114.783C167.824 120.859 159.442 125.166 151.51 129.764C122.087 146.819 87.5544 156.952 53.7291 159.906C42.4107 160.79 31.0475 160.958 19.7078 160.408C14.6172 160.181 10.2554 159.915 5.19429 159.123C3.5429 158.865 1.67859 158.913 0 158.567V124.272Z" fill="var(--fill-0, #BC2328)"/>
<path id="Vector_14" d="M225.133 70.6499C233.066 63.1016 257.227 53.0647 268.235 49.7798C271.035 48.9445 276.029 47.8054 279 47.1638V68.8029C275.857 68.8801 272.701 68.7326 269.513 68.8622C257.152 69.365 245.439 70.5823 233.965 75.5464C230.367 73.6831 229.825 72.5869 225.133 70.6499Z" fill="var(--fill-0, #BC2328)"/>
</g>
</svg>
