<svg preserveAspectRatio="none" width="100%" height="100%" overflow="visible" style="display: block;" viewBox="0 0 232.145 505.159" fill="none" xmlns="http://www.w3.org/2000/svg">
<g id="Person" filter="url(#filter0_dinf_0_4)">
<path id="Vector" d="M33.4131 231.897C51.7592 246.136 73.2105 250.473 95.8261 249.139C100.701 248.849 105.725 249.052 110.587 248.497C112.269 247.886 118.626 246.789 120.803 246.339C121.876 246.3 124.126 245.717 125.243 245.46C125.617 247.288 127.899 246.448 129.252 246.111C129.165 244.651 129.136 244.698 130.114 243.71C132.839 246.063 133.114 246.945 134.715 250.104C135.628 252.122 134.164 252.731 134.511 255.025C135.443 256.674 136.136 260.9 136.937 262.948C138.909 267.983 141.134 273.057 142.837 278.187C143.642 280.609 143.689 284.718 144.185 287.305C145.476 294.023 146.479 300.221 147.4 306.987C147.675 308.938 147.978 310.888 148.128 312.85C148.521 316.378 148.463 318.985 148.531 322.504C157.553 330.068 160.965 339.574 164.874 350.355C165.231 351.519 165.553 352.568 165.985 353.707C167.569 359.484 168.886 365.008 170.902 370.693C171.636 372.767 173.735 376.032 173.873 377.832C175.455 385.898 172.518 402.183 172.008 410.888C171.886 412.965 171.69 421.951 171.429 423.414C177.326 429.56 182.786 436.263 188.465 442.613C189.447 443.712 190.295 444.776 191.124 445.998L191.795 446.771C193.076 449.437 193.198 451.36 193.394 454.276L193.498 454.589L193.987 455.259C195.023 456.015 196.335 456.914 197.23 457.796L198.152 459.735L198.436 460.21C205.098 461.334 217.263 458.845 223.363 461.641C224.971 462.381 226.576 464.282 227.732 465.621C228.145 466.587 228.106 467.341 228.145 468.376L227.545 469.972C225.434 475.686 223.921 473.952 221.255 477.631C219.616 478.404 210.441 484.418 209.303 485.672L209.512 485.666C209.146 486.107 208.58 486.668 208.464 487.181C200.408 493.135 186.519 493.732 177.009 493.048C174.824 492.892 172.958 493.478 170.838 493.634L170.616 493.486C169.42 491.323 167.031 491.513 165.008 492.512C164.33 493.375 164.481 492.967 164.414 494.036L164.935 494.65C164.613 495.175 163.22 496.185 162.598 495.99C162.73 495.351 163.463 495.085 164.173 494.614C164.182 493.201 162.236 492.654 161.275 490.988C161.351 490.871 161.428 490.754 161.505 490.639C165.236 489.933 170.115 488.806 173.597 487.634L173.519 487.274C168.522 488.616 163.756 489.646 158.767 490.868C157.132 492.013 152.881 494.279 152.221 494.831C151.21 494.125 148.871 493.846 147.204 493.218C143.368 492.091 138.127 483.015 135.608 479.358L134.975 478.379C129.569 471.173 125.78 459.632 121.988 451.273C119.786 446.422 114.758 437.084 113.7 432.445C110.677 425.356 108.291 417.751 105.796 410.433C102.794 401.418 99.4492 392.524 95.7669 383.763C94.4341 380.626 92.5729 376.158 90.971 373.177C90.8088 372.529 90.8942 371.966 90.6307 370.992C89.9171 370.818 90.1103 370.899 89.2546 371.343C89.0871 372.58 88.7535 374.547 88.6684 375.731L88.7356 376.919C89.6122 376.395 89.3601 376.353 90.0985 376.526C90.5126 377.718 90.2937 378.05 90.4213 379.183C90.6449 382.044 90.0611 391.583 89.555 394.38C89.4919 396.241 88.2317 406.375 87.6879 407.771C86.9202 415.507 85.1097 423.288 84.5048 431.1C84.3911 432.565 83.7717 438.795 83.368 439.802C86.3744 440.45 90.1069 440.871 91.9447 443.498C93.5374 445.264 94.4274 446.06 94.8456 448.371L94.7409 449.297C94.3559 450.793 94.2557 451.471 92.9894 452.468C92.1262 451.499 92.7831 450.86 91.9576 450.12L91.574 450.444C88.1762 453.687 88.0826 450.88 85.4313 454.957C84.4408 455.73 83.9392 456.347 83.7426 457.611L83.3878 458.214C82.7909 459.509 80.2477 462.56 79.1938 463.484C78.8825 462.736 78.9146 462.685 79.019 461.856C78.964 461.276 78.8939 460.885 78.9891 460.305L78.6689 460.106C78.6335 461.198 78.684 462.582 78.2798 463.55C74.7197 464.82 74.665 465.543 71.6913 467.006C70.3554 467.662 66.129 468.764 64.3697 469.492C60.2293 471.206 47.2162 476.732 43.4267 476.847C41.3014 477.435 38.8787 477.907 36.8625 478.68C36.0325 479.559 35.3243 480.332 34.5507 481.262C33.7707 481.212 32.8368 481.041 32.1939 481.404L32.262 482.135L32.7162 482.445L32.6942 482.861C31.671 482.906 30.7121 482.847 29.6917 482.8C26.0937 482.342 21.9075 481.496 20.2163 477.84L19.4966 476.196C19.4578 473.288 19.5281 471 18.4851 468.236C17.374 466.439 17.7241 463.866 17.7822 461.711C17.7163 459.107 17.936 456.196 18.0795 453.57L18.0943 451.661C18.5661 449.671 18.4257 444.993 18.529 442.805C18.8419 436.16 18.4407 426.813 19.4505 420.285C19.3274 418.312 19.7375 414.075 19.8894 411.937C19.1672 408.519 21.4483 389.13 21.8804 384.631C22.9904 373.082 24.1241 361.153 25.2269 349.577C26.1079 341.913 25.357 333.534 26.6054 325.962C28.9075 312.002 30.2177 297.294 32.8729 283.481C33.5725 279.351 32.3712 276.649 31.819 272.41C31.453 269.393 31.2297 266.362 31.1498 263.322C30.494 261.55 30.1797 254.469 30.0786 252.265C29.0968 246.116 30.5273 237.892 33.2844 232.275L33.4131 231.897Z" fill="var(--fill-0, #9464BC)"/>
<path id="Vector_2" d="M130.114 243.71C132.84 246.064 133.115 246.946 134.715 250.105C135.628 252.123 134.165 252.731 134.511 255.025C133.987 254.28 133.568 253.686 133.106 252.89C132.099 254.33 131.304 255.483 130.146 256.825L130.074 256.122L130.194 255.726C128.412 253.711 129.29 253.359 126.177 252.391C124.658 249.156 123.592 250.091 120.494 249.008C119.999 248.835 118.583 247.881 118.073 247.534L118.053 247.495C115.905 247.975 112.652 248.936 110.588 248.497C112.27 247.886 118.627 246.789 120.804 246.34C121.877 246.301 124.127 245.718 125.244 245.461C125.618 247.289 127.899 246.449 129.253 246.111C129.166 244.651 129.137 244.699 130.114 243.71Z" fill="var(--fill-0, #9464BC)"/>
<path id="Vector_3" d="M130.114 243.71C132.839 246.064 133.114 246.946 134.715 250.105C133.75 251.707 128.591 252.734 128.389 248.453C129.059 247.85 129.074 247.049 129.252 246.111C129.165 244.651 129.137 244.699 130.114 243.71Z" fill="var(--fill-0, #9464BC)"/>
<path id="Vector_4" d="M130.193 255.725C130.63 251.888 127.542 252.078 127.127 249.379C127.648 248.589 127.396 248.849 128.389 248.452C128.591 252.734 133.75 251.707 134.715 250.105C135.628 252.122 134.164 252.731 134.511 255.025C133.986 254.28 133.567 253.685 133.106 252.89C132.099 254.33 131.303 255.483 130.146 256.825L130.073 256.122L130.193 255.725Z" fill="var(--fill-0, #9464BC)"/>
<path id="Vector_5" d="M130.073 256.122L130.146 256.825L129.928 257.163C129.338 258.053 129.208 258.246 129.457 259.547C128.488 259.753 128.023 259.862 127.006 259.898C125.71 260.018 124.837 260.018 123.532 259.999C124.211 259.295 129.114 256.379 130.073 256.122Z" fill="var(--fill-0, #9464BC)"/>
<path id="Vector_6" d="M32.8728 283.482C33.6612 282.608 33.743 281.252 34.0077 280.007C34.5523 279.354 34.5853 279.351 35.4072 279.058C36.3 280.002 35.8446 279.778 37.1029 279.912L37.4546 280.278C37.3778 280.32 34.3533 281.754 34.2478 281.791L33.8142 282.41L33.9516 282.899C35.5155 283.686 35.963 282.151 37.669 283.409L37.8304 284.04C38.8848 283.518 38.9013 283.183 39.7195 283.44C38.3508 285.078 35.901 285.983 35.6671 287.747C37.1364 290.085 39.6685 288.067 39.5635 291.431C39.5426 292.103 39.8547 292.611 40.2061 293.167L40.3709 293.27C40.8834 292.779 41.3616 292.142 41.9563 292L42.0213 292.363C39.5573 295.556 37.1006 299.351 36.2411 303.379L36.4027 303.794C37.7893 302.455 38.9024 299.376 40.2921 297.933C40.621 297.933 40.9083 297.936 41.1548 297.936C44.9498 300.546 36.8008 306.789 37.1054 309.932C38.9113 310.434 39.7036 310.931 39.7589 312.868C41.8689 310.87 42.4733 307.319 43.4217 306.368L43.6425 306.471C43.0769 308.578 40.944 312.248 39.6308 314.032C39.6132 315.067 38.0481 318.508 38.7321 319.524C40.2804 321.827 39.5691 331.765 39.0934 334.378C38.9446 335.569 38.5629 337.679 38.8482 338.754L39.6171 338.985C39.8323 339.443 38.7385 341.804 40.5677 343.937C40.9258 343.471 40.9021 343.108 40.9691 342.522C41.473 348.14 41.9409 351.003 45.0135 355.84C45.6503 356.842 46.5981 359.011 45.4071 359.94C42.7516 361.994 39.0311 363.722 36.03 365.262C33.0669 366.783 26.5532 368.17 26.9343 372.711C27.195 375.82 27.1208 378.458 26.312 381.598L26.2774 380.805C25.4815 387.403 27.8564 393.671 26.9951 399.993L25.4873 400.459C25.216 401.748 26.1289 407.484 26.8812 408.5C24.85 410.023 20.9759 410.174 20.0328 410.816C20.0959 411.553 20.2174 411.483 19.8893 411.938C19.1671 408.519 21.4482 389.13 21.8804 384.631C22.9904 373.082 24.1241 361.154 25.2268 349.577C26.1079 341.913 25.3569 333.535 26.6054 325.963C28.9075 312.003 30.2176 297.294 32.8728 283.482Z" fill="var(--fill-0, #9464BC)"/>
<path id="Vector_7" d="M39.0932 334.377C38.9645 332.848 37.9385 331.622 37.8352 329.741C37.6937 327.16 38.51 324.969 38.6875 322.474C38.7146 321.081 37.5943 319.231 37.8908 317.88C38.1886 316.526 38.3397 314.751 39.6306 314.031C39.613 315.066 38.0479 318.508 38.7319 319.524C40.2802 321.826 39.5689 331.765 39.0932 334.377Z" fill="var(--fill-0, #9464BC)"/>
<path id="Vector_8" d="M33.9924 336.819C34.3004 337.561 34.299 338.488 34.3288 339.289C34.8498 339.604 34.7325 339.493 35.5061 339.389C36.0418 340.216 35.7713 342.73 35.4955 343.66C34.711 346.297 34.6172 344.313 32.6382 345.49C32.4333 345.915 32.2158 346.303 31.9902 346.716C31.2457 345.144 33.4575 344.031 33.4221 343.012C33.3442 340.785 33.4723 339.004 33.9924 336.819Z" fill="var(--fill-0, #9464BC)"/>
<path id="Vector_9" d="M33.857 322.91C35.204 323.208 34.5865 325.754 33.95 326.58C33.3042 326.279 33.3294 326.29 32.821 325.785C32.7827 324.473 33.1683 324.247 33.857 322.91Z" fill="var(--fill-0, #9464BC)"/>
<path id="Vector_10" d="M198.152 459.736L198.436 460.21C205.098 461.335 217.263 458.845 223.363 461.642C224.971 462.381 226.576 464.282 227.732 465.622C228.145 466.587 228.106 467.341 228.145 468.376L227.545 469.973C225.434 475.686 223.921 473.953 221.255 477.631C219.616 478.404 210.441 484.419 209.303 485.672L209.512 485.666C209.146 486.107 208.58 486.668 208.464 487.182C200.408 493.135 186.519 493.732 177.009 493.048C174.824 492.892 172.958 493.478 170.837 493.634L170.616 493.487C169.42 491.324 167.031 491.513 165.008 492.512C164.33 493.375 164.481 492.967 164.414 494.036L164.935 494.65C164.612 495.175 163.219 496.185 162.597 495.99C162.73 495.351 163.462 495.086 164.172 494.614C164.182 493.202 162.236 492.655 161.275 490.989C161.351 490.871 161.428 490.754 161.504 490.64C165.236 489.934 170.115 488.806 173.597 487.634L173.519 487.274C175.151 486.375 176.792 485.49 178.44 484.617C179.983 483.855 184.277 481.072 185.06 479.696C184.411 479.507 184.244 479.512 183.802 478.99C183.832 478.114 184.302 477.759 184.9 477.07L185.134 476.852C186.01 476.428 186.232 476.417 187.204 476.286C188.845 476.328 189.002 475.77 189.972 474.544L190.272 474.374C190.872 473.584 191.381 472.557 192.496 472.786C192.628 474.469 191.845 475.396 190.95 476.805L191.185 476.124C189.649 478.667 188.378 481.346 186.272 483.325C191.274 480.796 190.598 478.658 194.119 475.331C194.856 472.624 195.917 470.447 196.491 467.536L196.826 467.453C197.179 466.032 197.279 465.753 197.142 464.302L196.612 463.883C196.768 463.406 196.677 462.979 196.63 462.471C197.344 461.374 197.632 460.93 198.152 459.736Z" fill="var(--fill-0, #9464BC)"/>
<path id="Vector_11" d="M198.152 459.736L198.436 460.21C205.098 461.335 217.263 458.845 223.363 461.642C224.971 462.381 226.576 464.282 227.732 465.622C228.145 466.587 228.106 467.341 228.145 468.376L227.545 469.973C227.003 470.528 226.21 471.458 225.543 471.739C225.585 470.576 225.75 470.891 225.149 470.199C222.494 469.412 221.431 471.137 218.712 471.887C216.816 473.316 214.675 475.097 212.455 475.898C211.78 476.961 210.145 479.758 209.214 480.428C207.152 479.906 205.839 481.044 203.162 481.19C200.707 481.321 195.18 480.757 193.074 479.504C191.685 478.678 194.244 477.483 194.119 475.331C194.856 472.624 195.917 470.447 196.491 467.536L196.826 467.453C197.179 466.032 197.279 465.753 197.142 464.302L196.612 463.883C196.768 463.406 196.677 462.979 196.63 462.471C197.344 461.374 197.632 460.93 198.152 459.736Z" fill="var(--fill-0, #9464BC)"/>
<path id="Vector_12" d="M227.732 465.621C228.145 466.587 228.106 467.34 228.145 468.376L227.545 469.972C227.003 470.528 226.211 471.457 225.543 471.739C225.585 470.575 225.75 470.891 225.15 470.198C222.495 469.411 221.431 471.136 218.712 471.887C220.965 469.587 221.654 470.762 223.006 467.159C225.041 465.942 225.381 465.956 227.732 465.621Z" fill="var(--fill-0, #9464BC)"/>
<path id="Vector_13" d="M186.272 483.325C191.274 480.796 190.598 478.658 194.12 475.331C194.244 477.483 191.685 478.678 193.075 479.504C195.18 480.757 200.708 481.321 203.162 481.189C205.839 481.044 207.153 479.906 209.214 480.428C205.134 483.81 198.992 481.524 197.852 484.335L198.171 485.563C196.686 487.519 186.589 487.871 184.664 486.702C184.185 485.448 185.161 483.872 186.272 483.325Z" fill="var(--fill-0, #9464BC)"/>
<path id="Vector_14" d="M190.272 474.374C190.107 475.175 187.689 478.354 187.009 478.915C185.925 478.184 185.966 477.514 184.899 477.07L185.134 476.852C186.01 476.428 186.232 476.417 187.204 476.286C188.845 476.328 189.002 475.769 189.972 474.544L190.272 474.374Z" fill="var(--fill-0, #9464BC)"/>
<path id="Vector_15" d="M183.401 475.239L183.405 475.923C184.257 476.046 184.43 476.288 185.135 476.852L184.9 477.07C184.303 477.759 183.833 478.114 183.802 478.99C184.244 479.512 184.412 479.506 185.06 479.696C184.278 481.072 179.983 483.855 178.441 484.617C176.792 485.49 175.152 486.375 173.519 487.274C168.522 488.616 163.756 489.646 158.768 490.868C157.132 492.013 152.881 494.279 152.222 494.831C151.211 494.125 148.871 493.846 147.205 493.218C143.368 492.091 138.128 483.015 135.608 479.358C140.162 478.633 143.615 480.338 148.012 480.891C150.754 481.234 155.257 480.983 157.818 481.477C160.872 482.068 161.71 483.221 165.397 483.33C170.171 483.472 172.836 480.134 176.359 479.819L176.61 479.95C177.495 479.624 177.94 478.613 178.486 477.748C180.277 476.989 181.849 476.42 183.401 475.239Z" fill="var(--fill-0, #9464BC)"/>
<path id="Vector_16" d="M183.405 475.923C184.257 476.045 184.429 476.288 185.134 476.852L184.9 477.07C184.302 477.759 183.833 478.114 183.802 478.99C184.244 479.512 184.411 479.506 185.06 479.696C184.277 481.072 179.983 483.855 178.441 484.616L178.57 484.402C179.657 482.565 180.074 481.231 179.523 479.129C179.555 478.915 179.583 478.982 179.845 478.772C181.161 479.322 181.566 479.738 182.886 479.043C183.689 477.977 183.487 477.315 183.405 475.923Z" fill="var(--fill-0, #9464BC)"/>
<path id="Vector_17" d="M147.204 493.219C151.182 493.101 154.505 490.151 158.767 490.869C157.132 492.013 152.88 494.279 152.221 494.832C151.21 494.126 148.87 493.847 147.204 493.219Z" fill="var(--fill-0, #9464BC)"/>
<path id="Vector_18" d="M183.405 475.923C183.487 477.315 183.689 477.977 182.886 479.043C181.566 479.738 181.161 479.322 179.845 478.772C179.583 478.982 179.555 478.915 179.522 479.129C178.817 479.83 178.62 480.048 178.069 480.849L177.94 481.038L177.532 481.089C177.651 480.695 178.466 478.635 178.485 478.627C180.016 478.08 182.246 477.416 183.405 475.923Z" fill="var(--fill-0, #9464BC)"/>
<path id="Vector_19" d="M191.794 446.771C193.075 449.437 193.197 451.36 193.393 454.276L193.497 454.589L193.987 455.259C195.023 456.015 196.335 456.914 197.229 457.796L198.152 459.735C197.632 460.93 197.344 461.374 196.63 462.47C196.677 462.978 196.768 463.405 196.612 463.883L197.142 464.301C197.279 465.753 197.179 466.032 196.826 467.452L196.491 467.536C195.917 470.447 194.856 472.624 194.119 475.331C190.597 478.658 191.273 480.796 186.272 483.324C188.378 481.346 189.649 478.666 191.185 476.124L190.95 476.805C191.845 475.395 192.628 474.469 192.496 472.786C191.38 472.557 190.872 473.584 190.272 474.374L189.972 474.544C189.002 475.769 188.845 476.327 187.204 476.286C186.232 476.417 186.01 476.428 185.134 476.852C184.429 476.288 184.257 476.046 183.405 475.923L183.401 475.239C181.848 476.42 180.277 476.989 178.485 477.748C177.94 478.613 177.494 479.624 176.609 479.95L176.359 479.819C176.761 479.216 178.749 474.137 178.778 473.405C178.377 472.501 178.662 472.805 177.558 472.336L177.487 471.996C176.891 472.247 171.298 473.751 170.846 473.606C171.684 473.294 172.223 473.082 173.114 472.892L173.291 472.856C173.165 472.242 173.21 471.918 172.856 471.513L171.47 472.261L171.138 472.138C172.672 471.189 174.981 468.996 175.658 468.744C175.851 468.781 176.045 468.817 176.238 468.851C177.824 469.121 177.71 468.937 178.916 468.083C178.952 467.935 178.991 467.79 179.031 467.645C179.661 465.365 179.842 466.718 181.201 465.948C182.696 463.319 183.303 463.084 183.465 460.146L183.819 459.897C183.803 460.62 183.696 461.555 183.99 462.177C185.67 459.174 187.091 455.942 189.625 453.266C190.263 452.593 190.287 453.626 191.584 453.654C192.819 451.678 191.583 447.851 189.392 446.897C190.142 446.919 190.211 446.93 190.94 447.148L191.113 447.201L191.794 446.771Z" fill="var(--fill-0, #9464BC)"/>
<path id="Vector_20" d="M186.912 464.94C188.206 463.232 189.215 461.187 191.271 460.667L191.487 460.919C190.502 464.34 186.732 467.302 188.275 471.03L189.158 471.362L189.865 471.658C190.329 472.568 190.559 472.97 191.63 472.772C192.411 471.915 192.755 470.916 193.214 469.85C193.739 468.904 195.75 465.384 196.563 465.2C196.496 465.998 196.44 466.562 196.481 467.377L196.491 467.536C195.917 470.447 194.856 472.624 194.119 475.331C190.598 478.658 191.274 480.796 186.272 483.324C188.378 481.346 189.649 478.666 191.185 476.124L190.95 476.805C191.845 475.395 192.628 474.469 192.496 472.786C191.381 472.557 190.872 473.584 190.272 474.374L189.972 474.544C189.002 475.769 188.845 476.327 187.204 476.286C186.232 476.417 186.01 476.428 185.134 476.852C184.429 476.288 184.257 476.046 183.405 475.923L183.401 475.239L183.19 474.896C184.64 473.302 185.49 473.28 186.83 471.22C187.597 469.878 187.051 466.621 186.912 464.94Z" fill="var(--fill-0, #9464BC)"/>
<path id="Vector_21" d="M186.83 471.22C187.223 472.309 187.205 473.196 187.193 474.352C186.626 475.239 186.948 474.958 185.949 475.396C184.987 475.323 184.107 475.251 183.19 474.896C184.64 473.303 185.49 473.28 186.83 471.22Z" fill="var(--fill-0, #9464BC)"/>
<path id="Vector_22" d="M187.204 476.286C189.053 475.089 187.918 473.09 189.029 472.306C189.771 473.102 189.748 473.476 189.972 474.545C189.003 475.77 188.845 476.328 187.204 476.286Z" fill="var(--fill-0, #9464BC)"/>
<path id="Vector_23" d="M193.214 469.849C191.939 469.224 190.585 467.832 190.457 466.355L190.784 465.973C191.784 466.185 192.2 466.679 192.985 467.349C193.301 466.71 193.258 466.498 193.29 465.763C192.337 464.474 191.215 465.261 190.731 463.907C191.098 463.014 190.853 463.263 191.597 462.797C192.83 463.023 192.884 463.927 194.218 464.524C194.55 464.028 194.428 463.402 194.397 462.774C193.812 461.878 193.061 461.711 191.999 461.147C192.367 458.574 192.502 457.195 192.472 454.605L193.394 454.276L193.498 454.589L193.988 455.258C195.023 456.015 196.336 456.913 197.23 457.795L198.152 459.735C197.632 460.93 197.345 461.373 196.63 462.47C196.677 462.978 196.768 463.405 196.613 463.882L197.143 464.301C197.28 465.752 197.18 466.031 196.827 467.452L196.491 467.536L196.482 467.377C196.44 466.562 196.496 465.998 196.564 465.2C195.75 465.384 193.739 468.903 193.214 469.849Z" fill="var(--fill-0, #9464BC)"/>
<path id="Vector_24" d="M196.612 463.883L196.016 464.659L195.7 464.5L195.446 462.451C193.111 459.468 192.963 458.594 192.943 454.924L193.498 454.589L193.987 455.259C195.023 456.015 196.335 456.914 197.23 457.796L198.152 459.736C197.632 460.93 197.344 461.374 196.63 462.471C196.677 462.979 196.768 463.406 196.612 463.883Z" fill="var(--fill-0, #9464BC)"/>
<path id="Vector_25" d="M193.987 455.258C195.023 456.015 196.335 456.913 197.23 457.795L196.567 458.412C195.287 458.242 194.341 457.765 193.617 456.665C193.505 455.658 193.398 456.031 193.987 455.258Z" fill="var(--fill-0, #9464BC)"/>
<path id="Vector_26" d="M196.567 458.413L197.23 457.796L198.152 459.736C197.632 460.931 197.344 461.374 196.63 462.471L196.445 462.424C196.037 461.654 196.644 459.993 196.567 458.413Z" fill="var(--fill-0, #9464BC)"/>
<path id="Vector_27" d="M186.913 464.941C187.052 466.621 187.598 469.878 186.83 471.22C185.491 473.28 184.64 473.302 183.191 474.896L183.401 475.239C181.849 476.42 180.277 476.989 178.486 477.748C177.94 478.613 177.495 479.624 176.61 479.95L176.36 479.819C176.762 479.216 178.75 474.137 178.779 473.406C178.377 472.501 178.662 472.805 177.559 472.337L177.488 471.996C181.86 471.854 181.897 473.322 183.6 467.944C184.13 468.664 184.403 468.999 185.027 469.638L185.375 469.624C185.499 466.864 185.261 466.925 186.913 464.941Z" fill="var(--fill-0, #9464BC)"/>
<path id="Vector_28" d="M188.274 471.031C188.473 469.471 188.245 469.404 189.06 468.29C190.437 468.287 190.866 470.168 189.827 471.198L189.158 471.363L188.274 471.031Z" fill="var(--fill-0, #9464BC)"/>
<path id="Vector_29" d="M178.916 468.083C179.728 467.603 180.177 467.204 181.094 467.273C181.849 467.773 181.84 467.879 182.2 468.761C181.105 469.163 179.562 469.283 178.916 468.083Z" fill="var(--fill-0, #9464BC)"/>
<path id="Vector_30" d="M170.807 429.054C171.201 427.182 170.796 424.773 171.43 423.414C177.326 429.559 182.787 436.263 188.465 442.613C189.447 443.712 190.295 444.776 191.125 445.998C189.567 447 189.135 445.725 187.832 446.18C184.796 447.235 174.066 450.91 171.744 448.178L171.303 446.551C170.08 439.85 170.699 435.736 170.807 429.054Z" fill="var(--fill-0, #9464BC)"/>
<path id="Vector_31" d="M148.531 322.505C157.553 330.068 160.964 339.574 164.874 350.356C164.428 350.484 162.831 350.855 162.605 351.053C159.209 354.04 159.55 355.887 155.622 358.988L155.201 359.072L154.698 358.941C153.901 357.989 155.19 351.179 155.027 349.047C154.986 347.607 154.756 345.653 154.629 344.182C151.901 340.367 153.395 337.57 152.41 336.219C150.713 336.833 147.675 337.453 145.88 337.23L145.806 336.864C146.536 336.398 146.739 336.401 147.607 336.211L148.798 335.798C148.733 333.992 148.34 332.321 147.983 330.554L148.197 330.294C147.945 328.237 147.81 327.188 147.882 325.092C147.997 323.777 147.787 323.281 148.531 322.505Z" fill="var(--fill-0, #9464BC)"/>
<path id="Vector_32" d="M154.953 335.117C154.639 338.659 154.48 340.618 154.629 344.182C151.901 340.367 153.395 337.57 152.41 336.219C153.386 335.661 153.903 335.494 154.953 335.117Z" fill="var(--fill-0, #9464BC)"/>
<path id="Vector_33" d="M148.197 330.294C149.844 331.779 150.429 332.273 152.606 332.605L153.25 332.867C152.311 333.509 149.633 335.457 148.798 335.798C148.733 333.992 148.34 332.32 147.982 330.554L148.197 330.294Z" fill="var(--fill-0, #9464BC)"/>
<path id="Vector_34" d="M151.614 327.944C152.967 329.2 154.826 330.528 153.921 332.482L153.25 332.867L152.607 332.605C151.842 331.519 151.311 330.02 150.806 328.767L151.614 327.944Z" fill="var(--fill-0, #9464BC)"/>
<path id="Vector_35" d="M149.194 325.086C150.233 326.169 150.724 326.738 151.614 327.944L150.806 328.767C150.221 327.776 149.64 326.197 149.194 325.086Z" fill="var(--fill-0, #9464BC)"/>
<path id="Vector_36" d="M156.904 340.33C158.82 341.042 159.605 343.66 158.355 345.142L157.218 345.56C155.878 344.344 156.561 341.935 156.904 340.33Z" fill="var(--fill-0, #9464BC)"/>
<path id="Vector_37" d="M133.106 252.89C133.567 253.686 133.986 254.28 134.511 255.025C135.443 256.675 136.136 260.9 136.938 262.949C138.909 267.984 141.134 273.058 142.837 278.188C143.642 280.61 143.689 284.718 144.185 287.306C145.477 294.023 146.48 300.222 147.4 306.987C146.989 310.211 147.95 309.12 144.586 309.937C143.58 308.704 144.625 301.344 143.921 299.508C143.696 298.921 142.063 296.834 141.563 296.103L140.287 294.961L139.611 294.224C138.252 292.787 137.391 292.131 135.56 291.431C135.409 291.266 134.515 290.549 134.292 290.364L134.109 290.158L134.19 289.17C134.598 288.704 135.272 287.934 135.427 287.342C136.118 284.71 131.92 282.075 129.86 281.646C131.514 281.662 132.482 281.461 133.671 282.575C135.265 283.666 138.392 284.886 140.001 283.822C143.401 281.57 142.839 278.958 139.193 277.864C137.947 276.664 136.717 275.411 135.332 274.375C134.671 273.515 133.766 272.435 133.747 271.361C134.583 270.886 135.829 271.713 137.499 271.724C139.212 270.78 137.111 268.168 136.591 266.778C136.108 265.486 135.697 263.44 134.95 262.385C134.028 261.553 130.152 257.978 129.928 257.163L130.146 256.826C131.303 255.483 132.099 254.331 133.106 252.89Z" fill="var(--fill-0, #9464BC)"/>
<path id="Vector_38" d="M129.86 281.645C131.514 281.662 132.482 281.461 133.671 282.575L135.347 284.565C137.343 287.049 137.368 285.142 139.696 286.144C140.22 287.372 139.461 288.321 138.831 289.415C137.327 289.764 137.148 289.354 135.994 290.124C135.766 290.638 135.633 290.858 135.56 291.43C135.409 291.266 134.515 290.548 134.292 290.364L134.109 290.158L134.19 289.17C134.598 288.704 135.272 287.933 135.427 287.342C136.118 284.71 131.92 282.075 129.86 281.645Z" fill="var(--fill-0, #9464BC)"/>
<path id="Vector_39" d="M135.347 284.565C137.335 285.165 139.401 284.247 140.608 285.614C141.582 288.162 138.72 290.588 139.43 292.851C139.472 292.985 139.583 294.006 139.611 294.224C138.253 292.787 137.391 292.131 135.561 291.43C135.633 290.858 135.766 290.638 135.994 290.124C137.148 289.354 137.327 289.764 138.831 289.415C139.461 288.321 140.22 287.372 139.696 286.144C137.368 285.142 137.343 287.049 135.347 284.565Z" fill="var(--fill-0, #9464BC)"/>
<path id="Vector_40" d="M125.35 313.189C123.146 311.988 119.091 313.161 118.122 311.179L118.408 310.487C120.638 309.203 125.963 311.715 129.379 310.596C130.637 310.506 136.515 307.886 136.398 306.172C136.087 301.617 140.579 303.8 142.749 300.325C142.813 299.248 142.903 299.683 142.318 298.676C140.976 297.995 141.51 298.424 139.84 298.33L139.482 298.307L139.485 298.316C140.458 298.014 140.669 297.989 141.349 297.249L140.348 296.828L140.332 296.599L141.562 296.102C142.062 296.834 143.695 298.921 143.921 299.507C144.624 301.344 143.579 308.703 144.585 309.937C147.949 309.119 146.988 310.211 147.4 306.987C147.675 308.938 147.978 310.889 148.127 312.851C148.521 316.379 148.463 318.985 148.53 322.505C147.787 323.281 147.997 323.777 147.882 325.092C147.81 327.188 147.945 328.237 148.197 330.294L147.982 330.554C147.354 329.622 147.353 327.59 147.359 326.487C147.374 323.973 144.993 324.673 144.677 323.49C144.197 321.695 144.502 320.442 142.72 318.924C140.718 318.723 140.736 322.53 140.541 324.087C139.695 322.976 141.379 319.256 141.113 317.866C140.824 316.356 139.963 315.552 140.591 313.956L140.06 313.909C138.664 314.442 136.461 316.164 135.422 317.182C128.067 324.411 126.13 322.544 116.763 321.617C119.317 320.361 125.4 323.786 129.416 321.243C131.764 320.375 136.536 315.156 139.976 313.328C137.817 312.722 136.601 312.058 134.615 310.992C130.765 313.258 129.797 313.214 125.35 313.189Z" fill="var(--fill-0, #9464BC)"/>
<path id="Vector_41" d="M147.882 325.091L147.827 324.846C147.092 321.776 145.494 320.629 144.513 317.768C143.365 314.422 145.393 313.676 148.127 312.85C148.521 316.378 148.463 318.985 148.53 322.504C147.787 323.28 147.997 323.777 147.882 325.091Z" fill="var(--fill-0, #9464BC)"/>
<path id="Vector_42" d="M140.06 313.909C139.519 312.678 138.871 311.11 140.199 310.236C141.089 310.498 140.779 310.27 141.3 311.104C141.429 312.187 141.238 313.066 140.591 313.956L140.06 313.909Z" fill="var(--fill-0, #9464BC)"/>
<path id="Vector_43" d="M81.3322 355.206C81.8029 352.616 82.0871 350.35 80.6904 347.952C82.7747 348.427 81.4693 353.651 81.9375 354.639C83.0749 354.542 83.4283 354.316 84.3099 354.771C84.6589 355.801 84.7904 356.783 84.9314 357.824C84.997 358.31 86.445 358.91 86.4679 359.448C86.5952 362.446 86.2292 364.176 88.5729 366.523C88.9436 366.895 89.0796 369.853 89.8459 370.369C90.9724 369.839 92.5385 368.452 93.148 367.369C92.5946 366.35 92.1999 366.674 91.4096 366.082C87.99 363.52 87.0645 361.142 87.2775 357.151L87.5517 357.006C88.0025 358.494 87.4333 359.951 88.0159 361.165C89.4177 364.087 91.7085 365.597 94.3922 367.257C93.5994 368.008 90.9548 370.241 91.2965 371.41C92.9883 377.182 96.2426 382.845 98.4439 388.446C103.995 402.577 108.296 417.143 113.752 431.29C113.871 431.6 113.743 432.113 113.699 432.445C110.677 425.356 108.291 417.751 105.796 410.433C102.794 401.419 99.4489 392.524 95.7666 383.763C94.4338 380.626 92.5726 376.158 90.9707 373.177C90.8085 372.529 90.8939 371.966 90.6304 370.992C89.9168 370.819 90.11 370.9 89.2543 371.343C89.2549 369.518 87.6083 364.603 86.2368 363.534C85.4933 364.701 86.6647 364.779 85.2923 365.418C85.0341 366.06 85.1008 365.89 85.0883 366.554C85.0528 368.413 83.9869 369.808 83.6008 371.837C83.1642 374.131 82.9325 376.211 82.6675 378.519C82.2415 378.918 82.2786 378.907 81.7315 379.102C80.5497 382.275 78.9113 391.918 79.8683 395.298C79.9693 395.655 79.9227 395.887 79.8845 396.272L79.6684 395.828C79.7507 394.427 78.6977 394.436 78.7077 391.254C78.7306 383.964 80.9805 378.061 79.909 370.816C79.4032 367.394 76.1357 361.943 76.1422 359.468C76.0411 358.943 75.5481 357.883 75.3183 357.344C75.5682 355.94 74.9208 355.379 76.2248 354.285C76.8217 354.171 80.1028 355.036 81.3322 355.206Z" fill="var(--fill-0, #9464BC)"/>
<path id="Vector_44" d="M75.3183 357.344C75.5682 355.94 74.9208 355.379 76.2248 354.285C76.8217 354.171 80.1028 355.036 81.3322 355.206L82.65 355.136C82.6807 355.734 82.6991 356.736 82.8239 357.285L82.5779 357.419C82.9227 357.969 83.739 359.295 83.7449 359.889C83.7675 362.167 83.7491 365.357 82.6282 367.364L82.1592 367.606C79.5637 366.454 80.3532 361.299 77.904 359.183L76.9411 358.963L76.1422 359.468C76.0411 358.943 75.5481 357.883 75.3183 357.344Z" fill="var(--fill-0, #9464BC)"/>
<path id="Vector_45" d="M75.3183 357.344C75.8189 356.465 75.5941 356.574 76.3579 356.125L76.8903 356.334C77.3493 357.464 77.3859 357.604 76.9411 358.963L76.1422 359.468C76.0411 358.944 75.5481 357.883 75.3183 357.344Z" fill="var(--fill-0, #9464BC)"/>
<path id="Vector_46" d="M82.65 355.136C84.521 355.228 84.9012 357.324 84.0567 358.413C83.267 358.192 83.4459 358.134 82.8239 357.285C82.6991 356.735 82.6807 355.733 82.65 355.136Z" fill="var(--fill-0, #9464BC)"/>
<path id="Vector_47" d="M177.558 472.337C178.661 472.805 178.376 472.501 178.778 473.405C178.749 474.137 176.761 479.216 176.359 479.819C172.835 480.134 170.17 483.472 165.396 483.33C161.709 483.221 160.871 482.069 157.817 481.477C155.256 480.983 150.753 481.234 148.011 480.891C143.615 480.338 140.161 478.633 135.607 479.359L134.974 478.379C137.464 475.493 149.873 477.396 153.783 477.84C161.775 478.747 171.073 476.928 177.558 472.337Z" fill="var(--fill-0, #9464BC)"/>
<path id="Vector_48" d="M156.336 362.691C160.854 364.388 160.137 373.604 159.907 377.363C159.821 378.778 160.531 380.33 160.114 381.701C159.226 382.803 158.289 382.384 157.194 383.303C156.191 384.145 156.137 386.844 155.725 387.444C154.832 388.748 153.051 387.69 153.502 390.439C153.778 392.128 153.837 392.948 154.595 394.578L154.954 394.785C156.596 393.353 158.814 390.166 160.459 390.068C162.052 391.248 162.236 391.985 162.282 393.917C162.331 395.929 162.318 395.563 161.285 397.185C162.589 396.766 163.391 395.027 164.473 394.751L164.624 394.991C161.656 399.443 158.543 396.869 156.836 397.785L156.647 399.077C155.361 400.02 152.56 399.741 151.548 398.34C151.983 397.358 152.536 397.252 153.616 396.83C154.056 396.66 154.498 396.493 154.94 396.328C154.451 394.991 154.069 393.492 152.759 392.836L151.091 393.063L150.872 392.764L150.94 392.521C151.654 392.153 152.107 391.413 152.337 390.668C152 389.303 151.651 389.655 150.737 388.271C151.299 385.728 152.591 387.059 152.376 383.774C152.167 382.945 152.19 382.909 152.403 382.061C153.608 381.045 153.62 381.985 155.082 381.248C156.39 378.46 155.825 371.491 155.312 368.343C155.21 367.721 154.557 366.364 154.318 365.334L154.271 365.125C154.798 363.953 155.438 363.691 156.336 362.691Z" fill="var(--fill-0, #9464BC)"/>
<path id="Vector_49" d="M157.014 364.213C158.363 365.276 159.729 367.551 158.373 369.108C157.387 368.952 157.23 368.983 156.427 368.447C155.221 366.814 155.842 365.611 157.014 364.213Z" fill="var(--fill-0, #9464BC)"/>
<path id="Vector_50" d="M23.9192 410.76C25.1964 410.785 29.2651 411.067 29.5261 410.218C30.257 407.84 30.3201 400.537 33.8645 399.479L33.9881 399.716C27.9502 405.633 32.7966 408.376 27.6537 413.054C26.9561 415.404 26.7696 419.412 26.2003 420.598L26.0286 419.657C24.7794 421.229 23.7849 425.753 25.221 427.246C25.6881 427.226 26.5155 427.145 26.915 427.268L25.0585 427.785C24.312 429.205 24.9633 430.679 23.506 431.061C22.2288 431.396 21.3179 430.243 20.5211 431.363C20.4388 432.331 20.482 432.836 19.9815 433.671L19.7168 433.5C19.7288 432.069 19.5102 431.898 20.1227 430.804C22.2389 429.403 25.7673 431.042 23.7902 426.651C23.1574 426.749 20.0281 429.621 19.2863 430.238C19.532 427.341 19.6858 423.18 19.4505 420.285C19.3274 418.312 19.7375 414.075 19.8894 411.938C20.2174 411.483 20.0959 411.552 20.0328 410.816C20.9759 410.174 24.85 410.023 26.8812 408.499C26.6992 409.83 25.0501 409.903 23.9192 410.76Z" fill="var(--fill-0, #9464BC)"/>
<path id="Vector_51" d="M169.327 375.918C170.344 371.36 168.464 370.612 167.593 366.819C167.171 364.989 163.98 355.633 164.108 354.425C164.725 353.719 164.882 353.895 165.985 353.708C167.569 359.485 168.886 365.008 170.902 370.693C171.636 372.767 173.735 376.032 173.873 377.833C173.839 378.315 173.729 379.407 173.742 379.836C173.522 379.139 173.55 378.885 173.527 378.145L173.104 378.123C171.219 379.647 171.717 390.185 167.892 389.086C160.438 386.948 165.085 379.055 169.327 375.918Z" fill="var(--fill-0, #9464BC)"/>
<path id="Vector_52" d="M144.358 362.446C143.967 363.936 141.968 366.337 140.195 365.376C139.943 364.631 139.921 364.26 139.309 363.85C139.11 364.215 139.091 364.252 139.042 364.654L139.007 364.961C138.411 365.242 135.92 365.312 135.273 365.231C132.154 364.838 121.155 367.38 118.932 366.124C118.847 366.37 126.133 359.705 126.345 359.647C128.866 358.957 134.74 361.751 139.081 360.42L140.103 360.425C141.516 360.489 144.511 360.752 145.712 360.397C145.099 361.098 145.134 361.385 145.043 362.332L144.358 362.446Z" fill="var(--fill-0, #9464BC)"/>
<path id="Vector_53" d="M129.457 259.547C129.208 258.246 129.338 258.053 129.928 257.163C130.152 257.978 134.028 261.553 134.95 262.385C135.697 263.44 136.108 265.486 136.591 266.778C137.111 268.168 139.212 270.78 137.5 271.723C135.83 271.712 134.583 270.886 133.747 271.361C133.766 272.435 134.671 273.515 135.332 274.375C131.882 272.806 132.717 273.116 130.924 270.015C129.83 268.12 127.262 267.95 125.15 267.52C123.251 267.13 115.703 265.257 114.708 264.107C116.216 263.415 120.414 264.283 122.46 264.386C125.867 263.954 127.905 266.181 129.84 263.518C130.297 261.629 130.926 260.953 129.457 259.547Z" fill="var(--fill-0, #9464BC)"/>
<path id="Vector_54" d="M129.457 259.547C129.208 258.246 129.338 258.053 129.928 257.163C130.152 257.978 134.028 261.553 134.95 262.385L135.004 264.079C131.938 263.725 131.642 264.394 128.757 266.058C126.005 265.084 125.377 264.757 122.46 264.386C125.866 263.954 127.905 266.181 129.84 263.518C130.297 261.629 130.926 260.953 129.457 259.547Z" fill="var(--fill-0, #9464BC)"/>
<path id="Vector_55" d="M83.3681 439.803C86.3745 440.45 90.107 440.872 91.9448 443.498C93.5375 445.265 94.4275 446.06 94.8457 448.371L94.741 449.298C94.356 450.793 94.2558 451.472 92.9895 452.468C92.1263 451.5 92.7832 450.86 91.9577 450.121L91.5741 450.445C90.1238 450.696 88.5406 450.939 87.1372 451.346C85.8175 451.731 85.678 451.26 84.6411 451.173L85.1129 450.447C84.8041 449.627 83.585 448.48 82.9323 447.788L82.4094 446.35C82.3977 444.692 82.14 440.76 83.3681 439.803Z" fill="var(--fill-0, #9464BC)"/>
<path id="Vector_56" d="M83.3681 439.803C86.3745 440.45 90.107 440.872 91.9448 443.498C88.0649 444.69 87.9359 441.955 84.3988 441.807C83.906 441.787 83.2517 441.821 82.76 441.837C83.3159 442.878 84.3938 445.167 85.1863 445.898C86.2427 447.386 86.7369 448.243 86.8991 450.093L86.6551 450.724C85.7927 450.969 86.1308 450.941 85.1129 450.447C84.8041 449.627 83.585 448.48 82.9323 447.788L82.4094 446.35C82.3977 444.692 82.14 440.76 83.3681 439.803Z" fill="var(--fill-0, #9464BC)"/>
<path id="Vector_57" d="M82.7602 441.838C83.2519 441.821 83.9062 441.787 84.399 441.807C87.9361 441.955 88.0651 444.69 91.945 443.498C93.5377 445.265 94.4277 446.06 94.8459 448.371L94.7412 449.298C93.9978 449.82 94.3157 449.747 93.4805 449.764C90.945 446.069 92.6982 445.53 87.9431 445.89C87.2061 445.946 86.6734 443.615 86.0542 442.75C85.2507 442.203 84.9489 442.265 83.9601 442.253L83.7957 442.535C84.2005 443.32 84.3074 443.758 85.1368 444.168L85.1865 445.898C84.3939 445.167 83.3161 442.879 82.7602 441.838Z" fill="var(--fill-0, #9464BC)"/>
<path id="Vector_58" d="M147.034 370.654C147.194 370.687 148.608 370.964 148.608 370.964C151.885 369.395 151.477 369.169 152.9 373.071L153.083 373.381C151.596 374.391 150.549 376.093 149.42 377.495L149.019 378.055L148.089 378.63L147.363 379.395C145.649 379.99 145.084 381.301 143.769 381.868C143.403 381.293 142.747 379.925 142.37 379.621C141.283 379.724 140.982 379.78 140.133 379.311C140.095 378.449 140.088 378.739 140.793 377.869C139.629 377.33 139.904 377.654 139.51 376.721C140.845 372.295 143.108 371.77 147.034 370.654Z" fill="var(--fill-0, #9464BC)"/>
<path id="Vector_59" d="M145.848 377.83L147.473 376.931L148.562 377.291C148.642 377.816 148.362 378.145 148.089 378.631L147.362 379.396C145.649 379.99 145.084 381.302 143.769 381.868C143.402 381.293 142.747 379.926 142.37 379.622C142.84 379.008 144.976 378.218 145.848 377.83Z" fill="var(--fill-0, #9464BC)"/>
<path id="Vector_60" d="M140.793 377.868C142.324 377.572 143.497 377.143 144.961 376.643L145.848 377.829C144.976 378.217 142.84 379.007 142.37 379.621C141.282 379.724 140.982 379.78 140.132 379.311C140.095 378.449 140.088 378.739 140.793 377.868Z" fill="var(--fill-0, #9464BC)"/>
<path id="Vector_61" d="M144.961 376.644C146.367 375.561 147.819 373.621 149.127 373.78C149.729 374.844 148.256 376.264 147.474 376.931L145.848 377.83L144.961 376.644Z" fill="var(--fill-0, #9464BC)"/>
<path id="Vector_62" d="M129.458 259.547C130.927 260.953 130.298 261.629 129.841 263.518C127.906 266.181 125.867 263.954 122.461 264.386C120.415 264.283 116.216 263.415 114.709 264.107C115.703 265.257 123.252 267.13 125.15 267.521C125.141 268.333 124.863 271.562 124.719 272.204L124.326 272.109C124.023 271.076 124.29 269.173 124.386 268.012C123.95 267.532 120.65 267.096 119.755 266.8C117.588 266.086 115.372 265.196 113.21 264.523C111.693 265.517 110.101 265.157 109.199 266.77C109.461 267.694 109.242 267.367 110.088 267.973C112.197 267.984 112.12 266.368 113.231 266.041C113.252 267.239 113.387 266.798 112.786 267.749C111.465 268.57 110.772 268.626 109.252 268.327C108.695 267.738 108.495 267.431 108.164 266.694C106.439 267.652 99.3711 270.613 97.9233 268.832C98.6257 268.366 102.029 268.567 103.025 268.151C105.36 267.18 108.227 265.938 110.458 264.819L110.085 264.635C104.974 265.899 101.274 264.543 95.7083 267.16C94.0481 267.942 81.5434 267.543 79.0121 267.328C82.2321 266.499 89.6022 267.978 92.5925 267.169C100.779 264.953 108.852 264.685 117.068 262.84C119.354 262.327 121.634 260.462 123.532 259.999C124.838 260.018 125.711 260.018 127.007 259.898C128.024 259.862 128.489 259.753 129.458 259.547Z" fill="var(--fill-0, #9464BC)"/>
<path id="Vector_63" d="M129.458 259.547C130.926 260.953 130.297 261.629 129.841 263.518C128.58 264.054 125.635 262.34 127.007 259.898C128.024 259.862 128.489 259.753 129.458 259.547Z" fill="var(--fill-0, #9464BC)"/>
<path id="Vector_64" d="M164.874 350.356C165.231 351.519 165.553 352.569 165.985 353.708C164.882 353.895 164.726 353.719 164.108 354.425C163.98 355.633 167.171 364.989 167.593 366.819C168.465 370.612 170.344 371.36 169.327 375.918C169.359 369.275 165.514 369.111 165.869 365.128L165.951 365.382C166.21 362.399 165.208 358.779 163.462 356.423C161.214 353.395 164.444 353.761 164.543 351.388L164.067 351.305C161.352 352.541 159.468 355.742 157.556 358.268L158.103 358.477C158.42 358.137 158.411 358.123 158.811 357.894C159.099 358.812 158.568 361.282 158.302 362.281C158.109 361.584 158.124 361.134 157.646 360.755C157.144 361.422 156.707 361.941 156.336 362.692C155.438 363.691 154.798 363.953 154.271 365.125C153.52 364.277 153.865 364.411 152.943 364.31L152.716 364.796C153.073 365.457 153.184 365.566 153.689 366.136C154.61 368.561 154.84 368.935 152.845 370.716C152.866 371.469 152.912 372.329 152.9 373.071C151.477 369.169 151.885 369.395 148.608 370.964C148.608 370.964 147.194 370.688 147.035 370.654C147.719 369.231 149.506 369.22 149.867 367.659C149.431 366.881 149.651 367.143 148.746 366.705L148.215 366.554L149.474 366.465C150.761 365.326 150.774 364.522 149.969 363.216L149.991 362.577C150.278 362.072 151.424 361.36 151.958 360.986C153.106 360.543 154.388 360.012 155.201 359.072L155.622 358.988C159.55 355.887 159.209 354.04 162.606 351.053C162.831 350.855 164.428 350.484 164.874 350.356Z" fill="var(--fill-0, #9464BC)"/>
<path id="Vector_65" d="M155.201 359.072L155.622 358.988L157.806 359.156C156.608 361.224 153.657 364.598 150.986 364.051C150.662 363.789 150.273 363.493 149.969 363.217L149.991 362.577C150.277 362.072 151.424 361.361 151.958 360.987C153.105 360.543 154.388 360.013 155.201 359.072Z" fill="var(--fill-0, #9464BC)"/>
<path id="Vector_66" d="M152.845 370.715C152.261 369.627 150.383 366.278 151.066 365.331C152.226 365.122 152.656 365.488 153.689 366.135C154.61 368.561 154.84 368.935 152.845 370.715Z" fill="var(--fill-0, #9464BC)"/>
<path id="Vector_67" d="M145.145 335.641L147.608 336.211C146.74 336.401 146.537 336.398 145.806 336.864L145.881 337.23C147.676 337.453 150.713 336.833 152.41 336.219C153.396 337.57 151.901 340.367 154.629 344.182C154.757 345.653 154.986 347.606 155.027 349.046C153.915 348.078 153.677 347.989 152.306 347.416C151.336 344.793 152.965 343.104 151.464 341.67C150.101 341.285 146.827 342.223 145.489 342.7L143.981 342.85L145.138 341.971C143.298 341.949 143.272 342.169 142.585 340.422C142.148 340.311 142.263 340.302 141.877 339.94C141.822 339.139 141.897 338.742 141.399 338.178C139.467 338.474 139.039 339.655 136.678 339.515L137.151 339.13C137.634 337.252 137.875 337.537 139.562 337.107C140.835 336.816 142.159 337.506 143.987 337.564C144.887 336.872 143.816 337.361 144.155 336.099L145.145 335.641Z" fill="var(--fill-0, #9464BC)"/>
<path id="Vector_68" d="M142.585 340.423C143.497 340.06 143.612 340.027 144.549 340.303C145.146 340.881 145.382 341.004 145.138 341.972C143.298 341.95 143.272 342.17 142.585 340.423Z" fill="var(--fill-0, #9464BC)"/>
<path id="Vector_69" d="M88.6682 375.73L88.7355 376.919C89.6121 376.395 89.36 376.353 90.0984 376.526C90.5124 377.718 90.2936 378.05 90.4212 379.183C90.6448 382.044 90.061 391.583 89.5549 394.379C89.4918 396.241 88.2316 406.375 87.6878 407.77L87.2944 407.444C87.4586 405.909 87.4636 403.383 87.6372 401.494C87.8659 398.58 87.8584 394.338 86.7606 391.552C84.8187 389.169 87.589 378.359 88.6682 375.73Z" fill="var(--fill-0, #9464BC)"/>
<path id="Vector_70" d="M88.7352 376.92C89.6119 376.395 89.3598 376.354 90.0982 376.527C90.5122 377.718 90.2933 378.05 90.4209 379.184C90.6445 382.044 90.0608 391.584 89.5546 394.38L89.2168 394.28C88.3969 392.65 88.7439 387.808 88.6649 385.597C88.8441 382.993 88.4781 380.107 88.7352 376.92Z" fill="var(--fill-0, #9464BC)"/>
<path id="Vector_71" d="M87.6367 401.494C88.941 398.94 87.5122 391.94 88.0591 388.946C88.3082 387.581 88.2272 387.134 88.6646 385.596C88.7437 387.807 88.3967 392.649 89.2166 394.279L89.5544 394.38C89.4913 396.241 88.2311 406.375 87.6873 407.77L87.2939 407.444C87.4581 405.909 87.4631 403.383 87.6367 401.494Z" fill="var(--fill-0, #9464BC)"/>
<path id="Vector_72" d="M86.7607 391.552C87.8584 394.338 87.866 398.58 87.6373 401.494C87.4637 403.383 87.4587 405.909 87.2945 407.444L87.6879 407.771C86.9201 415.507 85.1097 423.288 84.5047 431.1C84.3911 432.565 83.7716 438.795 83.3679 439.802C82.1399 440.76 82.3975 444.692 82.4093 446.35L82.2429 446.289C81.8244 445.502 82.01 443.936 82.0246 442.914C82.0826 439.83 82.7418 436.04 83.0667 432.884C83.7284 426.462 84.4939 420.048 85.0631 413.609C85.2381 411.633 85.6748 410.386 86.0762 408.591C86.1692 408.041 85.632 404.218 85.7568 403.997C87.2842 401.318 87.3275 401.753 87.1801 398.466L86.6591 399.046L86.4023 399.016C86.2513 397.601 86.651 393.224 86.7607 391.552Z" fill="var(--fill-0, #9464BC)"/>
<path id="Vector_73" d="M174.846 453.573C175.454 453.827 175.51 453.922 175.959 454.374C176.157 455.153 176.314 456.119 177.04 456.512C179.216 454.455 181.524 452.435 184.565 452.32L184.69 452.58C184.238 453.074 180.502 454.997 179.062 456.113C175.995 458.491 176.255 455.449 174.689 455.1C173.894 455.619 173.519 455.982 172.565 455.853C172.115 455.122 171.842 454.48 171.489 453.704C169.434 453.439 157.623 454.179 158.35 457.355C159.861 458.608 162.018 458.056 163.792 458.455C161.966 458.988 158.253 459.236 157.156 457.355C157.602 454.773 163.239 453.149 165.191 451.561C165.563 451.257 166.688 449.515 166.976 449.072C168.228 448.804 169.172 448.625 170.44 448.46C171.545 449.847 170.533 452.161 172.749 452.329L174.846 453.573Z" fill="var(--fill-0, #9464BC)"/>
<path id="Vector_74" d="M82.9319 447.787C83.5846 448.479 84.8038 449.626 85.1126 450.447L84.6407 451.173C85.6776 451.259 85.8172 451.731 87.1368 451.346C88.5402 450.938 90.1234 450.695 91.5737 450.444C88.1759 453.687 88.0824 450.879 85.4311 454.957C84.4406 455.73 83.9389 456.347 83.7424 457.611L83.3875 458.214C82.7907 459.509 80.2474 462.56 79.1935 463.483C78.8823 462.735 78.9144 462.685 79.0188 461.856C79.9546 458.094 79.0707 455.711 80.8627 450.868C81.4026 451.468 81.3864 451.27 81.4864 451.943C81.9646 452.66 81.9802 452.716 82.6782 453.193L83.081 452.956C83.6142 451.544 83.2516 449.244 82.9319 447.787Z" fill="var(--fill-0, #9464BC)"/>
<path id="Vector_75" d="M84.6411 451.172C85.678 451.259 85.8176 451.73 87.1372 451.345C88.5406 450.938 90.1238 450.695 91.5741 450.444C88.1763 453.687 88.0828 450.879 85.4315 454.957C84.441 455.73 83.9393 456.346 83.7428 457.611L83.3879 458.214C83.2545 457.362 83.8787 455.144 83.9965 453.731L84.6411 451.172Z" fill="var(--fill-0, #9464BC)"/>
<path id="Vector_76" d="M82.9322 447.787C83.585 448.479 84.8041 449.626 85.1129 450.447L84.6411 451.173L83.9964 453.732C83.5573 454.84 83.4308 455.758 82.081 455.672C81.0439 454.873 80.4295 453.093 81.052 451.862L81.4867 451.943C81.9649 452.66 81.9806 452.716 82.6785 453.193L83.0813 452.956C83.6145 451.544 83.2519 449.244 82.9322 447.787Z" fill="var(--fill-0, #9464BC)"/>
<path id="Vector_77" d="M134.292 290.364C134.515 290.548 135.409 291.265 135.56 291.43C137.391 292.13 138.252 292.786 139.611 294.223L140.287 294.96C135.448 293.241 129.228 298.315 122.298 296.467C121.785 296.331 121.738 296.197 121.472 295.775C122.438 294.449 129.967 292.663 131.961 291.583C132.295 291.402 133.672 292.504 135.069 292.113C135.169 291.407 134.771 291.106 134.292 290.364Z" fill="var(--fill-0, #9464BC)"/>
<path id="Vector_78" d="M191.124 445.999L191.794 446.772L191.114 447.202L190.94 447.149C190.212 446.931 190.142 446.92 189.392 446.898C188.373 448.53 187.626 449.323 185.595 449.797C183.352 450.322 181.528 450.093 179.332 450.958C177.981 451.491 175.853 453.225 174.846 453.574L172.748 452.329C171.353 450.663 171.239 448.634 171.303 446.552L171.744 448.179C174.066 450.911 184.796 447.235 187.832 446.18C189.135 445.725 189.567 447.001 191.124 445.999Z" fill="var(--fill-0, #9464BC)"/>
<path id="Vector_79" d="M26.5642 450.403L27.0148 450.718C26.9363 451.296 26.7663 452.256 26.8157 452.806C22.9872 456.063 23.9118 457.695 17.782 461.711C17.7161 459.107 17.9358 456.197 18.0793 453.57C19.4506 453.428 19.8727 454.204 21.2044 453.732C21.78 452.956 21.7686 451.639 21.8749 450.606C23.5765 450.654 24.883 450.763 26.5642 450.403Z" fill="var(--fill-0, #9464BC)"/>
<path id="Vector_80" d="M139.081 360.42C139.718 359.945 141.7 358.514 141.941 357.858C140.807 356.529 141.427 356.529 141.061 355.209C140.888 354.584 137.91 354.562 137.417 353.939C141.566 353.024 140.35 355.251 142.562 357.009C143.708 355.851 142.274 349.976 147.451 351.143C148.126 352.248 147.854 355.028 147.774 356.398C146.82 356.493 146.491 357.188 145.636 357.766L145.773 357.872C146.357 358.321 146.615 358.469 147.264 358.809C147.375 359.51 147.063 359.638 146.535 360.375L145.712 360.398C144.511 360.752 141.517 360.49 140.103 360.425L139.081 360.42Z" fill="var(--fill-0, #9464BC)"/>
<path id="Vector_81" d="M140.103 360.425C142.212 358.153 142.692 359.007 145.385 357.871L145.636 357.765L145.773 357.871C146.357 358.321 146.615 358.469 147.264 358.809C147.375 359.51 147.063 359.638 146.535 360.375L145.712 360.397C144.511 360.752 141.516 360.489 140.103 360.425Z" fill="var(--fill-0, #9464BC)"/>
<path id="Vector_82" d="M139.193 277.863C142.839 278.957 143.4 281.569 140 283.822C138.392 284.885 135.264 283.665 133.67 282.574C132.482 281.46 131.514 281.661 129.859 281.645C128.116 281.391 122.426 280.246 121.144 279.323L121.341 278.988C124.853 278.167 131.242 279.655 134.994 280.364C135.285 280.419 136.46 281.19 136.767 281.399C137.756 282.08 140.767 280.832 142.032 280.422C140.889 279.512 140.23 278.898 139.193 277.863Z" fill="var(--fill-0, #9464BC)"/>
<path id="Vector_83" d="M149.02 378.056L149.42 377.495C151.346 379.401 151.554 380.632 151.318 383.286C150.125 384.913 147.311 385.689 145.307 385.661C144.828 385.616 144.351 385.496 143.879 385.396C142.656 384.24 142.715 383.501 143.717 382.119L143.769 381.868C145.084 381.301 145.65 379.99 147.363 379.395L148.09 378.631L149.02 378.056Z" fill="var(--fill-0, #9464BC)"/>
<path id="Vector_84" d="M149.019 378.056L149.42 377.495C151.346 379.401 151.554 380.632 151.318 383.286C150.34 383.649 149.666 384.02 148.662 383.85C147.808 383.286 147.687 382.423 147.35 381.396C147.255 380.833 147.334 379.987 147.363 379.395L148.089 378.631L149.019 378.056Z" fill="var(--fill-0, #9464BC)"/>
<path id="Vector_85" d="M149.019 378.056L149.42 377.495C151.346 379.401 151.554 380.632 151.318 383.286C150.34 383.649 149.667 384.02 148.662 383.85C147.808 383.286 147.687 382.423 147.35 381.396C148.912 381.957 149.354 382.449 150.679 381.36C151.083 379.914 150.464 378.566 149.019 378.056Z" fill="var(--fill-0, #9464BC)"/>
<path id="Vector_86" d="M143.717 382.119C144.74 382.205 145.036 382.175 145.83 382.844C146.424 384.167 146.128 384.527 145.307 385.66C144.828 385.616 144.351 385.496 143.879 385.395C142.656 384.24 142.715 383.5 143.717 382.119Z" fill="var(--fill-0, #9464BC)"/>
<path id="Vector_87" d="M17.7822 461.711C23.912 457.695 22.9874 456.062 26.8159 452.805C25.3425 457.916 17.7383 463.361 18.1141 465.574C19.0323 465.783 19.7663 465.66 20.706 465.585C21.3338 466.057 22.1373 465.691 22.8358 465.521C21.9935 466.93 20.1459 465.418 18.6529 466.196C18.2813 466.939 18.3545 466.615 18.4946 467.505C20.9888 469.785 24.2196 465.289 24.6381 472.429C24.3522 473.121 24.1769 473.143 23.4846 473.542C20.3053 473.687 20.1794 469.587 18.4851 468.237C17.374 466.439 17.7241 463.866 17.7822 461.711Z" fill="var(--fill-0, #9464BC)"/>
<path id="Vector_88" d="M145.489 342.7C146.827 342.222 150.101 341.285 151.464 341.67C152.965 343.104 151.335 344.793 152.305 347.416C149.719 347.341 145.48 347.693 142.452 347.681C143.499 346.523 144.944 345.761 145.554 344.67C145.626 343.707 145.69 344.084 145.028 343.155L145.949 342.97L145.489 342.7Z" fill="var(--fill-0, #9464BC)"/>
<path id="Vector_89" d="M18.0949 451.661C18.5667 449.671 18.4262 444.993 18.5295 442.805C18.8425 436.16 18.4413 426.813 19.4511 420.285C19.6864 423.179 19.5326 427.341 19.2869 430.238C19.3098 434.204 20.362 437.642 20.2205 441.65C20.1169 444.578 19.5602 446.891 19.0499 449.749C18.8997 450.589 20.0647 451.84 20.7076 452.3L21.2735 452.225C21.9427 450.693 21.6264 450.564 22.752 449.964C23.6839 449.956 25.6766 450.165 26.565 450.402C24.8838 450.762 23.5772 450.654 21.8757 450.606C21.7693 451.639 21.7808 452.956 21.2051 453.732C19.8735 454.204 19.4514 453.428 18.0801 453.57L18.0949 451.661Z" fill="var(--fill-0, #9464BC)"/>
<path id="Vector_90" d="M28.2351 456.247C29.5461 456.224 32.7498 456.135 33.6315 457.151C33.5801 458.122 33.5857 457.829 32.8919 458.753C29.8439 458.036 29.5687 458.412 27.2317 460.422C25.3604 462.029 24.2312 463.5 22.8359 465.521C22.1374 465.691 21.3339 466.057 20.7061 465.585C19.1365 464.276 20.3724 465.895 19.0651 464.957C19.299 464.661 19.5279 464.36 19.8842 464.243C21.8984 463.573 23.6368 460.221 25.2172 458.708C26.1318 457.832 27.2141 457.022 28.2351 456.247Z" fill="var(--fill-0, #9464BC)"/>
<path id="Vector_91" d="M31.1497 263.323L31.5235 263.711C31.5409 263.063 32.0509 268.09 31.8058 267.414C32.7204 269.937 34.0294 271.961 34.4903 274.919L35.1109 274.478C35.631 276.05 34.4194 276.923 35.4071 279.058C34.5852 279.351 34.5523 279.354 34.0076 280.007C33.743 281.252 33.6612 282.608 32.8728 283.482C33.5724 279.351 32.3711 276.65 31.8189 272.41C31.4529 269.393 31.2296 266.362 31.1497 263.323Z" fill="var(--fill-0, #9464BC)"/>
<path id="Vector_92" d="M173.873 377.832C175.455 385.898 172.518 402.183 172.008 410.888C171.887 412.965 171.69 421.951 171.43 423.414C170.796 424.773 171.201 427.182 170.807 429.054C170.234 422.228 171.974 410.377 171.897 403.277C171.878 401.527 172.683 402.155 172.506 401.43C172.219 400.252 171.386 399.401 171.882 398.03C173.93 396.057 173.975 383.16 173.743 379.836C173.729 379.406 173.839 378.315 173.873 377.832Z" fill="var(--fill-0, #9464BC)"/>
<path id="Vector_93" d="M145.636 357.765C146.491 357.188 146.82 356.493 147.774 356.398C148.085 357.358 148.27 358.237 148.918 358.982L149.236 358.756C149.323 358.145 149.38 357.525 149.556 356.939C149.582 357.963 149.494 361.352 149.93 361.907C151.845 360.774 151.952 360.057 151.281 358.164L151.427 357.818L152.072 358.014C152.592 359.052 152.416 359.588 152.033 360.76L151.957 360.986C151.424 361.36 150.277 362.072 149.991 362.577C149.469 363.453 147.621 364.104 147.309 365.527C147.234 365.873 146.937 365.901 146.588 366.077L146.419 365.806C146.894 364.91 147.236 364.346 147.533 363.364C146.225 363.143 145.521 363.093 144.358 362.446L145.043 362.331C145.134 361.385 145.099 361.098 145.712 360.397L146.535 360.375C147.063 359.638 147.375 359.51 147.264 358.809C146.615 358.469 146.357 358.321 145.773 357.871L145.636 357.765Z" fill="var(--fill-0, #9464BC)"/>
<path id="Vector_94" d="M146.535 360.375C147.17 360.06 147.799 359.73 148.422 359.393C149.347 360.702 149.899 361.69 148.548 362.82C147.548 363.057 146.056 362.627 145.043 362.332C145.135 361.385 145.1 361.098 145.712 360.397L146.535 360.375Z" fill="var(--fill-0, #9464BC)"/>
<path id="Vector_95" d="M136.678 339.516C139.039 339.655 139.466 338.475 141.399 338.179C141.896 338.743 141.822 339.139 141.877 339.94C142.262 340.303 142.148 340.311 142.584 340.423C143.272 342.17 143.298 341.95 145.138 341.972L143.981 342.851C142.507 342.865 132.174 340.621 130.627 339.94L135.129 339.474L136.678 339.516Z" fill="var(--fill-0, #9464BC)"/>
<path id="Vector_96" d="M134.616 310.992C136.601 312.058 137.818 312.722 139.976 313.328C136.537 315.156 131.764 320.375 129.416 321.243L129.102 321.067C129.964 320.593 137.931 314.171 138.595 313.448C137.941 312.516 135.406 313.559 134.2 313.621C130.654 313.802 126.35 313.286 122.95 313.303C123.702 313.04 124.534 313.152 125.351 313.188C129.798 313.213 130.766 313.258 134.616 310.992Z" fill="var(--fill-0, #9464BC)"/>
<path id="Vector_97" d="M148.746 366.705C149.65 367.144 149.431 366.881 149.866 367.66C149.506 369.22 147.718 369.231 147.034 370.655C143.108 371.771 140.845 372.296 139.51 376.722C139.522 376.404 139.508 375.151 139.682 374.93C141.527 372.569 143.61 370.289 145.536 367.981C145.508 368.014 148.419 366.859 148.746 366.705Z" fill="var(--fill-0, #9464BC)"/>
<path id="Vector_98" d="M36.8633 478.68C36.0333 479.559 35.3251 480.332 34.5515 481.261C33.7715 481.211 32.8376 481.041 32.1947 481.404L32.2628 482.135L32.717 482.445L32.695 482.861C31.6718 482.905 30.7128 482.847 29.6925 482.799L30.5791 482.529L30.5811 482.227C29.2237 481.211 26.4876 481.317 24.9954 480.321L25.6129 479.972C26.7324 479.969 28.0166 479.168 28.7773 479.258C30.535 479.461 32.3248 481.08 34.1788 480.539C35.2011 479.595 35.5864 479.238 36.8633 478.68Z" fill="var(--fill-0, #9464BC)"/>
<path id="Vector_99" d="M37.1028 279.912C37.4771 279.273 37.636 279.019 37.8914 278.329L37.411 277.071L37.5991 276.811C39.4283 277.646 37.9431 280.693 38.7387 282.131C39.5832 282.231 40.3387 282.136 40.7666 282.639C39.825 282.968 38.2289 283.043 37.6689 283.409C35.9629 282.15 35.5154 283.685 33.9515 282.898L33.8141 282.41L34.2477 281.79C34.3532 281.754 37.3777 280.319 37.4545 280.277L37.1028 279.912Z" fill="var(--fill-0, #9464BC)"/>
<path id="Vector_100" d="M26.4847 477.774L26.861 477.213C28.1907 477.095 31.5816 480.676 33.1628 480.082C35.2987 479.278 41.3744 475.608 43.4269 476.847C41.3015 477.436 38.8789 477.908 36.8627 478.681C35.5857 479.239 35.2005 479.596 34.1781 480.539C32.3242 481.081 30.5344 479.462 28.7767 479.258C28.016 479.169 26.7318 479.97 25.6123 479.973L25.4375 479.635C26.1486 479.016 26.1885 478.686 26.4847 477.774Z" fill="var(--fill-0, #9464BC)"/>
<path id="Vector_101" d="M137.377 333.096C139.58 333.928 140.117 336.705 142.016 336.069C143.687 335.508 143.135 335.106 145.145 335.642L144.156 336.099C143.816 337.361 144.887 336.872 143.987 337.565C142.159 337.506 140.836 336.817 139.563 337.107L139.394 336.175C138.039 335.329 137.893 336.337 136.682 335.616C136.58 334.603 136.951 334.037 137.377 333.096Z" fill="var(--fill-0, #9464BC)"/>
<path id="Vector_102" d="M82.0252 442.914C82.0107 443.936 81.8251 445.501 82.2435 446.288L82.4099 446.35L82.9328 447.787C83.2525 449.244 83.6151 451.544 83.0819 452.956L82.679 453.193C81.9811 452.716 81.9655 452.66 81.4872 451.943C81.3873 451.27 81.4035 451.468 80.8636 450.868C81.3633 448.262 81.5255 445.627 82.0252 442.914Z" fill="var(--fill-0, #9464BC)"/>
<path id="Vector_103" d="M135.129 339.474C137.261 337.199 134.827 335.787 135.861 333.861C136.727 333.124 136.325 333.303 137.377 333.096C136.951 334.037 136.58 334.603 136.681 335.616C137.893 336.337 138.039 335.329 139.393 336.175L139.562 337.107C137.875 337.537 137.633 337.252 137.15 339.13L136.678 339.515L135.129 339.474Z" fill="var(--fill-0, #9464BC)"/>
<path id="Vector_104" d="M150.939 392.521C151.023 391.863 151.634 390.755 151.626 390.353C151.601 389.035 149.334 389.443 148.658 387.174C149.225 386.069 149.931 386.133 151.373 385.611C151.879 385.03 152.064 384.478 152.376 383.775C152.591 387.059 151.299 385.728 150.737 388.271C151.651 389.655 152 389.303 152.337 390.668C152.107 391.413 151.654 392.153 150.939 392.521Z" fill="var(--fill-0, #9464BC)"/>
<path id="Vector_105" d="M19.4965 476.196C19.8164 475.024 19.858 474.845 20.5789 473.849C21.4745 473.467 21.0925 473.489 22.0135 473.748C22.8315 474.435 22.8946 474.547 23.2427 475.56C23.0607 476.408 23.2218 476.096 22.518 476.712L20.7394 477.017L20.2162 477.84L19.4965 476.196Z" fill="var(--fill-0, #9464BC)"/>
<path id="Vector_106" d="M25.4372 479.636C24.5003 479.323 22.6698 479.234 22.1419 478.703C22.4654 478.075 22.5536 477.774 22.7711 477.093C24.2742 475.938 25.2016 476.764 26.4844 477.774C26.1882 478.687 26.1483 479.016 25.4372 479.636Z" fill="var(--fill-0, #9464BC)"/>
<path id="Vector_107" d="M68.4293 360.674C70.967 359.17 75.0594 363.911 76.3657 365.661C77.3132 369.343 78.0195 370.601 78.2914 374.657C77.3816 373.286 76.9059 372.078 76.2565 370.585C71.4958 368.17 66.1013 365.552 60.8964 364.509C62.897 364.606 62.8473 364.659 64.1245 363.205C65.8062 361.291 68.3129 361.453 70.6451 361.419L70.3836 361.056C69.6767 361.014 69.1105 360.841 68.4293 360.674Z" fill="var(--fill-0, #9464BC)"/>
<path id="Vector_108" d="M95.1221 369.454C99.4987 369.353 97.0643 370.626 99.7739 372.172C101.359 372.25 102.256 372.49 103.717 371.815L103.769 372.234L103.287 372.454C103.531 372.808 103.56 372.834 103.918 373.048L104.208 373.216C104.196 374.483 103.187 374.542 103.081 375.619L103.655 375.474L103.737 375.839C102.829 377.277 102.837 377.799 101.092 377.829C100.027 376.964 99.2145 375.122 98.5827 374.715C97.035 373.716 94.7572 373.559 93.6866 371.806C93.6894 371.209 94.7081 370.018 95.1221 369.454Z" fill="var(--fill-0, #9464BC)"/>
<path id="Vector_109" d="M150.284 401.326C151.242 402.322 150.853 405.708 150.824 407.332C148.433 410.226 148.345 411.605 144.243 411.524C143.688 410.857 143.608 410.821 143.451 409.998C144.895 408.231 149.041 402.434 150.284 401.326Z" fill="var(--fill-0, #9464BC)"/>
<path id="Vector_110" d="M68.4297 360.673L68.205 360.721C67.5693 360.852 67.3225 360.924 66.6721 360.899C65.2301 360.844 63.1129 362.309 61.7514 361.614L61.9125 361.832L62.5065 361.918L62.4476 361C65.5626 359.523 70.2204 360.115 71.0065 359.722C71.7017 359.373 71.9144 357.185 73.0788 356.649C74.6299 357.667 75.8811 363.732 76.3661 365.661C75.0598 363.911 70.9674 359.169 68.4297 360.673Z" fill="var(--fill-0, #9464BC)"/>
<path id="Vector_111" d="M164.194 429.529L164.83 429.914C165.38 430.869 166.967 436.015 166.029 436.272C163.57 436.945 160.099 441.851 158.599 441.988L158.181 441.603C157.813 440.124 158.979 435.611 161.075 436.32L161.17 436.775C160.675 436.992 160.176 437.199 159.673 437.397C159.332 439.309 158.541 439.231 158.541 441.184L158.804 441.366C159.675 441.006 160.462 440.065 161.158 439.365C162.026 438.494 162.99 437.603 163.885 436.749C163.308 436.147 163.032 435.982 162.876 435.203C163.279 434.639 163.329 434.651 163.891 434.285L164.744 434.556C164.814 434.935 164.804 435.114 164.715 435.491L165.639 435.505C166.249 434.36 165.223 430.554 164.181 429.976C161.838 430.925 164.833 433.386 162.571 434.171C161.572 433.908 160.261 433.942 159.833 433.688C160.558 433.099 160.223 433.266 161.148 433.118C161.778 433.52 161.806 433.551 162.529 433.682C162.486 432.728 162.336 431.943 162.785 431.078L161.411 430.623L161.165 430.986L160.967 430.914C162.143 431.168 163.185 430.498 163.987 429.73L164.194 429.529Z" fill="var(--fill-0, #9464BC)"/>
<path id="Vector_112" d="M161.157 420.576C162.597 420.709 163.314 422.108 162.678 423.291C161.539 423.833 159.176 423.313 157.736 423.445C156.846 423.481 155.802 423.643 155.21 422.912C156.14 421.536 159.152 422.197 160.954 420.743L161.157 420.576Z" fill="var(--fill-0, #9464BC)"/>
<path id="Vector_113" d="M70.4756 309.711C73.3715 309.77 73.9455 313.789 72.9036 315.179L72.9293 314.542L72.6029 313.571C71.5856 312.753 69.9421 313.487 68.4324 312.809L68.4192 312.273C69.2068 310.99 69.3958 310.763 70.4756 309.711Z" fill="var(--fill-0, #9464BC)"/>
<path id="Vector_114" d="M158.791 412.049C159.214 412.152 159.44 412.3 159.827 412.501C160.629 414.184 161.56 416.037 160.148 417.53C157.875 416.219 156.911 414.173 158.791 412.049Z" fill="var(--fill-0, #9464BC)"/>
<path id="Vector_115" d="M44.7845 274.64C46.256 276.323 45.5508 278.128 43.7032 279.153C43.2694 278.809 43.2507 278.734 42.9433 278.29C43.0882 277.344 44.2331 275.644 44.7845 274.64Z" fill="var(--fill-0, #9464BC)"/>
<path id="Vector_116" d="M162.964 441.408C164.607 441.349 166.902 440.886 168.069 442.153L167.804 442.619C166.69 443.295 164.828 443.233 163.465 443.306L163.329 443.281C164.07 442.527 165.68 443.306 165.892 441.615C164.871 441.444 163.047 441.855 161.944 442.042L161.82 441.916L162.964 441.408Z" fill="var(--fill-0, #9464BC)"/>
<path id="Vector_117" d="M163.218 425.423C163.728 426.004 164.013 426.579 163.93 427.321C163.151 428.019 162.148 428.053 161.069 428.245L160.43 428.181L160.262 427.832C160.848 426.97 162.305 426.068 163.218 425.423Z" fill="var(--fill-0, #9464BC)"/>
<path id="Vector_118" d="M137.921 328.064C139.099 328.51 138.914 328.234 139.454 329.099C139.53 330.073 139.265 330.556 138.932 331.471C137.782 331.329 138.054 331.519 137.236 330.897C137.002 329.959 137.539 329.027 137.921 328.064Z" fill="var(--fill-0, #9464BC)"/>
<path id="Vector_119" d="M173.903 456.953C174.794 457.075 174.891 457.55 175.02 458.245C174.414 459.626 174.791 459.138 173.541 460.067C172.751 459.308 172.614 459.403 172.309 458.421C172.624 457.589 173.118 457.424 173.903 456.953Z" fill="var(--fill-0, #9464BC)"/>
<path id="Vector_120" d="M76.1069 451.622C77.3721 451.667 77.6535 451.469 78.5951 452.077C78.6437 453.021 78.6233 452.736 78.1096 453.691C77.1085 453.643 76.632 453.716 75.7928 453.18C75.5759 452.259 75.5686 452.636 76.1069 451.622Z" fill="var(--fill-0, #9464BC)"/>
<path id="Vector_121" d="M159.505 359.141C161.01 359.875 161.045 362.395 160.339 363.752C158.521 362.152 160.819 362.214 159.505 359.141Z" fill="var(--fill-0, #9464BC)"/>
<path id="Vector_122" d="M110.329 288.03C111.059 288.287 111.087 288.296 111.65 288.809C111.91 289.741 111.517 290.392 111.153 291.338C111.023 291.474 110.921 291.461 110.687 291.533C110.23 290.433 110.332 289.236 110.329 288.03Z" fill="var(--fill-0, #9464BC)"/>
<path id="Vector_123" d="M62.9025 67.9446C65.5278 68.8368 66.2559 66.9515 68.8338 66.9312C74.4309 66.8862 80.1777 66.7397 85.7087 67.7056C87.4959 68.018 88.9982 68.7031 90.7865 69.1095C92.5361 69.8078 96.7798 69.6685 98.9515 69.8898C99.0313 69.57 98.9934 69.6641 98.8895 69.294C98.5579 68.743 98.5084 68.7511 98.5445 68.0888L99.3976 67.3855C102.061 68.5856 103.543 68.7634 106.384 69.1522C107.797 69.4801 108.097 69.6688 109.378 70.3635C110.115 70.659 110.321 71.2708 110.736 72.0018C111.341 72.8773 111.776 73.5641 112.312 74.484C114.357 76.7123 115.203 77.9825 117.935 79.261C118.72 80.3205 119.517 80.856 120.696 81.4338C120.089 81.6436 119.602 81.6598 119.043 81.9607C122.407 82.2722 124.291 85.3112 125.865 84.5108L127.062 85.6288C131.287 88.297 134.871 99.0569 135.171 103.908C135.884 106.862 136.214 115.111 136.277 118.463C136.851 122.29 136.856 129.212 135.481 132.957C135.199 138.099 135.535 145.119 137.731 149.836C139.042 152.654 140.121 153.568 141.148 156.873C144.597 164.924 141.375 163.521 138.759 170.682C140.256 177.416 138.984 178.476 136.302 184.392C134.168 189.098 132.138 190.97 129.475 194.994L129.024 195.163C129.424 195.975 130.412 197.136 130.56 197.573C131.838 201.367 131.382 206.7 130.928 210.571L130.797 210.734C128.853 213.181 130.873 212.988 130.865 215.782L130.935 216.677C130.455 218.995 129.837 221.539 129.754 223.889C129.669 225.67 129.43 226.251 128.856 227.966C128.384 228.784 128.014 229.595 127.295 230.178C126.649 231.252 126.62 231.411 126.454 232.631C127.147 235.826 128.027 238.979 129.088 242.072L129.644 242.932L130.114 243.71C129.136 244.699 129.165 244.652 129.252 246.111C127.899 246.449 125.617 247.289 125.243 245.461C124.126 245.718 121.876 246.301 120.803 246.34C118.626 246.79 112.269 247.886 110.587 248.498C105.725 249.053 100.701 248.849 95.8259 249.14C73.2104 250.474 51.759 246.136 33.4129 231.897C33.414 230.746 33.8224 229.185 33.9249 227.92C34.1616 224.998 31.6019 221.222 30.2136 218.754C29.7021 217.845 29.091 217.775 28.1125 217.551L27.1122 217.034C26.9288 216.548 23.0402 211.522 22.4135 210.645L17.88 210.646C17.2837 206.107 18.0288 202.185 18.3197 197.549C15.746 192.433 10.8245 191.63 7.44312 186.371C2.0322 177.957 4.34654 175.38 5.43112 167.16C6.76808 157.082 8.43307 145.597 12.2644 136.151C15.9113 127.161 19.562 122.905 20.5374 112.783C21.2116 105.785 26.0952 96.3131 32.0877 92.1524C35.2686 89.6277 39.0139 87.0198 42.2978 84.5847C44.9198 82.6403 49.0293 79.5167 51.8009 78.0824C56.6674 74.1932 58.8338 72.6827 62.9025 67.9446Z" fill="var(--fill-0, #9464BC)"/>
<path id="Vector_124" d="M119.043 81.9597C122.407 82.2712 124.29 85.3103 125.865 84.5098L127.062 85.6279C131.287 88.296 134.871 99.056 135.171 103.907C135.884 106.861 136.214 115.11 136.277 118.462C136.851 122.289 136.856 129.211 135.481 132.956C135.199 138.098 135.534 145.118 137.73 149.835C139.042 152.653 140.12 153.567 141.148 156.872C141.229 158.098 141.546 159.809 141.124 160.818C139.441 162.709 135.419 161.182 135.345 158.295C134.768 157.043 134.409 155.302 134.072 153.932C129.719 147.277 128.656 130.218 126.615 121.971C125.502 117.473 125.644 102.206 123.471 98.8572C123.036 97.8879 123.083 97.169 122.33 96.3049C119.811 93.4135 117.79 90.4741 117.369 86.5578C117.287 85.7923 116.757 83.6829 116.447 83.0242C117.799 82.8579 117.997 82.7334 119.043 81.9597Z" fill="var(--fill-0, #9464BC)"/>
<path id="Vector_125" d="M119.043 81.9597C122.407 82.2712 124.29 85.3103 125.865 84.5098L127.062 85.6279C131.287 88.296 134.871 99.056 135.171 103.907C135.884 106.861 136.214 115.11 136.277 118.462C135.23 117.706 134.245 113.928 133.615 112.419C132.615 110.022 131.401 108.13 130.26 105.857C129.575 105.429 129.51 105.351 129.065 104.675C127.432 102.441 127.037 100.478 124.564 97.4941C124.712 99.4146 125.368 101.088 125.508 103.019C124.496 101.965 124.346 97.1283 123.386 96.3451C123.128 97.2095 123.334 97.9477 123.471 98.8572C123.036 97.8879 123.083 97.169 122.33 96.3049C119.811 93.4135 117.79 90.4741 117.369 86.5578C117.287 85.7923 116.757 83.6829 116.447 83.0242C117.799 82.8579 117.997 82.7334 119.043 81.9597Z" fill="var(--fill-0, #9464BC)"/>
<path id="Vector_126" d="M127.062 85.6282C131.287 88.2963 134.872 99.0562 135.172 103.907C133.074 101.426 125.372 88.8484 124.9 86.133C125.358 85.6187 126.185 85.7211 127.062 85.6282Z" fill="var(--fill-0, #9464BC)"/>
<path id="Vector_127" d="M129.066 104.675L129.432 104.449C129.302 102.735 128.981 100.926 128.907 99.3096L129.077 99.1745C129.548 101.266 132.505 102.142 131.695 103.728C130.775 103.576 130.257 103.179 129.79 103.503C129.801 104.504 129.972 104.924 130.261 105.857C129.576 105.429 129.511 105.351 129.066 104.675Z" fill="var(--fill-0, #9464BC)"/>
<path id="Vector_128" d="M124.564 97.4945C127.037 100.478 127.432 102.441 129.065 104.675C129.51 105.352 129.576 105.429 130.261 105.858C131.402 108.131 132.615 110.023 133.615 112.419C134.245 113.928 135.231 117.706 136.277 118.462C136.851 122.289 136.856 129.212 135.481 132.956C134.647 131.396 132.741 124.401 132.082 122.319C129.974 115.858 127.783 109.424 125.508 103.019C125.368 101.089 124.712 99.415 124.564 97.4945Z" fill="var(--fill-0, #9464BC)"/>
<path id="Vector_129" d="M134.073 153.932C135.527 153.479 135.781 154.245 136.647 155.355C137.845 155.442 137.756 154.249 138.632 155.203C139.179 155.966 139.833 156.816 140.276 157.631C140.482 158.599 140.627 158.971 140.317 159.939C138.644 161.383 136.563 159.532 135.346 158.295C134.769 157.043 134.409 155.302 134.073 153.932Z" fill="var(--fill-0, #9464BC)"/>
<path id="Vector_130" d="M140.276 157.631C139.663 158.763 139.952 158.635 138.958 159.107C137.431 158.708 136.961 157.796 137.3 156.219C137.924 155.364 137.592 155.645 138.632 155.203C139.179 155.967 139.833 156.816 140.276 157.631Z" fill="var(--fill-0, #9464BC)"/>
<path id="Vector_131" d="M99.3978 67.3852C102.061 68.5853 103.544 68.7631 106.384 69.1518C107.797 69.4798 108.098 69.6684 109.378 70.3631C110.115 70.6587 110.321 71.2704 110.736 72.0014C111.341 72.8769 111.776 73.5638 112.312 74.4837C114.357 76.712 115.203 77.9821 117.935 79.2607C118.72 80.3201 119.518 80.8557 120.696 81.4334C120.09 81.6433 119.602 81.6595 119.043 81.9603C117.997 82.734 117.799 82.8585 116.447 83.0248C115.544 82.8956 115.444 82.8509 114.57 83.0287C113.193 84.3393 109.284 86.5894 107.578 86.6313C102.132 86.7652 103.032 89.209 99.4855 92.1074L99.2769 92.0164C100.676 89.6753 105.953 85.4451 104.806 82.3698C104.293 82.1457 103.29 82.3257 102.682 82.384C99.8464 80.9592 94.3244 78.4895 91.9235 76.5523C91.1435 75.923 91.3423 72.9238 90.411 72.2685C90.1346 72.0742 89.7309 72.381 88.9919 71.683C89.2742 70.6003 90.1985 70.2504 90.7867 69.1091C92.5363 69.8074 96.78 69.6682 98.9517 69.8895C99.0315 69.5696 98.9936 69.6637 98.8897 69.2936C98.558 68.7427 98.5086 68.7508 98.5446 68.0885L99.3978 67.3852Z" fill="var(--fill-0, #9464BC)"/>
<path id="Vector_132" d="M99.3979 67.3852C102.061 68.5853 103.544 68.7631 106.384 69.1518C107.797 69.4798 108.098 69.6684 109.378 70.3631C110.115 70.6587 110.321 71.2704 110.736 72.0014C109.117 71.8747 108.474 71.1962 106.767 71.4108C106.405 71.7109 106.357 71.6891 106.105 72.0659C104.023 70.6905 101.187 71.2093 98.9518 69.8895C99.0316 69.5696 98.9936 69.6637 98.8898 69.2936C98.5581 68.7427 98.5087 68.7508 98.5447 68.0885L99.3979 67.3852Z" fill="var(--fill-0, white)"/>
<path id="Vector_133" d="M106.105 72.0653C106.357 71.6886 106.405 71.7103 106.767 71.4103C108.473 71.1957 109.117 71.8742 110.736 72.0009C111.341 72.8764 111.776 73.5632 112.312 74.4831L111.554 75.3693C109.657 75.4058 107.585 73.2992 106.105 72.0653Z" fill="var(--fill-0, white)"/>
<path id="Vector_134" d="M116.527 202.362C119.186 202.674 121.732 202.621 123.831 204.216C125.076 206.739 129.316 208.834 127.268 212.567C126.013 212.886 124.996 211.286 124.194 210.372C124.263 210.834 124.309 211.295 124.456 211.736C123.862 211.259 123.761 211.24 123.042 210.953L122.716 211.204C122.888 212.976 124.11 215.013 123.038 216.35C120.953 215.196 117.095 205.033 116.527 202.362Z" fill="var(--fill-0, #9464BC)"/>
<path id="Vector_135" d="M51.8004 78.0821L51.8917 78.5465C51.3995 78.7966 51.1859 78.8856 50.8688 79.3702C50.7451 81.0361 51.0078 82.6515 49.5282 83.6897C45.708 86.371 41.5835 89.5298 37.2122 91.1923C36.923 91.3026 32.2027 92.1694 32.0872 92.1521C35.2681 89.6274 39.0134 87.0196 42.2973 84.5845C44.9193 82.64 49.0288 79.5164 51.8004 78.0821Z" fill="var(--fill-0, #9464BC)"/>
<path id="Vector_136" d="M124.911 232.994C125.388 232.321 125.503 231.867 126.135 231.756L126.454 232.63C127.148 235.826 128.027 238.978 129.088 242.072L129.644 242.932L130.114 243.71C129.136 244.699 129.165 244.651 129.252 246.111C127.899 246.448 125.617 247.289 125.243 245.46C124.126 245.717 121.876 246.301 120.803 246.34C121.437 245.625 124.287 244.902 125.362 244.545C124.723 243.685 123.12 244.693 122.105 243.706C122.552 243.327 123.529 243.471 124.266 243.462C125.322 244.032 126.428 243.676 127.125 242.757C127.202 241.946 127.29 242.316 126.813 241.619L125.978 241.899C125.445 241.364 124.165 237.081 123.834 236.071L124.911 232.994Z" fill="var(--fill-0, #9464BC)"/>
<path id="Vector_137" d="M124.911 232.994C125.388 232.321 125.503 231.867 126.136 231.756L126.455 232.63C127.148 235.826 128.028 238.978 129.088 242.072C126.255 241.742 125.255 235.304 124.911 232.994Z" fill="var(--fill-0, #9464BC)"/>
<path id="Vector_138" d="M129.644 242.931L130.113 243.709C129.136 244.698 129.165 244.651 129.252 246.111C127.898 246.448 125.617 247.288 125.243 245.46C127.433 244.877 128.461 244.838 129.644 242.931Z" fill="var(--fill-0, #9464BC)"/>
<path id="Vector_139" d="M123.831 204.216C125.82 204.838 125.763 207.139 128.451 207.984L128.577 208.365C127.964 208.304 128.188 208.218 127.715 208.428L127.808 208.638C128.666 210.616 129.213 214.785 130.503 215.926L130.865 215.781L130.935 216.677C130.455 218.995 129.838 221.538 129.754 223.889C128.96 223.5 128.523 223.062 127.856 222.491C126.979 219.381 130.491 219.408 125.671 214.776L125.09 217.21C125.348 218.191 125.652 218.495 126.242 219.307L125.864 219.473C123.17 218.689 124.862 216.007 124.828 214.09C124.816 213.348 124.616 212.467 124.456 211.735C124.309 211.295 124.262 210.834 124.194 210.372C124.996 211.286 126.013 212.886 127.268 212.567C129.316 208.834 125.076 206.739 123.831 204.216Z" fill="var(--fill-0, #9464BC)"/>
<path id="Vector_140" d="M122.113 234.72C124.558 232.316 124.324 230.665 127.295 230.178C126.649 231.252 126.62 231.41 126.454 232.63L126.135 231.756C125.503 231.867 125.388 232.321 124.911 232.994L123.834 236.071C124.165 237.081 125.445 241.364 125.978 241.899L126.813 241.619C127.29 242.316 127.202 241.946 127.125 242.757C126.428 243.676 125.322 244.032 124.266 243.462C124.46 241.342 123.941 240.413 122.969 238.568C122.506 239.652 122.911 239.553 122.126 240.075C121.711 239.333 122.066 235.973 122.113 234.72Z" fill="var(--fill-0, #9464BC)"/>
<path id="Vector_141" d="M124.15 225.106L124.232 224.478C123.874 224.129 123.509 223.787 123.138 223.453C123.748 223.397 125.065 224.369 125.755 224.691C127.579 225.543 128.541 225.854 128.857 227.965C127.003 228.132 125.174 226.65 123.694 225.441C123.309 225.122 122.938 224.787 122.583 224.435L122.617 224.24C123.12 224.519 123.664 224.806 124.15 225.106Z" fill="var(--fill-0, #9464BC)"/>
<path id="Vector_142" d="M132.216 172.584C133.844 172.458 136.173 172.628 137.856 172.702C136.435 174.869 134.445 177.443 132.885 179.553C132.638 179.898 132.386 180.238 132.129 180.574C131.566 181.299 131.284 181.638 130.439 181.741C130.036 180.705 131.735 173.817 132.216 172.584Z" fill="var(--fill-0, #9464BC)"/>
<path id="Vector_143" d="M125.442 201.737C127.93 203.527 130.061 203.753 129.369 207.1C127.206 206.846 123.907 204.358 125.442 201.737Z" fill="var(--fill-0, #9464BC)"/>
<path id="Vector_144" d="M121.894 192.25C122.877 192.763 124.114 193.264 124.708 194.125C124.605 195.016 124.318 195.022 123.544 195.773C122.751 196.44 123.09 196.339 122.165 196.443L121.646 195.983C121.141 194.43 121.391 193.713 121.894 192.25Z" fill="var(--fill-0, #9464BC)"/>
<path id="Vector_145" d="M99.2242 7.29192C98.6332 6.05469 97.6977 4.35668 97.5475 3.04828L97.906 3C99.1653 4.03153 99.5386 4.57772 100.535 5.89086C103.86 7.15572 106.583 7.26596 109.325 7.95114C110.862 8.33517 115.87 14.1158 117.857 14.8766C117.862 16.3206 117.655 16.0435 118.349 17.1135C120.896 18.6692 125.467 22.25 126.078 25.4211C127.097 30.7166 127.204 38.4054 122.728 42.2876C122.075 42.8544 119.696 44.4986 118.958 44.7154L118.113 46.1087L117.914 47.3964C117.397 51.8438 113.098 62.1192 110.343 65.8061C109.393 67.6986 108.58 68.2426 109.378 70.3628C108.098 69.6682 107.797 69.4795 106.384 69.1516C103.544 68.7628 102.061 68.585 99.3979 67.3849L98.5447 68.0882C98.5087 68.7505 98.5581 68.7424 98.8898 69.2934C98.9936 69.6634 99.0316 69.5694 98.9518 69.8892C96.7801 69.6679 92.5364 69.8072 90.7868 69.1089C88.9984 68.7025 87.4962 68.0173 85.7089 67.705C80.178 66.7391 74.4312 66.8856 68.834 66.9305C66.2562 66.9509 65.5281 68.8362 62.9027 67.9439C64.3731 66.6104 66.7054 64.8892 67.9055 63.5984C70.0842 61.2554 71.1057 59.9286 73.597 57.853C73.5995 57.3542 73.4192 56.9052 73.2709 56.4232C71.4907 55.0408 65.463 60.3199 62.5507 55.4363C59.0931 49.639 59.1934 41.8997 59.1643 35.3362C59.1574 33.7412 56.9307 33.3183 59.0094 31.3719C59.3154 31.0859 59.1576 27.1794 59.3497 26.5422C59.8193 24.0895 61.6506 22.4392 63.2749 20.6385C65.0722 18.646 67.1166 16.4298 69.2804 14.8152C69.0923 15.4457 69.142 15.5849 69.2098 16.221L69.6364 16.5132C71.3756 16.1713 77.3142 11.9469 78.4834 10.6288L79.8318 9.39461C82.2835 10.1789 83.2441 8.82693 83.7285 6.67037L83.693 6.36811C84.9688 5.2001 86.0219 4.79765 87.6461 4.37063L87.9814 4.71364L87.8111 4.8437C88.8061 5.31564 90.4822 4.28691 91.1196 4.8063C92.6899 6.08567 92.9172 6.81801 95.1352 5.00362C96.3343 5.05302 97.7477 6.53082 99.2242 7.29192ZM120.603 29.7568L121.671 29.8093C122.432 30.7741 121.832 31.0521 123.073 32.2251L123.738 32.4015C125.96 30.915 124.69 26.8844 121.959 26.2561C123.32 27.6351 124.165 28.7671 123.206 30.8344C121.276 29.2193 120.826 29.4456 118.348 29.0962L118.437 29.3781C119.341 29.7303 119.625 29.7108 120.603 29.7568Z" fill="var(--fill-0, #9464BC)"/>
<path id="Vector_146" d="M108.137 56.3739C109.797 55.4579 113.891 51.7934 114.59 50.151C115.529 47.9453 113.785 46.6213 118.113 46.1088L117.914 47.3966C117.397 51.844 113.098 62.1194 110.343 65.8062C109.393 67.6988 108.58 68.2427 109.378 70.363C108.098 69.6683 107.797 69.4797 106.384 69.1517C103.543 68.763 102.061 68.5852 99.3977 67.3851L98.5445 68.0884C98.5085 68.7507 98.5579 68.7426 98.8896 69.2935C98.9934 69.6636 99.0314 69.5695 98.9516 69.8894C96.7799 69.6681 92.5362 69.8073 90.7866 69.109C88.9982 68.7027 87.496 68.0175 85.7087 67.7052C80.1778 66.7392 74.431 66.8858 68.8338 66.9307C66.256 66.9511 65.5279 68.8364 62.9025 67.9441C64.3729 66.6106 66.7052 64.8894 67.9053 63.5986C70.084 61.2556 71.1055 59.9288 73.5968 57.8531C75.2473 58.5001 80.8235 57.5612 83.3838 57.6265C87.2456 57.725 97.941 59.9223 101.058 59.4451C101.811 58.7521 101.902 57.7513 102.157 56.7016C104.934 55.8085 105.283 55.9874 108.137 56.3739Z" fill="var(--fill-0, white)"/>
<path id="Vector_147" d="M108.137 56.3739C109.796 55.4579 113.891 51.7934 114.59 50.151C115.529 47.9453 113.784 46.6213 118.112 46.1088L117.913 47.3966C117.397 51.844 113.098 62.1194 110.343 65.8062C109.393 67.6988 108.58 68.2427 109.378 70.363C108.097 69.6683 107.797 69.4797 106.384 69.1517C106.835 68.9968 106.714 69.0245 107.106 68.7085C106.992 67.3982 105.443 67.0485 105.322 65.7024C103.842 64.4325 102.944 63.5562 101.609 62.171L101.046 61.7278L101.005 61.0887C101.846 59.4803 103.441 56.6687 105.55 56.6388C106.627 56.6234 107.099 56.8333 108.137 56.3739Z" fill="var(--fill-0, white)"/>
<path id="Vector_148" d="M110.343 65.8062C110.315 65.7632 112.81 53.125 113.99 52.2358C115.161 51.3536 115.604 46.7675 117.914 47.3966C117.397 51.8439 113.098 62.1194 110.343 65.8062Z" fill="var(--fill-0, white)"/>
<path id="Vector_149" d="M101.61 62.1708C102.019 60.9581 106.408 57.5161 107.835 57.5496C108.367 58.993 106.138 64.3701 105.322 65.7022C103.842 64.4323 102.944 63.5559 101.61 62.1708Z" fill="var(--fill-0, white)"/>
<path id="Vector_150" d="M98.8894 69.2932C97.5865 68.5609 95.3814 68.1302 94.7993 67.3781L94.9696 66.936C96.6993 65.9234 97.9068 66.2201 99.3975 67.3848L98.5444 68.0881C98.5084 68.7504 98.5578 68.7423 98.8894 69.2932Z" fill="var(--fill-0, white)"/>
<path id="Vector_151" d="M108.138 56.3737C109.882 54.2649 107.898 52.1309 109.54 50.0388L109.988 50.002C110.422 50.8175 110.605 51.2646 111.299 51.9051C112.57 52.1008 113.685 51.5644 113.954 50.235C113.257 49.5088 113.412 49.7243 112.316 49.3891L112.3 49.2102L113.635 49.1555C114.099 46.381 116.338 45.1848 118.959 44.7154L118.113 46.1086C113.785 46.621 115.53 47.9451 114.59 50.1507C113.891 51.7932 109.797 55.4577 108.138 56.3737Z" fill="var(--fill-0, white)"/>
<path id="Vector_152" d="M121.958 26.2563C124.69 26.8845 125.96 30.9152 123.737 32.4017L123.073 32.2253C121.832 31.0522 122.432 30.7743 121.671 29.8094L120.603 29.757C119.624 29.7109 119.341 29.7305 118.437 29.3782L118.348 29.0963C120.826 29.4458 121.275 29.2194 123.206 30.8345C124.165 28.7673 123.32 27.6353 121.958 26.2563Z" fill="var(--fill-0, #9464BC)"/>
<path id="Vector_153" d="M113.622 22.2712C115.901 23.0873 115.443 25.3664 114.793 27.1004C113.997 27.1367 114.366 27.2229 113.66 26.7998C113.131 25.6458 113.503 23.6167 113.622 22.2712Z" fill="var(--fill-0, #9464BC)"/>
<path id="Vector_154" d="M43.427 476.847C47.2165 476.732 60.2296 471.206 64.37 469.492C66.1294 468.764 70.3558 467.662 71.6916 467.006C74.6654 465.543 74.7201 464.82 78.2801 463.551C78.6843 462.582 78.6338 461.198 78.6693 460.107L78.9895 460.305C78.8943 460.885 78.9643 461.276 79.0193 461.856C78.9149 462.685 78.8828 462.736 79.1941 463.484L79.2653 463.704C76.5738 464.787 75.2363 465.672 72.767 467.193C71.26 467.843 70.1827 468.251 68.6215 468.756C62.9471 470.712 60.7941 472.875 55.9725 476.16C52.334 478.638 47.1657 479.557 42.9742 480.575C39.4427 481.441 36.7936 482.724 33.0169 482.964L32.6945 482.861L32.7166 482.445L32.2624 482.135L32.1942 481.404C32.8372 481.041 33.771 481.212 34.551 481.262C35.3246 480.333 36.0329 479.559 36.8628 478.68C38.879 477.907 41.3017 477.436 43.427 476.847Z" fill="var(--fill-0, #9464BC)"/>
<path id="Vector_155" d="M173.519 487.274L173.597 487.634C170.115 488.806 165.236 489.933 161.504 490.639C161.428 490.754 161.351 490.871 161.275 490.988C162.236 492.654 164.182 493.201 164.173 494.614C163.463 495.085 162.73 495.351 162.597 495.99C163.219 496.185 164.613 495.175 164.935 494.65L166.975 494.619C165.627 495.208 163.726 496.392 162.557 496.595C161.294 495.945 162.116 494.851 161.082 495.144C160.128 495.415 159.364 497.151 158.349 497.159C157.242 497.167 153.04 495.339 152.221 494.831C152.881 494.279 157.132 492.013 158.767 490.868C163.755 489.646 168.522 488.616 173.519 487.274Z" fill="var(--fill-0, #9464BC)"/>
<path id="Vector_156" d="M17.8802 210.645L22.4137 210.644C23.0404 211.521 26.929 216.547 27.1125 217.033C23.5226 215.727 19.2188 214.48 17.8802 210.645Z" fill="var(--fill-0, #9464BC)"/>
<path id="Vector_157" d="M69.28 14.8151C70.5432 14.3378 76.3961 10.3398 76.9137 8.93177C77.1122 8.39144 77.3528 8.14556 77.8101 7.62449C78.4877 7.88796 77.8065 9.42326 78.4829 10.6287C77.3137 11.9468 71.3752 16.1712 69.6359 16.5131L69.2093 16.2209C69.1415 15.5848 69.0918 15.4456 69.28 14.8151Z" fill="var(--fill-0, #9464BC)"/>
<path id="Vector_158" d="M85.432 454.957C86.3184 454.318 87.0333 453.643 88.0805 453.514C89.1559 454.114 89.1983 455.061 89.4753 456.213C88.3212 456.813 86.8834 457.659 85.6442 457.896L85.4292 457.796C84.7765 457.505 84.6227 457.366 83.9512 457.444L83.7433 457.612C83.9398 456.347 84.4415 455.73 85.432 454.957Z" fill="var(--fill-0, #9464BC)"/>
<path id="Vector_159" d="M91.574 450.445L91.9576 450.121C92.7831 450.86 92.1262 451.499 92.9894 452.468C91.1563 453.88 90.775 454.316 89.4746 456.213C89.1977 455.061 89.1552 454.115 88.0799 453.515C87.0327 453.643 86.3177 454.318 85.4314 454.957C88.0827 450.88 88.1762 453.688 91.574 450.445Z" fill="var(--fill-0, #9464BC)"/>
<path id="Vector_160" d="M130.865 215.781C130.873 212.987 128.853 213.181 130.797 210.733L130.928 210.571C131.382 206.699 131.838 201.366 130.56 197.572C130.412 197.135 129.424 195.974 129.024 195.163L129.476 194.994C132.363 198.753 131.873 202.317 131.821 206.874C131.788 209.829 131.729 213.847 130.935 216.676L130.865 215.781Z" fill="var(--fill-0, #9464BC)"/>
<path id="Vector_161" d="M208.464 487.182C208.58 486.668 209.146 486.107 209.512 485.667L209.303 485.672C210.44 484.419 219.616 478.404 221.255 477.631C220.227 479.448 210.725 486.219 208.464 487.182Z" fill="var(--fill-0, #9464BC)"/>
<path id="Vector_162" d="M164.935 494.65L164.414 494.036C164.481 492.967 164.33 493.374 165.008 492.512C167.03 491.513 169.42 491.323 170.616 493.486C169.061 493.72 168.448 494.013 166.975 494.619L164.935 494.65Z" fill="var(--fill-0, #9464BC)"/>
<path id="Vector_163" d="M89.2546 371.343C90.1103 370.899 89.9171 370.818 90.6306 370.991C90.8942 371.965 90.8088 372.529 90.971 373.177C90.8233 375.183 90.7055 377.193 90.4213 379.183C90.2937 378.05 90.5125 377.718 90.0985 376.526C89.3601 376.353 89.6122 376.395 88.7356 376.919L88.6683 375.73C88.7535 374.547 89.0871 372.579 89.2546 371.343Z" fill="var(--fill-0, #9464BC)"/>
<path id="Vector_164" d="M87.646 4.37111C90.8353 3.78919 92.2535 3.27677 95.1351 5.00409C92.9171 6.81849 92.6898 6.08615 91.1195 4.80678C90.4821 4.28738 88.806 5.31612 87.811 4.84417L87.9813 4.71412L87.646 4.37111Z" fill="var(--fill-0, #9464BC)"/>
<path id="Vector_165" d="M117.936 79.2605C119.718 80.1097 124.746 83.0369 125.866 84.5102C124.291 85.3107 122.408 82.2716 119.043 81.9601C119.603 81.6593 120.09 81.6431 120.697 81.4332C119.518 80.8555 118.721 80.3199 117.936 79.2605Z" fill="var(--fill-0, #9464BC)"/>
<path id="Vector_166" d="M80.635 6.67636C80.2528 6.18794 80.6774 5.70623 80.9122 5.2446C81.7212 4.73916 81.3753 4.87117 82.4005 4.87759C83.4088 5.52063 83.0573 5.19018 83.6925 6.36768L83.7279 6.66994C83.2218 7.25101 82.8544 7.65319 82.2955 8.18291C81.7519 7.37968 82.1668 6.77069 80.635 6.67636Z" fill="var(--fill-0, #9464BC)"/>
<path id="Vector_167" d="M80.6355 6.67683C82.1673 6.77116 81.7525 7.38015 82.296 8.18338C82.8549 7.65366 83.2223 7.25148 83.7285 6.67041C83.2441 8.82697 82.2835 10.1789 79.8318 9.39465C80.1662 8.48982 80.3854 7.60621 80.6355 6.67683Z" fill="var(--fill-0, #9464BC)"/>
<path id="Vector_168" d="M117.856 14.8767C118.758 15.2836 119.234 15.3977 119.829 16.1826L119.713 16.6947C119.13 16.9236 118.961 16.9716 118.348 17.1136C117.654 16.0436 117.862 16.3207 117.856 14.8767Z" fill="var(--fill-0, #9464BC)"/>
</g>
<defs>
<filter id="filter0_dinf_0_4" x="-1.17725e-07" y="0" width="232.145" height="505.159" filterUnits="userSpaceOnUse" color-interpolation-filters="sRGB">
<feFlood flood-opacity="0" result="BackgroundImageFix"/>
<feColorMatrix in="SourceAlpha" type="matrix" values="0 0 0 0 0 0 0 0 0 0 0 0 0 0 0 0 0 0 127 0" result="hardAlpha"/>
<feOffset dy="4"/>
<feGaussianBlur stdDeviation="2"/>
<feComposite in2="hardAlpha" operator="out"/>
<feColorMatrix type="matrix" values="0 0 0 0 0 0 0 0 0 0 0 0 0 0 0 0 0 0 0.04 0"/>
<feBlend mode="normal" in2="BackgroundImageFix" result="effect1_dropShadow_0_4"/>
<feBlend mode="normal" in="SourceGraphic" in2="BackgroundImageFix" result="shape"/>
<feColorMatrix in="SourceAlpha" type="matrix" values="0 0 0 0 0 0 0 0 0 0 0 0 0 0 0 0 0 0 127 0" result="hardAlpha"/>
<feOffset dy="4"/>
<feGaussianBlur stdDeviation="2"/>
<feComposite in2="hardAlpha" operator="arithmetic" k2="-1" k3="1"/>
<feColorMatrix type="matrix" values="0 0 0 0 0 0 0 0 0 0 0 0 0 0 0 0 0 0 0.08 0"/>
<feBlend mode="normal" in2="shape" result="effect2_innerShadow_0_4"/>
<feTurbulence type="fractalNoise" baseFrequency="2 2" stitchTiles="stitch" numOctaves="3" result="noise" seed="4672" />
<feColorMatrix in="noise" type="luminanceToAlpha" result="alphaNoise" />
<feComponentTransfer in="alphaNoise" result="coloredNoise1">
<feFuncA type="discrete" tableValues="1 1 1 1 1 1 1 1 1 1 1 1 1 1 1 1 1 1 1 1 1 1 1 1 1 1 1 1 1 1 1 1 1 1 1 1 1 1 1 1 1 1 1 1 1 1 1 1 1 1 1 0 0 0 0 0 0 0 0 0 0 0 0 0 0 0 0 0 0 0 0 0 0 0 0 0 0 0 0 0 0 0 0 0 0 0 0 0 0 0 0 0 0 0 0 0 0 0 0 0 "/>
</feComponentTransfer>
<feComposite operator="in" in2="effect2_innerShadow_0_4" in="coloredNoise1" result="noise1Clipped" />
<feFlood flood-color="rgba(7, 37, 96, 0.41)" result="color1Flood" />
<feComposite operator="in" in2="noise1Clipped" in="color1Flood" result="color1" />
<feMerge result="effect3_noise_0_4">
<feMergeNode in="effect2_innerShadow_0_4" />
<feMergeNode in="color1" />
</feMerge>
<feBlend mode="normal" in="effect3_noise_0_4" in2="effect1_dropShadow_0_4" result="effect3_noise_0_4"/>
<feGaussianBlur stdDeviation="1.5" result="effect4_foregroundBlur_0_4"/>
</filter>
</defs>
</svg>
