<svg preserveAspectRatio="none" width="100%" height="100%" overflow="visible" style="display: block;" viewBox="0 0 205.653 218.886" fill="none" xmlns="http://www.w3.org/2000/svg">
<g id="Stars" filter="url(#filter0_din_0_174)">
<g id="Vector" filter="url(#filter1_d_0_174)">
<path d="M178.258 112.357C178.435 112.255 178.666 112.143 178.88 112.104C180.755 111.766 183.294 116.003 183.948 117.134C184.376 117.876 184.788 118.631 185.197 119.38C185.639 120.19 186.004 121.145 186.753 121.814C188.114 123.029 190.585 122.793 192.425 122.952C193.363 123.033 194.289 123.154 195.221 123.267C195.914 123.351 196.622 123.414 197.303 123.549C197.902 123.668 198.492 123.845 199.074 124.007C199.576 124.147 200.096 124.283 200.549 124.507C201.027 124.744 201.508 125.14 201.63 125.591C202.016 127.015 197.435 131.058 196.17 132.078C195.133 132.913 193.47 133.697 192.951 134.8C192.68 135.378 192.691 136.064 192.738 136.671C192.792 137.387 192.997 138.086 193.141 138.791C193.324 139.692 193.454 140.596 193.606 141.5C193.697 142.041 193.822 142.578 193.874 143.123C193.952 143.929 193.876 144.735 193.738 145.533C193.657 146.005 193.595 146.541 193.249 146.944C192.978 147.26 192.567 147.463 192.095 147.532C191.258 147.655 190.422 147.331 189.663 147.092C186.768 146.183 184.142 144.897 181.589 143.494C181.077 143.2 180.343 142.706 179.686 142.711C178.573 142.721 176.022 144.352 175.017 144.885C173.292 145.8 169.05 147.963 167.006 147.774C166.588 147.736 166.234 147.58 165.974 147.316C165.719 147.059 165.547 146.735 165.454 146.418C165.189 145.512 165.273 144.556 165.322 143.637C165.363 142.873 165.364 142.097 165.459 141.337C165.521 140.839 165.645 140.339 165.733 139.843C165.882 139.007 166.01 138.168 166.147 137.33C166.248 136.716 166.298 135.882 165.985 135.304C165.448 134.312 164.253 133.704 163.337 132.951C162.001 131.852 160.661 130.795 159.487 129.581C158.8 128.87 156.764 126.768 156.931 125.885C157.259 124.148 165.531 123.425 167.474 123.197C168.4 123.089 169.623 123.08 170.458 122.726C172.168 122 172.908 119.783 173.596 118.472C174.39 116.959 175.945 114.263 177.265 113.043C177.563 112.768 177.887 112.569 178.258 112.357Z" fill="var(--fill-0, #7757A8)"/>
</g>
<g id="Vector_2" filter="url(#filter2_d_0_174)">
<path d="M178.258 60.8811C178.435 60.7793 178.666 60.6667 178.88 60.628C180.755 60.2894 183.294 64.5271 183.948 65.6583C184.376 66.4002 184.788 67.1545 185.197 67.9037C185.639 68.7139 186.004 69.6693 186.753 70.3376C188.114 71.5533 190.585 71.3166 192.425 71.476C193.363 71.5573 194.289 71.6777 195.221 71.7908C195.914 71.875 196.622 71.9376 197.303 72.0727C197.902 72.1916 198.492 72.3687 199.074 72.5307C199.576 72.6705 200.096 72.8066 200.549 73.0312C201.027 73.268 201.508 73.664 201.63 74.1148C202.016 75.5384 197.435 79.5819 196.17 80.6015C195.133 81.4367 193.47 82.221 192.951 83.3236C192.68 83.9021 192.691 84.5884 192.738 85.1953C192.792 85.9106 192.997 86.6095 193.141 87.3149C193.324 88.2156 193.454 89.12 193.606 90.024C193.697 90.5653 193.822 91.1022 193.874 91.6473C193.952 92.4526 193.876 93.2586 193.738 94.0569C193.657 94.5284 193.595 95.0646 193.249 95.4678C192.978 95.7835 192.567 95.9874 192.095 96.0563C191.258 96.1786 190.422 95.8547 189.663 95.6161C186.768 94.7066 184.142 93.4207 181.589 92.0177C181.077 91.7239 180.343 91.2298 179.686 91.2353C178.573 91.2447 176.022 92.8762 175.017 93.4092C173.292 94.3237 169.05 96.4872 167.006 96.2983C166.588 96.2596 166.234 96.1035 165.974 95.8403C165.719 95.5825 165.547 95.2592 165.454 94.942C165.189 94.0361 165.273 93.0801 165.322 92.1607C165.363 91.3968 165.364 90.6211 165.459 89.8608C165.521 89.3625 165.645 88.8633 165.733 88.3668C165.882 87.5306 166.01 86.6917 166.147 85.8542C166.248 85.2401 166.298 84.4064 165.985 83.8278C165.448 82.8358 164.253 82.2279 163.337 81.4746C162.001 80.3762 160.661 79.3193 159.487 78.1049C158.8 77.3942 156.764 75.2921 156.931 74.4085C157.259 72.6721 165.531 71.9486 167.474 71.7213C168.4 71.613 169.623 71.6042 170.458 71.25C172.168 70.5242 172.908 68.3068 173.596 66.9955C174.39 65.4831 175.945 62.7865 177.265 61.5673C177.563 61.2924 177.887 61.0926 178.258 60.8811Z" fill="var(--fill-0, #7757A8)"/>
</g>
<g id="Vector_3" filter="url(#filter3_d_0_174)">
<path d="M149.13 16.0472C149.307 15.9454 149.538 15.8327 149.752 15.7941C151.627 15.4555 154.166 19.6932 154.819 20.8244C155.248 21.5662 155.66 22.3206 156.069 23.0698C156.511 23.88 156.876 24.8354 157.625 25.5037C158.986 26.7194 161.457 26.4827 163.297 26.6421C164.235 26.7234 165.161 26.8438 166.093 26.9569C166.786 27.0411 167.494 27.1036 168.175 27.2388C168.774 27.3576 169.364 27.5348 169.946 27.6968C170.447 27.8366 170.968 27.9727 171.421 28.1973C171.899 28.4341 172.38 28.8301 172.502 29.2809C172.888 30.7045 168.307 34.748 167.042 35.7676C166.005 36.6028 164.342 37.3871 163.823 38.4897C163.551 39.0682 163.563 39.7544 163.61 40.3614C163.664 41.0766 163.869 41.7755 164.012 42.481C164.196 43.3817 164.326 44.2861 164.477 45.1901C164.568 45.7314 164.694 46.2683 164.746 46.8134C164.824 47.6186 164.748 48.4247 164.61 49.223C164.529 49.6945 164.467 50.2306 164.121 50.6339C163.85 50.9496 163.439 51.1535 162.967 51.2224C162.13 51.3447 161.294 51.0208 160.535 50.7822C157.64 49.8727 155.014 48.5868 152.461 47.1838C151.949 46.8899 151.215 46.3959 150.557 46.4014C149.445 46.4108 146.893 48.0423 145.889 48.5752C144.164 49.4898 139.922 51.6533 137.878 51.4644C137.459 51.4257 137.106 51.2696 136.846 51.0064C136.591 50.7486 136.419 50.4253 136.326 50.1081C136.061 49.2022 136.144 48.2461 136.194 47.3268C136.235 46.5629 136.236 45.7872 136.331 45.0269C136.393 44.5286 136.517 44.0294 136.605 43.5329C136.754 42.6967 136.882 41.8578 137.019 41.0203C137.12 40.4061 137.17 39.5725 136.857 38.9939C136.32 38.0019 135.125 37.394 134.209 36.6406C132.873 35.5423 131.533 34.4854 130.359 33.271C129.672 32.5603 127.636 30.4582 127.803 29.5746C128.131 27.8382 136.403 27.1147 138.346 26.8874C139.272 26.7791 140.495 26.7703 141.33 26.4161C143.04 25.6903 143.78 23.4729 144.468 22.1616C145.262 20.6492 146.817 17.9526 148.137 16.7334C148.435 16.4584 148.759 16.2587 149.13 16.0472Z" fill="var(--fill-0, #7757A8)"/>
</g>
<g id="Vector_4" filter="url(#filter4_d_0_174)">
<path d="M90.8741 0.272258C91.051 0.170483 91.2824 0.0578412 91.4964 0.0191957C93.3713 -0.319382 95.91 3.91828 96.564 5.0495C96.9928 5.79134 97.4049 6.54568 97.8134 7.29488C98.2551 8.10513 98.6209 9.0605 99.3692 9.72879C100.73 10.9445 103.202 10.7078 105.041 10.8672C105.979 10.9485 106.906 11.0689 107.838 11.182C108.531 11.2662 109.239 11.3287 109.92 11.4639C110.518 11.5827 111.108 11.7599 111.69 11.9219C112.192 12.0617 112.712 12.1978 113.165 12.4224C113.643 12.6592 114.124 13.0552 114.246 13.506C114.633 14.9296 110.052 18.9731 108.786 19.9927C107.75 20.8279 106.086 21.6122 105.568 22.7148C105.296 23.2933 105.308 23.9795 105.354 24.5865C105.408 25.3017 105.613 26.0006 105.757 26.7061C105.941 27.6068 106.07 28.5112 106.222 29.4152C106.313 29.9565 106.438 30.4934 106.491 31.0385C106.569 31.8437 106.492 32.6498 106.355 33.4481C106.274 33.9196 106.212 34.4557 105.866 34.859C105.595 35.1747 105.183 35.3786 104.711 35.4475C103.875 35.5698 103.038 35.2458 102.279 35.0073C99.3847 34.0977 96.7583 32.8119 94.2051 31.4089C93.6932 31.115 92.9593 30.621 92.302 30.6265C91.189 30.6359 88.638 32.2674 87.633 32.8003C85.9086 33.7149 81.6661 35.8784 79.6223 35.6895C79.204 35.6508 78.85 35.4947 78.5901 35.2315C78.3354 34.9737 78.1637 34.6504 78.0709 34.3332C77.8058 33.4273 77.889 32.4712 77.9382 31.5519C77.979 30.788 77.9801 30.0123 78.0754 29.252C78.1378 28.7537 78.2612 28.2545 78.3495 27.758C78.4984 26.9218 78.6263 26.0829 78.7635 25.2454C78.8642 24.6312 78.9146 23.7976 78.6013 23.219C78.0642 22.227 76.8699 21.6191 75.9536 20.8657C74.6176 19.7674 73.2778 18.7105 72.1034 17.4961C71.4162 16.7854 69.38 14.6833 69.5472 13.7997C69.8757 12.0633 78.1473 11.3398 80.0907 11.1125C81.0165 11.0042 82.2396 10.9954 83.0741 10.6412C84.7843 9.91538 85.5242 7.69798 86.2126 6.38666C87.0066 4.87426 88.5616 2.17772 89.8816 0.958465C90.1792 0.683537 90.5037 0.483759 90.8741 0.272258Z" fill="var(--fill-0, #7757A8)"/>
</g>
<g id="Vector_5" filter="url(#filter5_d_0_174)">
<path d="M25.3366 16.0472C25.5136 15.9454 25.745 15.8327 25.959 15.7941C27.8338 15.4555 30.3726 19.6932 31.0265 20.8244C31.4553 21.5662 31.8675 22.3206 32.2759 23.0698C32.7176 23.88 33.0835 24.8354 33.8317 25.5037C35.1928 26.7194 37.6641 26.4827 39.504 26.6421C40.4419 26.7234 41.3682 26.8438 42.3002 26.9569C42.9934 27.0411 43.7012 27.1036 44.3821 27.2388C44.9806 27.3576 45.5709 27.5348 46.1527 27.6968C46.6545 27.8366 47.1745 27.9727 47.628 28.1973C48.106 28.4341 48.5867 28.8301 48.7089 29.2809C49.095 30.7045 44.5143 34.748 43.249 35.7676C42.2125 36.6028 40.5486 37.3871 40.0304 38.4897C39.7585 39.0682 39.7704 39.7544 39.8166 40.3614C39.871 41.0766 40.0757 41.7755 40.2195 42.481C40.4032 43.3817 40.5326 44.2861 40.6845 45.1901C40.7755 45.7314 40.9006 46.2683 40.9534 46.8134C41.0314 47.6186 40.9548 48.4247 40.8175 49.223C40.7364 49.6945 40.6742 50.2306 40.328 50.6339C40.0571 50.9496 39.6456 51.1535 39.174 51.2224C38.3371 51.3447 37.5009 51.0208 36.7416 50.7822C33.8472 49.8727 31.2208 48.5868 28.6677 47.1838C28.1558 46.8899 27.4218 46.3959 26.7645 46.4014C25.6516 46.4108 23.1005 48.0423 22.0956 48.5752C20.3712 49.4898 16.1286 51.6533 14.0848 51.4644C13.6665 51.4257 13.3126 51.2696 13.0526 51.0064C12.798 50.7486 12.6262 50.4253 12.5334 50.1081C12.2683 49.2022 12.3515 48.2461 12.4007 47.3268C12.4415 46.5629 12.4426 45.7872 12.5379 45.0269C12.6003 44.5286 12.7237 44.0294 12.812 43.5329C12.9609 42.6967 13.0888 41.8578 13.2261 41.0203C13.3267 40.4061 13.3771 39.5725 13.0639 38.9939C12.5267 38.0019 11.3324 37.394 10.4161 36.6406C9.08015 35.5423 7.74029 34.4854 6.56595 33.271C5.87872 32.5603 3.84253 30.4582 4.00972 29.5746C4.33826 27.8382 12.6099 27.1147 14.5532 26.8874C15.479 26.7791 16.7021 26.7703 17.5366 26.4161C19.2469 25.6903 19.9867 23.4729 20.6751 22.1616C21.4691 20.6492 23.0242 17.9526 24.3441 16.7334C24.6417 16.4584 24.9662 16.2587 25.3366 16.0472Z" fill="var(--fill-0, #7757A8)"/>
</g>
<g id="Vector_6" filter="url(#filter6_d_0_174)">
<path d="M149.13 159.682C149.307 159.58 149.538 159.468 149.752 159.429C151.627 159.09 154.166 163.328 154.819 164.459C155.248 165.201 155.66 165.955 156.069 166.705C156.511 167.515 156.876 168.47 157.625 169.138C158.986 170.354 161.457 170.117 163.297 170.277C164.235 170.358 165.161 170.479 166.093 170.592C166.786 170.676 167.494 170.738 168.175 170.874C168.774 170.992 169.364 171.17 169.946 171.332C170.447 171.471 170.968 171.607 171.421 171.832C171.899 172.069 172.38 172.465 172.502 172.916C172.888 174.339 168.307 178.383 167.042 179.402C166.005 180.238 164.342 181.022 163.823 182.124C163.551 182.703 163.563 183.389 163.61 183.996C163.664 184.711 163.869 185.41 164.012 186.116C164.196 187.016 164.326 187.921 164.477 188.825C164.568 189.366 164.694 189.903 164.746 190.448C164.824 191.253 164.748 192.059 164.61 192.858C164.529 193.329 164.467 193.865 164.121 194.269C163.85 194.584 163.439 194.788 162.967 194.857C162.13 194.979 161.294 194.656 160.535 194.417C157.64 193.507 155.014 192.222 152.461 190.819C151.949 190.525 151.215 190.031 150.557 190.036C149.445 190.046 146.893 191.677 145.889 192.21C144.164 193.125 139.922 195.288 137.878 195.099C137.459 195.06 137.106 194.904 136.846 194.641C136.591 194.383 136.419 194.06 136.326 193.743C136.061 192.837 136.144 191.881 136.194 190.962C136.235 190.198 136.236 189.422 136.331 188.662C136.393 188.163 136.517 187.664 136.605 187.168C136.754 186.332 136.882 185.493 137.019 184.655C137.12 184.041 137.17 183.207 136.857 182.629C136.32 181.637 135.125 181.029 134.209 180.275C132.873 179.177 131.533 178.12 130.359 176.906C129.672 176.195 127.636 174.093 127.803 173.209C128.131 171.473 136.403 170.749 138.346 170.522C139.272 170.414 140.495 170.405 141.33 170.051C143.04 169.325 143.78 167.108 144.468 165.796C145.262 164.284 146.817 161.587 148.137 160.368C148.435 160.093 148.759 159.893 149.13 159.682Z" fill="var(--fill-0, #7757A8)"/>
</g>
<g id="Vector_7" filter="url(#filter7_d_0_174)">
<path d="M90.8741 175.457C91.051 175.355 91.2824 175.242 91.4964 175.204C93.3713 174.865 95.91 179.103 96.564 180.234C96.9928 180.976 97.4049 181.73 97.8134 182.479C98.2551 183.29 98.6209 184.245 99.3692 184.913C100.73 186.129 103.202 185.892 105.041 186.052C105.979 186.133 106.906 186.253 107.838 186.367C108.531 186.451 109.239 186.513 109.92 186.648C110.518 186.767 111.108 186.944 111.69 187.106C112.192 187.246 112.712 187.382 113.165 187.607C113.643 187.844 114.124 188.24 114.246 188.691C114.633 190.114 110.052 194.158 108.786 195.177C107.75 196.012 106.086 196.797 105.568 197.899C105.296 198.478 105.308 199.164 105.354 199.771C105.408 200.486 105.613 201.185 105.757 201.891C105.941 202.791 106.07 203.696 106.222 204.6C106.313 205.141 106.438 205.678 106.491 206.223C106.569 207.028 106.492 207.834 106.355 208.633C106.274 209.104 106.212 209.64 105.866 210.044C105.595 210.359 105.183 210.563 104.711 210.632C103.875 210.754 103.038 210.43 102.279 210.192C99.3847 209.282 96.7583 207.996 94.2051 206.594C93.6932 206.3 92.9593 205.806 92.302 205.811C91.189 205.82 88.638 207.452 87.633 207.985C85.9086 208.899 81.6661 211.063 79.6223 210.874C79.204 210.835 78.85 210.679 78.5901 210.416C78.3354 210.158 78.1637 209.835 78.0709 209.518C77.8058 208.612 77.889 207.656 77.9382 206.736C77.979 205.973 77.9801 205.197 78.0754 204.437C78.1378 203.938 78.2612 203.439 78.3495 202.943C78.4984 202.106 78.6263 201.267 78.7635 200.43C78.8642 199.816 78.9146 198.982 78.6013 198.404C78.0642 197.412 76.8699 196.804 75.9536 196.05C74.6176 194.952 73.2778 193.895 72.1034 192.681C71.4162 191.97 69.38 189.868 69.5472 188.984C69.8757 187.248 78.1473 186.524 80.0907 186.297C81.0165 186.189 82.2396 186.18 83.0741 185.826C84.7843 185.1 85.5242 182.883 86.2126 181.571C87.0066 180.059 88.5616 177.362 89.8816 176.143C90.1792 175.868 90.5037 175.668 90.8741 175.457Z" fill="var(--fill-0, #7757A8)"/>
</g>
<g id="Vector_8" filter="url(#filter8_d_0_174)">
<path d="M25.3366 159.682C25.5136 159.58 25.745 159.468 25.959 159.429C27.8338 159.09 30.3726 163.328 31.0265 164.459C31.4553 165.201 31.8675 165.955 32.2759 166.705C32.7176 167.515 33.0835 168.47 33.8317 169.138C35.1928 170.354 37.6641 170.117 39.504 170.277C40.4419 170.358 41.3682 170.479 42.3002 170.592C42.9934 170.676 43.7012 170.738 44.3821 170.874C44.9806 170.992 45.5709 171.17 46.1527 171.332C46.6545 171.471 47.1745 171.607 47.628 171.832C48.106 172.069 48.5867 172.465 48.7089 172.916C49.095 174.339 44.5143 178.383 43.249 179.402C42.2125 180.238 40.5486 181.022 40.0304 182.124C39.7585 182.703 39.7704 183.389 39.8166 183.996C39.871 184.711 40.0757 185.41 40.2195 186.116C40.4032 187.016 40.5326 187.921 40.6845 188.825C40.7755 189.366 40.9006 189.903 40.9534 190.448C41.0314 191.253 40.9548 192.059 40.8175 192.858C40.7364 193.329 40.6742 193.865 40.328 194.269C40.0571 194.584 39.6456 194.788 39.174 194.857C38.3371 194.979 37.5009 194.656 36.7416 194.417C33.8472 193.507 31.2208 192.222 28.6677 190.819C28.1558 190.525 27.4218 190.031 26.7645 190.036C25.6516 190.046 23.1005 191.677 22.0956 192.21C20.3712 193.125 16.1286 195.288 14.0848 195.099C13.6665 195.06 13.3126 194.904 13.0526 194.641C12.798 194.383 12.6262 194.06 12.5334 193.743C12.2683 192.837 12.3515 191.881 12.4007 190.962C12.4415 190.198 12.4426 189.422 12.5379 188.662C12.6003 188.163 12.7237 187.664 12.812 187.168C12.9609 186.332 13.0888 185.493 13.2261 184.655C13.3267 184.041 13.3771 183.207 13.0639 182.629C12.5267 181.637 11.3324 181.029 10.4161 180.275C9.08015 179.177 7.74029 178.12 6.56595 176.906C5.87872 176.195 3.84253 174.093 4.00972 173.209C4.33826 171.473 12.6099 170.749 14.5532 170.522C15.479 170.414 16.7021 170.405 17.5366 170.051C19.2469 169.325 19.9867 167.108 20.6751 165.796C21.4691 164.284 23.0242 161.587 24.3441 160.368C24.6417 160.093 24.9662 159.893 25.3366 159.682Z" fill="var(--fill-0, #7757A8)"/>
</g>
</g>
<defs>
<filter id="filter0_din_0_174" x="-5.64462e-10" y="3.14488e-10" width="205.653" height="218.886" filterUnits="userSpaceOnUse" color-interpolation-filters="sRGB">
<feFlood flood-opacity="0" result="BackgroundImageFix"/>
<feColorMatrix in="SourceAlpha" type="matrix" values="0 0 0 0 0 0 0 0 0 0 0 0 0 0 0 0 0 0 127 0" result="hardAlpha"/>
<feOffset dy="4"/>
<feGaussianBlur stdDeviation="2"/>
<feComposite in2="hardAlpha" operator="out"/>
<feColorMatrix type="matrix" values="0 0 0 0 0 0 0 0 0 0 0 0 0 0 0 0 0 0 0.04 0"/>
<feBlend mode="normal" in2="BackgroundImageFix" result="effect1_dropShadow_0_174"/>
<feBlend mode="normal" in="SourceGraphic" in2="BackgroundImageFix" result="shape"/>
<feColorMatrix in="SourceAlpha" type="matrix" values="0 0 0 0 0 0 0 0 0 0 0 0 0 0 0 0 0 0 127 0" result="hardAlpha"/>
<feOffset dy="4"/>
<feGaussianBlur stdDeviation="2"/>
<feComposite in2="hardAlpha" operator="arithmetic" k2="-1" k3="1"/>
<feColorMatrix type="matrix" values="0 0 0 0 0 0 0 0 0 0 0 0 0 0 0 0 0 0 0.02 0"/>
<feBlend mode="normal" in2="shape" result="effect2_innerShadow_0_174"/>
<feTurbulence type="fractalNoise" baseFrequency="2 2" stitchTiles="stitch" numOctaves="3" result="noise" seed="4672" />
<feColorMatrix in="noise" type="luminanceToAlpha" result="alphaNoise" />
<feComponentTransfer in="alphaNoise" result="coloredNoise1">
<feFuncA type="discrete" tableValues="1 1 1 1 1 1 1 1 1 1 1 1 1 1 1 1 1 1 1 1 1 1 1 1 1 1 1 1 1 1 1 1 1 1 1 1 1 1 1 1 1 1 1 1 1 1 1 1 1 1 1 0 0 0 0 0 0 0 0 0 0 0 0 0 0 0 0 0 0 0 0 0 0 0 0 0 0 0 0 0 0 0 0 0 0 0 0 0 0 0 0 0 0 0 0 0 0 0 0 0 "/>
</feComponentTransfer>
<feComposite operator="in" in2="effect2_innerShadow_0_174" in="coloredNoise1" result="noise1Clipped" />
<feFlood flood-color="rgba(7, 96, 15, 0.41)" result="color1Flood" />
<feComposite operator="in" in2="noise1Clipped" in="color1Flood" result="color1" />
<feMerge result="effect3_noise_0_174">
<feMergeNode in="effect2_innerShadow_0_174" />
<feMergeNode in="color1" />
</feMerge>
<feBlend mode="normal" in="effect3_noise_0_174" in2="effect1_dropShadow_0_174" result="effect3_noise_0_174"/>
</filter>
<filter id="filter1_d_0_174" x="152.921" y="112.085" width="52.7319" height="43.7011" filterUnits="userSpaceOnUse" color-interpolation-filters="sRGB">
<feFlood flood-opacity="0" result="BackgroundImageFix"/>
<feColorMatrix in="SourceAlpha" type="matrix" values="0 0 0 0 0 0 0 0 0 0 0 0 0 0 0 0 0 0 127 0" result="hardAlpha"/>
<feOffset dy="4"/>
<feGaussianBlur stdDeviation="2"/>
<feComposite in2="hardAlpha" operator="out"/>
<feColorMatrix type="matrix" values="0 0 0 0 0 0 0 0 0 0 0 0 0 0 0 0 0 0 0.04 0"/>
<feBlend mode="normal" in2="BackgroundImageFix" result="effect1_dropShadow_0_174"/>
<feBlend mode="normal" in="SourceGraphic" in2="effect1_dropShadow_0_174" result="shape"/>
</filter>
<filter id="filter2_d_0_174" x="152.921" y="60.6088" width="52.7319" height="43.7011" filterUnits="userSpaceOnUse" color-interpolation-filters="sRGB">
<feFlood flood-opacity="0" result="BackgroundImageFix"/>
<feColorMatrix in="SourceAlpha" type="matrix" values="0 0 0 0 0 0 0 0 0 0 0 0 0 0 0 0 0 0 127 0" result="hardAlpha"/>
<feOffset dy="4"/>
<feGaussianBlur stdDeviation="2"/>
<feComposite in2="hardAlpha" operator="out"/>
<feColorMatrix type="matrix" values="0 0 0 0 0 0 0 0 0 0 0 0 0 0 0 0 0 0 0.04 0"/>
<feBlend mode="normal" in2="BackgroundImageFix" result="effect1_dropShadow_0_174"/>
<feBlend mode="normal" in="SourceGraphic" in2="effect1_dropShadow_0_174" result="shape"/>
</filter>
<filter id="filter3_d_0_174" x="123.793" y="15.7749" width="52.7319" height="43.7011" filterUnits="userSpaceOnUse" color-interpolation-filters="sRGB">
<feFlood flood-opacity="0" result="BackgroundImageFix"/>
<feColorMatrix in="SourceAlpha" type="matrix" values="0 0 0 0 0 0 0 0 0 0 0 0 0 0 0 0 0 0 127 0" result="hardAlpha"/>
<feOffset dy="4"/>
<feGaussianBlur stdDeviation="2"/>
<feComposite in2="hardAlpha" operator="out"/>
<feColorMatrix type="matrix" values="0 0 0 0 0 0 0 0 0 0 0 0 0 0 0 0 0 0 0.04 0"/>
<feBlend mode="normal" in2="BackgroundImageFix" result="effect1_dropShadow_0_174"/>
<feBlend mode="normal" in="SourceGraphic" in2="effect1_dropShadow_0_174" result="shape"/>
</filter>
<filter id="filter4_d_0_174" x="65.5375" y="3.14488e-10" width="52.7319" height="43.7011" filterUnits="userSpaceOnUse" color-interpolation-filters="sRGB">
<feFlood flood-opacity="0" result="BackgroundImageFix"/>
<feColorMatrix in="SourceAlpha" type="matrix" values="0 0 0 0 0 0 0 0 0 0 0 0 0 0 0 0 0 0 127 0" result="hardAlpha"/>
<feOffset dy="4"/>
<feGaussianBlur stdDeviation="2"/>
<feComposite in2="hardAlpha" operator="out"/>
<feColorMatrix type="matrix" values="0 0 0 0 0 0 0 0 0 0 0 0 0 0 0 0 0 0 0.04 0"/>
<feBlend mode="normal" in2="BackgroundImageFix" result="effect1_dropShadow_0_174"/>
<feBlend mode="normal" in="SourceGraphic" in2="effect1_dropShadow_0_174" result="shape"/>
</filter>
<filter id="filter5_d_0_174" x="-5.64462e-10" y="15.7749" width="52.7319" height="43.7011" filterUnits="userSpaceOnUse" color-interpolation-filters="sRGB">
<feFlood flood-opacity="0" result="BackgroundImageFix"/>
<feColorMatrix in="SourceAlpha" type="matrix" values="0 0 0 0 0 0 0 0 0 0 0 0 0 0 0 0 0 0 127 0" result="hardAlpha"/>
<feOffset dy="4"/>
<feGaussianBlur stdDeviation="2"/>
<feComposite in2="hardAlpha" operator="out"/>
<feColorMatrix type="matrix" values="0 0 0 0 0 0 0 0 0 0 0 0 0 0 0 0 0 0 0.04 0"/>
<feBlend mode="normal" in2="BackgroundImageFix" result="effect1_dropShadow_0_174"/>
<feBlend mode="normal" in="SourceGraphic" in2="effect1_dropShadow_0_174" result="shape"/>
</filter>
<filter id="filter6_d_0_174" x="123.793" y="159.41" width="52.7319" height="43.7011" filterUnits="userSpaceOnUse" color-interpolation-filters="sRGB">
<feFlood flood-opacity="0" result="BackgroundImageFix"/>
<feColorMatrix in="SourceAlpha" type="matrix" values="0 0 0 0 0 0 0 0 0 0 0 0 0 0 0 0 0 0 127 0" result="hardAlpha"/>
<feOffset dy="4"/>
<feGaussianBlur stdDeviation="2"/>
<feComposite in2="hardAlpha" operator="out"/>
<feColorMatrix type="matrix" values="0 0 0 0 0 0 0 0 0 0 0 0 0 0 0 0 0 0 0.04 0"/>
<feBlend mode="normal" in2="BackgroundImageFix" result="effect1_dropShadow_0_174"/>
<feBlend mode="normal" in="SourceGraphic" in2="effect1_dropShadow_0_174" result="shape"/>
</filter>
<filter id="filter7_d_0_174" x="65.5375" y="175.185" width="52.7319" height="43.7011" filterUnits="userSpaceOnUse" color-interpolation-filters="sRGB">
<feFlood flood-opacity="0" result="BackgroundImageFix"/>
<feColorMatrix in="SourceAlpha" type="matrix" values="0 0 0 0 0 0 0 0 0 0 0 0 0 0 0 0 0 0 127 0" result="hardAlpha"/>
<feOffset dy="4"/>
<feGaussianBlur stdDeviation="2"/>
<feComposite in2="hardAlpha" operator="out"/>
<feColorMatrix type="matrix" values="0 0 0 0 0 0 0 0 0 0 0 0 0 0 0 0 0 0 0.04 0"/>
<feBlend mode="normal" in2="BackgroundImageFix" result="effect1_dropShadow_0_174"/>
<feBlend mode="normal" in="SourceGraphic" in2="effect1_dropShadow_0_174" result="shape"/>
</filter>
<filter id="filter8_d_0_174" x="-5.64462e-10" y="159.41" width="52.7319" height="43.7011" filterUnits="userSpaceOnUse" color-interpolation-filters="sRGB">
<feFlood flood-opacity="0" result="BackgroundImageFix"/>
<feColorMatrix in="SourceAlpha" type="matrix" values="0 0 0 0 0 0 0 0 0 0 0 0 0 0 0 0 0 0 127 0" result="hardAlpha"/>
<feOffset dy="4"/>
<feGaussianBlur stdDeviation="2"/>
<feComposite in2="hardAlpha" operator="out"/>
<feColorMatrix type="matrix" values="0 0 0 0 0 0 0 0 0 0 0 0 0 0 0 0 0 0 0.04 0"/>
<feBlend mode="normal" in2="BackgroundImageFix" result="effect1_dropShadow_0_174"/>
<feBlend mode="normal" in="SourceGraphic" in2="effect1_dropShadow_0_174" result="shape"/>
</filter>
</defs>
</svg>
