<svg preserveAspectRatio="none" overflow="visible" style="display: block;" width="44" height="44" viewBox="0 0 44 44" fill="none" xmlns="http://www.w3.org/2000/svg">
<g id="Frame 1798">
<path id="Vector" d="M34.761 12.0014C34.798 12.0005 34.8346 12.0001 34.8716 12C35.4532 11.999 35.9679 12.1739 36.3826 12.6038C37.2332 13.4865 41.4339 18.3946 41.7749 19.2198C42.0581 19.9049 41.9946 20.6803 41.9924 21.4091C41.5457 21.3981 40.3185 21.5532 40.0011 21.3855C38.8211 20.7628 37.9047 19.105 36.8062 18.2182C36.0505 17.6076 35.4757 17.4223 34.7902 16.8282C34.3867 17.7935 33.676 18.6018 33.4849 19.6639C33.2147 21.1709 35.3852 24.6877 35.379 26.5726C35.3768 27.2259 35.1228 27.8991 34.9351 28.5176C34.3721 28.1227 33.6299 28.1205 33.0849 27.6703C32.0313 26.8004 31.7335 23.6174 30.8868 22.3082C30.6424 21.9297 30.2395 21.3115 29.7765 21.2357C29.3298 21.1627 28.7196 21.6061 28.3645 21.8554C27.9464 22.1489 27.5037 22.4883 27.2497 22.9487C26.4086 24.4727 26.8277 28.5456 26.4749 30.4196C26.3782 30.9328 26.1878 31.4937 25.7427 31.7914C25.3365 32.0633 24.8286 32.0244 24.3746 31.9264C23.9335 31.8312 23.6031 31.5803 23.4312 31.1438C22.758 29.4357 24.3701 24.2178 23.443 22.7788C22.9721 22.047 21.9894 21.8561 21.2117 21.683C20.3245 22.5797 19.8458 22.8067 19.0945 23.9698C17.8854 25.841 17.4353 28.5348 15.7631 30.0063C14.8518 30.8084 14.1039 31.15 13.2824 30.0535C12.7161 27.5298 18.5355 22.6389 14.7742 20.6063C13.8129 20.0868 12.6958 20.2469 11.7092 20.592C10.8467 21.6056 9.95946 22.6104 9.0773 23.6062C8.15076 24.6519 6.7792 25.0775 5.46721 25.3459C5.60431 24.6448 5.85772 23.3897 6.1763 22.7645C6.99778 21.1498 9.06214 19.9856 9.74033 18.361C9.9044 17.9684 9.9353 17.1647 9.9589 16.725C6.89945 16.0068 6.94608 17.469 4.26085 18.0296C3.7211 18.1422 2.58138 17.9368 2 17.8376C2.22711 17.1249 2.50783 16.1963 3.13832 15.7584C4.29681 14.9537 5.58239 14.3145 6.82359 13.6561C7.68496 13.1991 8.52666 12.5945 9.45096 12.2934C9.85327 12.1667 10.6 12.3053 10.9298 12.5624C11.6513 13.1437 12.207 14.0229 12.7958 14.7377C16.5189 19.2589 22.4934 20.8476 27.7341 18.1624C28.6617 17.687 29.4517 17.3223 30.244 16.5894C31.0452 15.8761 31.7487 15.0663 32.4297 14.234C33.2023 13.2904 33.5125 12.3072 34.761 12.0014Z" fill="white" fill-opacity="0.98"/>
</g>
</svg>
