<svg xmlns="http://www.w3.org/2000/svg" viewBox="-1 -1 210 186">
  <path fill="white" d="M 69.9818863929272 181.8714491977742 C 105.52076895653693 186.54118848986357 191.5011271725968 176.6976362209897 191.5011271725968 176.6976362209897 L 196.2307264387184 178.1929953558864 L 200.31613969791312 168.81520132451834 L 208.37423706054688 155.6148354389649 L 207.2107208328012 55.08267800429337 L 205.27263306857986 43.86736288231304 L 205.27263306857986 41.260854135543134 L 206.9009969922972 31.222627677678133 L 208.37423706054688 19.70879060427624 L 205.03533916584453 10.427085108064137 L 201.46386220228786 10.370638229228193 L 200.31613969791312 3.819451482950083 L 197.6676254211281 2.4237655098094546 L 193.4837245208635 -0.00020184242430568 L 38.40692280433779 3.6535048407509714 L 33.68669742347857 2.534990413240691 L 24.651950356177142 3.8200094110787894 L 21.062528405025024 1.9506543711847493 L 18.626335661090664 6.458677496731324 L 14.249158100943792 10.025339879304617 L 10.686704563032327 23.38724608954586 L 3.113428062892095 49.55632018543937 L 2.1735843487555595 60.023942592916754 L 0 70.99001256742031 L 2.1735672198901868 81.95608911545115 L 4.099936111704737 91.05207603191333 L 3.3598581689349083 91.53562469933759 L 2.193213422141195 98.5018216416002 L 4.282410672434867 110.85980315204378 L 4.176040721635949 116.20682857290973 L 5.958962490349184 135.2518227480986 L 6.848937104573239 143.89108098847817 C 6.848937104573239 143.89108098847817 4.804533353058059 146.02173702489813 5.709032638786675 152.79972237718624 C 6.114442641374844 155.83771622271027 4.282304261253525 163.9499891598722 4.282304261253525 163.9499891598722 C 4.282304261253525 163.9499891598722 2.419632617525153 165.45455657396528 14.140487728367027 168.63934632246648 C 22.393975422553467 170.881983217956 33.23630588355 171.0716165386296 44.49132619070956 173.83326114570266 C 52.65956609884485 175.83750250050693 61.279886786516805 180.728023566909 69.9818863929272 181.8714491977742 Z"/>
</svg>
