<svg preserveAspectRatio="none" width="100%" height="100%" overflow="visible" style="display: block;" viewBox="0 0 24 22" fill="none" xmlns="http://www.w3.org/2000/svg">
<g id="Person">
<path d="M11.3828 4.72122C11 3.99997 10.9459 4.34331 11 3.49997C11.0485 2.74406 11.5489 1.95365 12.5 1.99998C12.9226 2.02396 13.2817 2.21441 13.5624 2.52508C14.1522 3.17289 13.8398 3.70043 13.8032 4.36132C14.4539 4.48467 15.0958 4.60772 15.7503 4.72122C16.0386 4.77123 16.3447 4.90553 16.6537 4.9444C16.7544 4.97454 16.8557 5.00273 16.9575 5.02895C17.9966 5.44315 18.8203 5.672 19.8121 6.28099C21.5812 7.36719 22.4494 9.00682 23.295 10.8216C23.3649 10.9817 23.4339 11.1423 23.5019 11.3032C23.6474 11.6184 24.1581 12.5054 23.9514 12.7437C23.5098 13.2527 22.0054 13.6586 21.396 13.7037C20.9923 13.4456 20.7851 13.0351 20.5242 12.6407C20.2031 12.1554 19.9021 11.679 19.5515 11.2107C19.4054 11.0155 19.3078 10.8275 19.1373 10.6343C18.9616 10.4371 18.7619 10.2619 18.5426 10.1124C18.2279 9.89986 17.7837 9.71399 17.4343 9.54967C17.0992 9.39205 16.8104 9.19813 16.483 9.0408C16.2284 8.91846 15.8862 8.84916 15.6227 8.74573C16.2213 9.43583 16.9727 10.0163 17.5233 10.7693C17.8327 11.1925 18.223 11.5801 18.5478 11.9928C18.9653 12.5091 19.3884 13.1444 19.8585 13.6219C19.9342 13.7017 20.0105 13.7809 20.0874 13.8596C20.6914 14.606 21.4076 15.4251 21.914 16.2329C22.6176 17.3552 23.0115 18.8898 23.2529 20.186C23.3336 20.6193 23.5013 21.3403 23.4511 21.7655C23.4442 21.822 23.4357 21.8785 23.4257 21.9347C23.0072 21.942 21.0029 22.0577 20.688 21.9628C20.3645 21.5981 20.2045 21.0951 19.9683 20.6778C19.7509 20.2935 19.4501 19.7865 19.1745 19.4439C18.5583 18.678 17.944 17.9373 17.2387 17.2469C16.9714 16.9853 16.6774 16.7572 16.4221 16.5044C16.0557 16.1416 15.7646 15.7827 15.3763 15.4295C14.9995 15.0867 14.5883 14.7721 14.2238 14.4297L14.2112 14.4379C13.9581 14.6024 13.728 14.8564 13.5017 15.0581C12.1173 16.2925 10.5685 17.6806 8.926 18.5759C6.28492 20.0156 2.94213 20.2694 0 20.304V16.486C0.763736 16.4143 1.41031 16.323 2.15431 16.1412C2.40811 16.0699 2.74422 16.0404 2.98766 15.9469C3.68346 15.6794 4.51916 15.3951 5.17903 15.0641C5.41793 14.9712 6.52561 14.4101 6.71086 14.2746C6.77396 14.2445 7.88187 13.358 7.90999 13.3216C8.90857 12.0288 9.61529 10.6792 9.56174 9.04075C8.99763 9.20483 8.41417 9.30642 7.83806 9.42114C7.54703 9.47907 7.25904 9.55385 6.96763 9.60875C6.4474 9.70677 5.91869 9.77669 5.39634 9.86537C4.66977 9.98872 0.848208 10.7023 0.452529 10.5835C0.198157 10.5071 0.163309 9.01311 0.00711389 8.72806C0.00485676 8.72392 0.0023713 8.71994 0 8.71588V7.52625C0.57868 7.47553 1.15301 7.09194 1.70062 6.91462C1.80708 6.88013 1.91622 6.83682 2.02167 6.79795C2.16323 6.77279 2.72388 6.54587 2.87035 6.47545C3.01478 6.43736 3.12481 6.40771 3.2657 6.35652C3.35645 6.34305 4.00436 6.10467 4.1925 6.05896C5.08359 5.84233 5.97636 5.63518 6.86878 5.42494C7.74761 5.27345 8.6303 5.14431 9.51594 5.03761C9.83856 4.99632 10.1463 4.94638 10.472 4.91238C11.009 4.85635 10.8474 4.75517 11.3828 4.72122Z" fill="var(--fill-0, black)"/>
<path d="M15 2.5C15 3.88071 13.8807 5 12.5 5C11.1193 5 10 3.88071 10 2.5C10 1.11929 11.1193 0 12.5 0C13.8807 0 15 1.11929 15 2.5Z" fill="var(--fill-0, black)"/>
</g>
</svg>
