<svg preserveAspectRatio="none" width="100%" height="100%" overflow="visible" style="display: block;" viewBox="0 0 28 24" fill="none" xmlns="http://www.w3.org/2000/svg">
<g id="Vector" filter="url(#filter0_d_0_14)">
<path d="M13.5398 0.122017C13.6189 0.0764044 13.7223 0.0259224 13.818 0.00860286C14.6563 -0.143136 15.7914 1.75604 16.0838 2.26301C16.2755 2.59548 16.4598 2.93355 16.6424 3.26931C16.8399 3.63244 17.0034 4.0606 17.338 4.3601C17.9465 4.90493 19.0515 4.79885 19.8741 4.8703C20.2935 4.90672 20.7076 4.96071 21.1243 5.01139C21.4343 5.04911 21.7507 5.07715 22.0551 5.13773C22.3228 5.19098 22.5867 5.27038 22.8468 5.34299C23.0712 5.40563 23.3037 5.46663 23.5064 5.56729C23.7201 5.67342 23.9351 5.85089 23.9897 6.05291C24.1623 6.69094 22.1143 8.50308 21.5485 8.96003C21.0851 9.33433 20.3412 9.68585 20.1095 10.18C19.9879 10.4393 19.9932 10.7468 20.0139 11.0188C20.0382 11.3394 20.1297 11.6526 20.194 11.9687C20.2761 12.3724 20.334 12.7777 20.4019 13.1829C20.4426 13.4255 20.4985 13.6661 20.5221 13.9104C20.557 14.2713 20.5228 14.6325 20.4614 14.9903C20.4251 15.2016 20.3973 15.4419 20.2425 15.6226C20.1214 15.7641 19.9374 15.8554 19.7266 15.8863C19.3524 15.9411 18.9785 15.796 18.639 15.689C17.3449 15.2814 16.1706 14.7051 15.0291 14.0764C14.8002 13.9447 14.4721 13.7233 14.1782 13.7257C13.6806 13.7299 12.54 14.4611 12.0907 14.7C11.3197 15.1098 9.42281 16.0794 8.50899 15.9948C8.32197 15.9775 8.16372 15.9075 8.04749 15.7895C7.93364 15.674 7.85686 15.5291 7.81536 15.387C7.69684 14.981 7.73402 14.5525 7.75602 14.1405C7.77428 13.7981 7.77476 13.4505 7.81735 13.1097C7.84527 12.8864 7.90045 12.6627 7.93993 12.4402C8.00648 12.0654 8.06368 11.6894 8.12504 11.3141C8.17004 11.0389 8.19258 10.6653 8.05252 10.4059C7.81236 9.96136 7.27838 9.68894 6.86868 9.3513C6.27137 8.85906 5.67231 8.38539 5.14726 7.84114C4.83999 7.52265 3.9296 6.58055 4.00434 6.18455C4.15124 5.40636 7.84953 5.08209 8.71841 4.98023C9.13235 4.93171 9.6792 4.92775 10.0523 4.76901C10.817 4.44373 11.1478 3.44997 11.4556 2.86228C11.8106 2.18447 12.5058 0.97598 13.096 0.429551C13.2291 0.306338 13.3742 0.216804 13.5398 0.122017Z" fill="var(--fill-0, black)"/>
</g>
<defs>
<filter id="filter0_d_0_14" x="-2.52375e-10" y="0" width="28" height="24" filterUnits="userSpaceOnUse" color-interpolation-filters="sRGB">
<feFlood flood-opacity="0" result="BackgroundImageFix"/>
<feColorMatrix in="SourceAlpha" type="matrix" values="0 0 0 0 0 0 0 0 0 0 0 0 0 0 0 0 0 0 127 0" result="hardAlpha"/>
<feOffset dy="4"/>
<feGaussianBlur stdDeviation="2"/>
<feComposite in2="hardAlpha" operator="out"/>
<feColorMatrix type="matrix" values="0 0 0 0 0 0 0 0 0 0 0 0 0 0 0 0 0 0 0.04 0"/>
<feBlend mode="normal" in2="BackgroundImageFix" result="effect1_dropShadow_0_14"/>
<feBlend mode="normal" in="SourceGraphic" in2="effect1_dropShadow_0_14" result="shape"/>
</filter>
</defs>
</svg>
